STARTFONT 2.1
COMMENT Font converted from OTF to BDF.
FONT -FreeType-TeXGyreHeros-Medium-R-Normal--32-240-96-96-P-152-ISO10646-1
SIZE 24 96 96
FONTBOUNDINGBOX 59 46 -16 -9
STARTPROPERTIES 19
POINT_SIZE 240
PIXEL_SIZE 32
RESOLUTION_X 96
RESOLUTION_Y 96
FONT_ASCENT 36
FONT_DESCENT 9
AVERAGE_WIDTH 152
SPACING "P"
FOUNDRY "FreeType"
FAMILY_NAME "TeXGyreHeros"
CHARSET_REGISTRY "ISO10646"
CHARSET_ENCODING "1"
WEIGHT_NAME "Medium"
SLANT "R"
SETWIDTH_NAME "Normal"
COPYRIGHT "Copyright 2006, 2009 for TeX Gyre extensions by B. Jackowski and J.M. Nowacki (on behalf of TeX users groups). This work is released under the GUST Font License --  see http://tug.org/fonts/licenses/GUST-FONT-LICENSE.txt for details."
_TTF_PSNAME "TeXGyreHeros-Regular"
_OTF_FONTFILE "texgyreheros-regular.otf"
_GBDFED_INFO "Edited with gbdfed 1.6."
ENDPROPERTIES
CHARS 1053
STARTCHAR char32
ENCODING 32
SWIDTH 25 0
DWIDTH 9 0
BBX 0 0 0 0
BITMAP
ENDCHAR
STARTCHAR char33
ENCODING 33
SWIDTH 25 0
DWIDTH 9 0
BBX 3 23 3 0
BITMAP
E0
E0
E0
E0
E0
E0
E0
E0
E0
E0
E0
E0
E0
C0
40
40
40
40
00
00
E0
E0
E0
ENDCHAR
STARTCHAR char34
ENCODING 34
SWIDTH 2 0
DWIDTH 11 0
BBX 8 8 2 14
BITMAP
E7
E7
E7
E7
C7
C6
C6
C2
ENDCHAR
STARTCHAR char35
ENCODING 35
SWIDTH 22 0
DWIDTH 18 0
BBX 17 22 0 0
BITMAP
018600
038600
038600
030E00
030E00
030C00
3FFF80
3FFF80
061C00
061C00
061800
0E1800
0E1800
FFFF00
FFFF00
0C3800
1C3000
1C3000
1C3000
187000
187000
186000
ENDCHAR
STARTCHAR char36
ENCODING 36
SWIDTH 22 0
DWIDTH 18 0
BBX 16 29 1 -4
BITMAP
0180
0180
0FF0
3FF8
39BC
719C
618E
E18E
E180
6180
7180
7D80
3FC0
0FF8
03FC
01BE
018E
0186
E187
E187
E186
E18E
719E
3FFC
1FF8
07C0
0180
0180
0180
ENDCHAR
STARTCHAR char37
ENCODING 37
SWIDTH 21 0
DWIDTH 28 0
BBX 26 22 1 0
BITMAP
00003000
1F003000
7F806000
71C0E000
E0E0C000
C0618000
C0618000
E0E30000
71C30000
3F860000
1F0E0000
000C0000
00183F00
00187F80
0030E1C0
0030C0C0
0060C0C0
00E0C0C0
00C0C0C0
0180F3C0
01807F80
03001E00
ENDCHAR
STARTCHAR char38
ENCODING 38
SWIDTH 2 0
DWIDTH 21 0
BBX 18 23 2 -1
BITMAP
07C000
0FF000
1C7000
383800
383800
383800
3C7800
1FF000
0FF000
0FC000
0F8000
3F8000
F1C300
E0E300
E07700
C03F00
C01E00
E01E00
E03E00
79F700
3FE380
1F8180
000040
ENDCHAR
STARTCHAR char39
ENCODING 39
SWIDTH 16 0
DWIDTH 6 0
BBX 3 8 2 14
BITMAP
E0
E0
E0
E0
C0
C0
C0
C0
ENDCHAR
STARTCHAR char40
ENCODING 40
SWIDTH 2 0
DWIDTH 11 0
BBX 7 30 2 -7
BITMAP
06
0C
0C
18
18
38
30
30
70
60
60
60
E0
E0
E0
E0
E0
E0
60
60
60
70
30
30
38
18
18
0C
0C
06
ENDCHAR
STARTCHAR char41
ENCODING 41
SWIDTH 2 0
DWIDTH 11 0
BBX 7 30 1 -7
BITMAP
C0
60
30
30
38
18
1C
1C
0C
0C
0E
0E
0E
06
06
06
06
0E
0E
0E
0C
0C
0C
1C
18
38
30
30
60
C0
ENDCHAR
STARTCHAR char42
ENCODING 42
SWIDTH 5 0
DWIDTH 12 0
BBX 10 9 1 14
BITMAP
0C00
0C00
0C00
FFC0
3F80
1E00
1F00
3300
2100
ENDCHAR
STARTCHAR char43
ENCODING 43
SWIDTH 24 0
DWIDTH 19 0
BBX 15 14 2 1
BITMAP
0300
0300
0300
0300
0300
0300
FFFE
FFFE
0300
0300
0300
0300
0300
0300
ENDCHAR
STARTCHAR char44
ENCODING 44
SWIDTH 25 0
DWIDTH 9 0
BBX 3 8 3 -5
BITMAP
E0
E0
E0
20
20
60
C0
80
ENDCHAR
STARTCHAR char45
ENCODING 45
SWIDTH 2 0
DWIDTH 11 0
BBX 8 2 1 8
BITMAP
FF
FF
ENDCHAR
STARTCHAR char46
ENCODING 46
SWIDTH 25 0
DWIDTH 9 0
BBX 3 3 3 0
BITMAP
E0
E0
E0
ENDCHAR
STARTCHAR char47
ENCODING 47
SWIDTH 25 0
DWIDTH 9 0
BBX 9 23 0 0
BITMAP
0180
0180
0300
0300
0300
0600
0600
0600
0400
0C00
0C00
0800
1800
1800
1000
3000
3000
2000
6000
6000
4000
C000
C000
ENDCHAR
STARTCHAR char48
ENCODING 48
SWIDTH 22 0
DWIDTH 18 0
BBX 15 22 1 0
BITMAP
07C0
1FF0
3FF8
383C
701C
700E
700E
600E
E00E
E00E
E00E
E00E
E00E
E00E
600E
700E
700E
701C
381C
3E78
1FF0
07C0
ENDCHAR
STARTCHAR char49
ENCODING 49
SWIDTH 22 0
DWIDTH 18 0
BBX 8 22 3 0
BITMAP
03
03
07
0F
FF
FF
07
07
07
07
07
07
07
07
07
07
07
07
07
07
07
07
ENDCHAR
STARTCHAR char50
ENCODING 50
SWIDTH 22 0
DWIDTH 18 0
BBX 15 22 1 0
BITMAP
07E0
1FF8
3FFC
781E
700E
700E
700E
600E
000E
001E
003C
00F8
03F0
07C0
1F00
3C00
7800
7000
6000
FFFE
FFFE
FFFE
ENDCHAR
STARTCHAR char51
ENCODING 51
SWIDTH 22 0
DWIDTH 18 0
BBX 15 22 1 0
BITMAP
0FE0
1FF8
3EF8
701C
701C
600E
E00C
001C
003C
03F8
03F0
003C
000E
000E
000E
E00E
E00E
F00E
701C
7EFC
3FF8
0FE0
ENDCHAR
STARTCHAR char52
ENCODING 52
SWIDTH 22 0
DWIDTH 18 0
BBX 16 22 1 0
BITMAP
0030
0070
00F0
00F0
01F0
03F0
0770
0670
0E70
1C70
3870
7070
6070
E070
FFFF
FFFF
FFFF
0070
0070
0070
0070
0070
ENDCHAR
STARTCHAR char53
ENCODING 53
SWIDTH 22 0
DWIDTH 18 0
BBX 15 22 1 0
BITMAP
3FFC
3FFC
3FFC
3800
3800
3000
3000
77E0
7FF8
7FFC
781C
600E
000E
000E
0006
000E
E00E
700E
701C
3EFC
1FF8
0FE0
ENDCHAR
STARTCHAR char54
ENCODING 54
SWIDTH 22 0
DWIDTH 18 0
BBX 15 22 1 0
BITMAP
03E0
0FF8
1FFC
3C1C
380E
700E
7000
6000
63E0
EFF8
FFFC
F81E
F00E
F00E
600E
600E
700E
700E
381C
3FFC
1FF8
07E0
ENDCHAR
STARTCHAR char55
ENCODING 55
SWIDTH 22 0
DWIDTH 18 0
BBX 16 22 1 0
BITMAP
FFFF
FFFF
FFFF
000E
001C
0018
0038
0070
0060
00E0
00C0
01C0
0180
0380
0300
0700
0700
0600
0E00
0E00
0E00
0C00
ENDCHAR
STARTCHAR char56
ENCODING 56
SWIDTH 22 0
DWIDTH 18 0
BBX 15 22 1 0
BITMAP
07E0
1FF8
3FFC
781C
701C
700E
700E
701C
3C3C
1FF8
1FF0
3E7C
701E
F00E
E00E
E006
E00E
F00E
781E
3FFC
1FF8
07E0
ENDCHAR
STARTCHAR char57
ENCODING 57
SWIDTH 22 0
DWIDTH 18 0
BBX 15 22 1 0
BITMAP
07E0
1FF0
3EF8
781C
701C
E00E
E00E
E00E
E00E
700E
701E
3EFE
1FEE
0FCE
000E
000E
701C
701C
7838
3FF8
1FF0
07C0
ENDCHAR
STARTCHAR char58
ENCODING 58
SWIDTH 25 0
DWIDTH 9 0
BBX 3 17 3 0
BITMAP
E0
E0
E0
00
00
00
00
00
00
00
00
00
00
00
E0
E0
E0
ENDCHAR
STARTCHAR char59
ENCODING 59
SWIDTH 25 0
DWIDTH 9 0
BBX 3 22 3 -5
BITMAP
E0
E0
E0
00
00
00
00
00
00
00
00
00
00
00
E0
E0
E0
20
20
60
C0
80
ENDCHAR
STARTCHAR char60
ENCODING 60
SWIDTH 24 0
DWIDTH 19 0
BBX 10 20 4 -2
BITMAP
0040
0040
01C0
03C0
0700
0E00
1C00
3800
F000
E000
E000
F000
3800
1C00
0E00
0700
03C0
01C0
0040
0040
ENDCHAR
STARTCHAR char61
ENCODING 61
SWIDTH 24 0
DWIDTH 19 0
BBX 15 8 2 4
BITMAP
FFFE
FFFE
0000
0000
0000
0000
FFFE
FFFE
ENDCHAR
STARTCHAR char62
ENCODING 62
SWIDTH 24 0
DWIDTH 19 0
BBX 10 20 4 -2
BITMAP
8000
8000
E000
F000
3800
1C00
0E00
0700
03C0
01C0
01C0
03C0
0700
0E00
1C00
3800
F000
E000
8000
8000
ENDCHAR
STARTCHAR char63
ENCODING 63
SWIDTH 22 0
DWIDTH 18 0
BBX 14 23 2 0
BITMAP
0FC0
3FF0
7FF8
703C
601C
E01C
E01C
001C
0038
0078
00F0
01E0
03C0
0380
0700
0700
0700
0000
0000
0000
0700
0700
0700
ENDCHAR
STARTCHAR char64
ENCODING 64
SWIDTH 4 0
DWIDTH 32 0
BBX 29 27 1 -4
BITMAP
000FF000
007FFC00
01FEFF00
03E00F80
078003C0
0E0001E0
1C0000F0
3807C070
381FEE38
703C6C38
70703C38
60E03C18
E0E03818
E0E03838
E1C03838
E1C03038
E0C07070
E0E0F0E0
70F1F1E0
707FFFC0
783E3F00
3C000000
1E000000
0F000000
07E01800
01FFFC00
007FF800
ENDCHAR
STARTCHAR char65
ENCODING 65
SWIDTH 2 0
DWIDTH 21 0
BBX 20 23 1 0
BITMAP
00F000
01F000
01F800
01F800
03B800
039C00
079C00
071C00
070E00
0E0E00
0E0E00
0E0700
1C0700
1C0780
1FFF80
3FFF80
3803C0
3801C0
7001C0
7001E0
F000E0
E000E0
E000F0
ENDCHAR
STARTCHAR char66
ENCODING 66
SWIDTH 2 0
DWIDTH 21 0
BBX 17 23 3 0
BITMAP
FFF000
FFFC00
FFFE00
E00E00
E00700
E00700
E00700
E00700
E00E00
E01E00
FFF800
FFFC00
FFFE00
E00700
E00380
E00380
E00380
E00380
E00780
E00700
FFFF00
FFFE00
FFF800
ENDCHAR
STARTCHAR char67
ENCODING 67
SWIDTH 7 0
DWIDTH 23 0
BBX 20 23 2 0
BITMAP
01FC00
0FFF00
1FFF80
3C03C0
7801C0
7001E0
F000E0
E00000
E00000
E00000
E00000
E00000
E00000
E00000
E00070
E000E0
E000E0
7000E0
7801C0
3C03C0
1FFF80
0FFF00
03FC00
ENDCHAR
STARTCHAR char68
ENCODING 68
SWIDTH 7 0
DWIDTH 23 0
BBX 18 23 3 0
BITMAP
FFF000
FFFC00
FFFE00
E00F00
E00780
E00380
E003C0
E001C0
E001C0
E001C0
E001C0
E001C0
E001C0
E001C0
E001C0
E001C0
E003C0
E00380
E00780
E00F00
FFFE00
FFFC00
FFF000
ENDCHAR
STARTCHAR char69
ENCODING 69
SWIDTH 2 0
DWIDTH 21 0
BBX 17 23 3 0
BITMAP
FFFF00
FFFF00
FFFF00
E00000
E00000
E00000
E00000
E00000
E00000
E00000
FFFF00
FFFF00
FFFF00
E00000
E00000
E00000
E00000
E00000
E00000
E00000
FFFF80
FFFF80
FFFF80
ENDCHAR
STARTCHAR char70
ENCODING 70
SWIDTH 27 0
DWIDTH 20 0
BBX 16 23 3 0
BITMAP
FFFF
FFFF
FFFF
E000
E000
E000
E000
E000
E000
E000
FFFC
FFFC
FFFC
E000
E000
E000
E000
E000
E000
E000
E000
E000
E000
ENDCHAR
STARTCHAR char71
ENCODING 71
SWIDTH 13 0
DWIDTH 25 0
BBX 22 23 1 0
BITMAP
00FE00
03FF80
0FFFE0
1F01F0
1C0070
380038
780038
700000
700000
700000
E00000
E00FFC
E00FFC
E00FFC
70001C
70001C
70001C
38003C
3C007C
1F00FC
0FFFDC
07FF8C
00FE00
ENDCHAR
STARTCHAR char72
ENCODING 72
SWIDTH 7 0
DWIDTH 23 0
BBX 18 23 3 0
BITMAP
E001C0
E001C0
E001C0
E001C0
E001C0
E001C0
E001C0
E001C0
E001C0
E001C0
FFFFC0
FFFFC0
FFFFC0
E001C0
E001C0
E001C0
E001C0
E001C0
E001C0
E001C0
E001C0
E001C0
E001C0
ENDCHAR
STARTCHAR char73
ENCODING 73
SWIDTH 25 0
DWIDTH 9 0
BBX 3 23 3 0
BITMAP
E0
E0
E0
E0
E0
E0
E0
E0
E0
E0
E0
E0
E0
E0
E0
E0
E0
E0
E0
E0
E0
E0
E0
ENDCHAR
STARTCHAR char74
ENCODING 74
SWIDTH 16 0
DWIDTH 16 0
BBX 13 23 1 0
BITMAP
0038
0038
0038
0038
0038
0038
0038
0038
0038
0038
0038
0038
0038
0038
0038
E038
E038
E078
E070
F070
7FF0
7FE0
1F80
ENDCHAR
STARTCHAR char75
ENCODING 75
SWIDTH 2 0
DWIDTH 21 0
BBX 18 23 3 0
BITMAP
E00380
E00700
E00E00
E01C00
E03800
E07000
E0E000
E1C000
E38000
E78000
EF8000
FFC000
F9E000
F0E000
E07000
E07800
E03800
E01C00
E01E00
E00F00
E00700
E00780
E003C0
ENDCHAR
STARTCHAR char76
ENCODING 76
SWIDTH 22 0
DWIDTH 18 0
BBX 14 23 3 0
BITMAP
E000
E000
E000
E000
E000
E000
E000
E000
E000
E000
E000
E000
E000
E000
E000
E000
E000
E000
E000
E000
FFFC
FFFC
FFFC
ENDCHAR
STARTCHAR char77
ENCODING 77
SWIDTH 18 0
DWIDTH 27 0
BBX 22 23 2 0
BITMAP
F8003C
F8003C
F8007C
FC007C
FC006C
EC00EC
EE00EC
EE00CC
E601CC
E701CC
E3018C
E3838C
E3838C
E1830C
E1C70C
E1C70C
E0C60C
E0EE0C
E0EE0C
E06C0C
E07C0C
E0780C
E0380C
ENDCHAR
STARTCHAR char78
ENCODING 78
SWIDTH 7 0
DWIDTH 23 0
BBX 19 23 2 0
BITMAP
F000E0
F800E0
F800E0
FC00E0
FE00E0
EE00E0
E700E0
E780E0
E380E0
E1C0E0
E1C0E0
E0E0E0
E0F0E0
E070E0
E038E0
E03CE0
E01CE0
E00EE0
E00FE0
E007E0
E003E0
E003E0
E001E0
ENDCHAR
STARTCHAR char79
ENCODING 79
SWIDTH 13 0
DWIDTH 25 0
BBX 23 23 1 0
BITMAP
00FE00
03FF80
0FFFE0
1F01F0
3C0078
380038
70003C
70001C
70001C
E0000E
E0000E
E0000E
E0000E
E0000E
F0001C
70001C
70001C
380038
3C0078
1E01F0
0FFFE0
07FFC0
00FE00
ENDCHAR
STARTCHAR char80
ENCODING 80
SWIDTH 2 0
DWIDTH 21 0
BBX 17 23 3 0
BITMAP
FFF800
FFFE00
FFFF00
E00F00
E00700
E00780
E00380
E00780
E00700
E00F00
FFFF00
FFFE00
FFF800
E00000
E00000
E00000
E00000
E00000
E00000
E00000
E00000
E00000
E00000
ENDCHAR
STARTCHAR char81
ENCODING 81
SWIDTH 13 0
DWIDTH 25 0
BBX 23 24 1 -1
BITMAP
00FE00
03FF80
0FFFE0
1F01F0
3C0078
380038
70003C
70001C
70001C
E0000E
E0000E
E0000E
E0000E
E0000E
F0001C
70001C
70021C
380738
3C03F8
1E01F0
0FFFF0
07FFB8
00FE1C
000008
ENDCHAR
STARTCHAR char82
ENCODING 82
SWIDTH 7 0
DWIDTH 23 0
BBX 19 23 3 0
BITMAP
FFFC00
FFFF00
FFFF80
E00780
E003C0
E001C0
E001C0
E001C0
E00380
E00380
FFFF00
FFFC00
FFFF00
E00780
E00380
E00380
E00380
E00380
E00380
E00380
E003C0
E001C0
E001E0
ENDCHAR
STARTCHAR char83
ENCODING 83
SWIDTH 2 0
DWIDTH 21 0
BBX 18 23 2 0
BITMAP
07F000
1FFC00
3FFE00
780F00
700780
E00380
E00380
E00000
F00000
780000
7F8000
3FF000
07FE00
007F00
000380
C001C0
E001C0
E001C0
F00380
780780
7FFF00
1FFE00
07F800
ENDCHAR
STARTCHAR char84
ENCODING 84
SWIDTH 27 0
DWIDTH 20 0
BBX 18 23 1 0
BITMAP
FFFFC0
FFFFC0
FFFFC0
01C000
01C000
01C000
01C000
01C000
01C000
01C000
01C000
01C000
01C000
01C000
01C000
01C000
01C000
01C000
01C000
01C000
01C000
01C000
01C000
ENDCHAR
STARTCHAR char85
ENCODING 85
SWIDTH 7 0
DWIDTH 23 0
BBX 18 23 3 0
BITMAP
E001C0
E001C0
E001C0
E001C0
E001C0
E001C0
E001C0
E001C0
E001C0
E001C0
E001C0
E001C0
E001C0
E001C0
E001C0
E001C0
E001C0
E00380
F00380
780F00
3FFF00
1FFC00
07F000
ENDCHAR
STARTCHAR char86
ENCODING 86
SWIDTH 2 0
DWIDTH 21 0
BBX 19 23 1 0
BITMAP
E000E0
F000E0
7000E0
7001C0
3801C0
3801C0
380380
1C0380
1C0380
1E0700
0E0700
0E0700
0F0E00
070E00
070E00
039C00
039C00
039800
01F800
01F800
01F000
00F000
00F000
ENDCHAR
STARTCHAR char87
ENCODING 87
SWIDTH 27 0
DWIDTH 30 0
BBX 29 23 1 0
BITMAP
E00F0078
E00F0070
F00F8070
700F8070
701F80F0
701D80E0
781DC0E0
3819C0E0
3839C1E0
3838E1C0
3C30E1C0
1C70E1C0
1C7061C0
1C707380
1C607380
0EE07380
0EE03B00
0EC03F00
0FC03F00
07C01F00
07C01E00
07801E00
03801E00
ENDCHAR
STARTCHAR char88
ENCODING 88
SWIDTH 2 0
DWIDTH 21 0
BBX 19 23 1 0
BITMAP
7001E0
7801C0
3803C0
1C0780
1E0700
0E0F00
071E00
079C00
03B800
01F800
01F000
00F000
01F000
03F800
03BC00
071E00
0F0E00
0E0F00
1C0780
3C0380
7803C0
7001E0
F000E0
ENDCHAR
STARTCHAR char89
ENCODING 89
SWIDTH 2 0
DWIDTH 21 0
BBX 20 23 1 0
BITMAP
E000F0
F000E0
7801E0
3801C0
3C0380
1C0780
0E0700
0F0E00
070E00
039C00
03FC00
01F800
01F000
00F000
00E000
00E000
00E000
00E000
00E000
00E000
00E000
00E000
00E000
ENDCHAR
STARTCHAR char90
ENCODING 90
SWIDTH 27 0
DWIDTH 20 0
BBX 18 23 1 0
BITMAP
7FFFC0
7FFFC0
7FFFC0
000780
000F00
000E00
001E00
003C00
007800
00F000
00E000
01E000
03C000
078000
070000
0E0000
1E0000
3C0000
780000
700000
FFFFC0
FFFFC0
FFFFC0
ENDCHAR
STARTCHAR char91
ENCODING 91
SWIDTH 25 0
DWIDTH 9 0
BBX 6 30 2 -7
BITMAP
FC
FC
E0
E0
E0
E0
E0
E0
E0
E0
E0
E0
E0
E0
E0
E0
E0
E0
E0
E0
E0
E0
E0
E0
E0
E0
E0
E0
FC
FC
ENDCHAR
STARTCHAR char92
ENCODING 92
SWIDTH 25 0
DWIDTH 9 0
BBX 9 23 0 0
BITMAP
C000
C000
4000
6000
6000
2000
3000
3000
1000
1800
1800
0800
0C00
0C00
0400
0600
0600
0600
0300
0300
0300
0180
0180
ENDCHAR
STARTCHAR char93
ENCODING 93
SWIDTH 25 0
DWIDTH 9 0
BBX 6 30 1 -7
BITMAP
FC
FC
1C
1C
1C
1C
1C
1C
1C
1C
1C
1C
1C
1C
1C
1C
1C
1C
1C
1C
1C
1C
1C
1C
1C
1C
1C
1C
FC
FC
ENDCHAR
STARTCHAR char94
ENCODING 94
SWIDTH 13 0
DWIDTH 15 0
BBX 11 12 2 10
BITMAP
0E00
0E00
1F00
1B00
3B80
3180
3180
60C0
60C0
E0E0
C060
C060
ENDCHAR
STARTCHAR char95
ENCODING 95
SWIDTH 22 0
DWIDTH 18 0
BBX 19 2 -1 -6
BITMAP
FFFFE0
FFFFE0
ENDCHAR
STARTCHAR char96
ENCODING 96
SWIDTH 2 0
DWIDTH 11 0
BBX 6 5 0 18
BITMAP
F0
70
38
18
0C
ENDCHAR
STARTCHAR char97
ENCODING 97
SWIDTH 22 0
DWIDTH 18 0
BBX 16 17 1 0
BITMAP
0FE0
1FF8
3EFC
781C
701C
001C
001C
03FC
1FFC
7E1C
701C
E01C
E01C
E03C
78FE
3FCF
1F07
ENDCHAR
STARTCHAR char98
ENCODING 98
SWIDTH 22 0
DWIDTH 18 0
BBX 15 23 2 0
BITMAP
C000
C000
C000
C000
C000
C000
C7C0
DFF0
DFF8
F03C
E01C
E01C
E00E
C00E
C00E
C00E
E00E
E01C
E01C
F038
FFF8
DFF0
C7C0
ENDCHAR
STARTCHAR char99
ENCODING 99
SWIDTH 16 0
DWIDTH 16 0
BBX 14 17 1 0
BITMAP
07C0
1FF0
3EF8
7838
701C
E01C
E000
E000
E000
E000
E000
E01C
701C
703C
3EF8
1FF0
0FC0
ENDCHAR
STARTCHAR char100
ENCODING 100
SWIDTH 22 0
DWIDTH 18 0
BBX 15 23 1 0
BITMAP
000E
000E
000E
000E
000E
000E
0FCE
1FEE
3FFE
783E
F01E
E00E
E00E
E00E
E00E
E00E
E00E
E00E
F01E
783E
3EFE
1FEE
0FCE
ENDCHAR
STARTCHAR char101
ENCODING 101
SWIDTH 22 0
DWIDTH 18 0
BBX 15 17 1 0
BITMAP
07E0
1FF8
3FFC
781C
700E
600E
E006
FFFE
FFFE
E000
E000
6000
700E
781C
3FFC
1FF8
07E0
ENDCHAR
STARTCHAR char102
ENCODING 102
SWIDTH 25 0
DWIDTH 9 0
BBX 7 23 1 0
BITMAP
0E
3E
3C
30
30
30
FE
FE
30
30
30
30
30
30
30
30
30
30
30
30
30
30
30
ENDCHAR
STARTCHAR char103
ENCODING 103
SWIDTH 22 0
DWIDTH 18 0
BBX 15 23 1 -6
BITMAP
078E
1FEE
3FFE
783E
701E
E01E
E00E
E00E
E00E
E00E
E00E
E01E
701E
703E
3EFE
1FEE
0F8C
000C
E00C
701C
7838
3FF8
1FE0
ENDCHAR
STARTCHAR char104
ENCODING 104
SWIDTH 22 0
DWIDTH 18 0
BBX 14 23 2 0
BITMAP
E000
E000
E000
E000
E000
E000
E3E0
EFF0
FE78
F038
F01C
E01C
E01C
E01C
E01C
E01C
E01C
E01C
E01C
E01C
E01C
E01C
E01C
ENDCHAR
STARTCHAR char105
ENCODING 105
SWIDTH 19 0
DWIDTH 7 0
BBX 3 22 2 0
BITMAP
E0
E0
E0
00
00
E0
E0
E0
E0
E0
E0
E0
E0
E0
E0
E0
E0
E0
E0
E0
E0
E0
ENDCHAR
STARTCHAR char106
ENCODING 106
SWIDTH 19 0
DWIDTH 7 0
BBX 6 29 -1 -7
BITMAP
1C
1C
1C
00
00
1C
1C
1C
1C
1C
1C
1C
1C
1C
1C
1C
1C
1C
1C
1C
1C
1C
1C
1C
1C
1C
3C
F8
F0
ENDCHAR
STARTCHAR char107
ENCODING 107
SWIDTH 16 0
DWIDTH 16 0
BBX 14 23 2 0
BITMAP
E000
E000
E000
E000
E000
E000
E078
E0F0
E1E0
E3C0
E780
EF00
FF00
FF00
F380
E380
E1C0
E1E0
E0E0
E070
E078
E038
E03C
ENDCHAR
STARTCHAR char108
ENCODING 108
SWIDTH 19 0
DWIDTH 7 0
BBX 3 23 2 0
BITMAP
E0
E0
E0
E0
E0
E0
E0
E0
E0
E0
E0
E0
E0
E0
E0
E0
E0
E0
E0
E0
E0
E0
E0
ENDCHAR
STARTCHAR char109
ENCODING 109
SWIDTH 18 0
DWIDTH 27 0
BBX 22 17 2 0
BITMAP
E7C1F0
EFF7F8
F87E1C
F03C1C
E0380C
E0380C
E0380C
E0380C
E0380C
E0380C
E0380C
E0380C
E0380C
E0380C
E0380C
E0380C
E0380C
ENDCHAR
STARTCHAR char110
ENCODING 110
SWIDTH 22 0
DWIDTH 18 0
BBX 14 17 2 0
BITMAP
E3E0
EFF0
F838
F038
F01C
E01C
E01C
E01C
E01C
E01C
E01C
E01C
E01C
E01C
E01C
E01C
E01C
ENDCHAR
STARTCHAR char111
ENCODING 111
SWIDTH 22 0
DWIDTH 18 0
BBX 15 17 1 0
BITMAP
07E0
1FF8
3FFC
781C
700E
E00E
E00E
E00E
E006
E00E
E00E
E00E
700E
781C
3FFC
1FF8
07E0
ENDCHAR
STARTCHAR char112
ENCODING 112
SWIDTH 22 0
DWIDTH 18 0
BBX 15 23 2 -6
BITMAP
C7C0
DFF0
D878
F038
E01C
E01C
E00E
C00E
C00E
C00E
E00E
E01C
E01C
F03C
FFF8
DFF0
C7C0
C000
C000
C000
C000
C000
C000
ENDCHAR
STARTCHAR char113
ENCODING 113
SWIDTH 22 0
DWIDTH 18 0
BBX 15 24 1 -7
BITMAP
0FCE
1FFE
3FFE
783E
701E
E00E
E00E
E00E
E00E
E00E
E00E
E00E
F01E
783E
3EFE
3FEE
0FCE
000E
000E
000E
000E
000E
000E
0002
ENDCHAR
STARTCHAR char114
ENCODING 114
SWIDTH 2 0
DWIDTH 11 0
BBX 8 17 2 0
BITMAP
E7
EF
FE
F0
F0
E0
E0
E0
E0
E0
E0
E0
E0
E0
E0
E0
E0
ENDCHAR
STARTCHAR char115
ENCODING 115
SWIDTH 16 0
DWIDTH 16 0
BBX 14 17 1 0
BITMAP
0FC0
3FF0
7FF0
7038
6038
E000
7000
7F00
1FE0
03F8
0038
001C
E01C
F038
7DF8
3FF0
1FC0
ENDCHAR
STARTCHAR char116
ENCODING 116
SWIDTH 25 0
DWIDTH 9 0
BBX 8 22 0 0
BITMAP
18
18
18
18
18
FF
FF
18
18
18
18
18
18
18
18
18
18
18
18
1C
1F
0F
ENDCHAR
STARTCHAR char117
ENCODING 117
SWIDTH 22 0
DWIDTH 18 0
BBX 13 17 2 0
BITMAP
E018
E018
E018
E018
E018
E018
E018
E018
E018
E018
E018
E038
E038
E078
79F8
7FD8
1F18
ENDCHAR
STARTCHAR char118
ENCODING 118
SWIDTH 16 0
DWIDTH 16 0
BBX 15 17 0 0
BITMAP
E00E
700E
700E
301C
381C
3818
1838
1C38
1C30
0C70
0E70
0E60
06E0
07C0
07C0
03C0
0380
ENDCHAR
STARTCHAR char119
ENCODING 119
SWIDTH 7 0
DWIDTH 23 0
BBX 22 17 0 0
BITMAP
E0380C
70781C
707C1C
707C1C
707C18
38EC38
38EE38
38CE30
18CE30
1DC670
1DC770
1D8760
0D83E0
0F83E0
0F83C0
0703C0
0701C0
ENDCHAR
STARTCHAR char120
ENCODING 120
SWIDTH 16 0
DWIDTH 16 0
BBX 14 17 1 0
BITMAP
E01C
7038
3870
3870
1CE0
0DC0
0FC0
0780
0780
0780
0FC0
1DE0
1CE0
3870
7070
7038
E01C
ENDCHAR
STARTCHAR char121
ENCODING 121
SWIDTH 16 0
DWIDTH 16 0
BBX 14 24 1 -7
BITMAP
E01C
E01C
E018
7038
7038
7070
3870
3870
38E0
1CE0
1CC0
1DC0
0FC0
0F80
0F80
0780
0700
0700
0700
0E00
0E00
7C00
7C00
7800
ENDCHAR
STARTCHAR char122
ENCODING 122
SWIDTH 16 0
DWIDTH 16 0
BBX 14 17 1 0
BITMAP
7FF8
7FF8
0038
0070
00E0
01E0
01C0
0380
0700
0E00
1E00
1C00
3800
7000
E000
FFFC
FFFC
ENDCHAR
STARTCHAR char123
ENCODING 123
SWIDTH 2 0
DWIDTH 11 0
BBX 8 30 1 -7
BITMAP
0F
1F
1C
18
18
18
18
18
18
18
18
18
38
78
F0
F0
70
38
18
18
18
18
18
18
18
18
18
1C
1F
0F
ENDCHAR
STARTCHAR char124
ENCODING 124
SWIDTH 22 0
DWIDTH 8 0
BBX 2 30 3 -7
BITMAP
C0
C0
C0
C0
C0
C0
C0
C0
C0
C0
C0
C0
C0
C0
C0
C0
C0
C0
C0
C0
C0
C0
C0
C0
C0
C0
C0
C0
C0
C0
ENDCHAR
STARTCHAR char125
ENCODING 125
SWIDTH 2 0
DWIDTH 11 0
BBX 7 30 1 -7
BITMAP
E0
F0
38
38
38
38
38
38
38
38
38
18
18
1C
0E
0E
1C
18
18
38
38
38
38
38
38
38
38
38
F0
E0
ENDCHAR
STARTCHAR char126
ENCODING 126
SWIDTH 24 0
DWIDTH 19 0
BBX 14 5 2 9
BITMAP
3C00
7E04
678C
C1FC
0078
ENDCHAR
STARTCHAR char160
ENCODING 160
SWIDTH 25 0
DWIDTH 9 0
BBX 0 0 0 0
BITMAP
ENDCHAR
STARTCHAR char161
ENCODING 161
SWIDTH 25 0
DWIDTH 9 0
BBX 3 23 3 -6
BITMAP
E0
E0
E0
00
00
40
40
40
C0
C0
E0
E0
E0
E0
E0
E0
E0
E0
E0
E0
E0
E0
E0
ENDCHAR
STARTCHAR char162
ENCODING 162
SWIDTH 22 0
DWIDTH 18 0
BBX 14 24 2 -4
BITMAP
0100
0100
0100
0FE0
1FF0
3D78
713C
E11C
E11C
E100
E100
C100
C100
E100
E10C
E11C
F11C
713C
3FF8
1FF0
07C0
0100
0100
0100
ENDCHAR
STARTCHAR char163
ENCODING 163
SWIDTH 22 0
DWIDTH 18 0
BBX 16 23 1 0
BITMAP
07E0
1FF8
3FFC
381E
700E
700E
700E
7000
7000
7800
3800
FFE0
FFE0
0E00
0E00
0E00
0C00
1C00
3800
7FC2
FFFF
7FFF
007C
ENDCHAR
STARTCHAR char164
ENCODING 164
SWIDTH 22 0
DWIDTH 18 0
BBX 16 16 1 3
BITMAP
47E6
FFFF
7C3E
701E
600E
E006
E007
C007
C007
E007
E006
700E
781C
7E7E
FFF7
47E2
ENDCHAR
STARTCHAR char165
ENCODING 165
SWIDTH 22 0
DWIDTH 18 0
BBX 16 22 1 0
BITMAP
C007
E007
700E
700C
381C
1818
1C38
0E70
0E60
07E0
03C0
7FFE
7FFE
0180
0180
7FFE
7FFE
0180
0180
0180
0180
0180
ENDCHAR
STARTCHAR char166
ENCODING 166
SWIDTH 22 0
DWIDTH 8 0
BBX 2 30 3 -7
BITMAP
C0
C0
C0
C0
C0
C0
C0
C0
C0
C0
C0
C0
00
00
00
00
00
00
C0
C0
C0
C0
C0
C0
C0
C0
C0
C0
C0
C0
ENDCHAR
STARTCHAR char167
ENCODING 167
SWIDTH 22 0
DWIDTH 18 0
BBX 15 30 1 -7
BITMAP
03E0
0FF0
1FF8
1C38
381C
381C
3C1C
1E00
0F00
3FC0
71E0
60F8
E03C
E01E
F00E
7806
7C06
3E0E
0F8C
07FC
01F0
00F0
0078
0038
7038
3038
3838
3EF8
1FF0
07C0
ENDCHAR
STARTCHAR char168
ENCODING 168
SWIDTH 2 0
DWIDTH 11 0
BBX 8 3 1 19
BITMAP
E7
E7
E7
ENDCHAR
STARTCHAR char169
ENCODING 169
SWIDTH 10 0
DWIDTH 24 0
BBX 22 22 1 0
BITMAP
03FE00
070380
1C00C0
300060
207830
61FE18
438708
C70308
86018C
86000C
860004
860004
86018C
86018C
C30308
438718
61FE10
300030
180060
0C01C0
078F00
01FC00
ENDCHAR
STARTCHAR char170
ENCODING 170
SWIDTH 5 0
DWIDTH 12 0
BBX 10 14 1 9
BITMAP
3E00
7F00
6180
0180
0780
7D80
E180
C180
C380
7FC0
30C0
0000
FF80
FF80
ENDCHAR
STARTCHAR char171
ENCODING 171
SWIDTH 22 0
DWIDTH 18 0
BBX 12 11 3 3
BITMAP
0810
1830
3870
71E0
E180
C100
E180
71E0
38F0
1830
0810
ENDCHAR
STARTCHAR char172
ENCODING 172
SWIDTH 24 0
DWIDTH 19 0
BBX 15 7 2 5
BITMAP
FFFE
FFFE
000E
000E
000E
000E
000E
ENDCHAR
STARTCHAR char173
ENCODING 173
SWIDTH 2 0
DWIDTH 11 0
BBX 8 2 1 8
BITMAP
FF
FF
ENDCHAR
STARTCHAR char174
ENCODING 174
SWIDTH 10 0
DWIDTH 24 0
BBX 22 22 1 0
BITMAP
03FE00
070380
1C00C0
300060
27F030
67FE18
460708
C60308
86030C
86070C
87FE04
87FE04
86060C
86030C
C60308
460318
660310
300030
180060
0C01C0
078F00
01FC00
ENDCHAR
STARTCHAR char175
ENCODING 175
SWIDTH 2 0
DWIDTH 11 0
BBX 9 2 1 20
BITMAP
FF80
FF80
ENDCHAR
STARTCHAR char176
ENCODING 176
SWIDTH 8 0
DWIDTH 13 0
BBX 9 9 2 13
BITMAP
3E00
7700
C180
8180
8080
8180
C180
7700
3E00
ENDCHAR
STARTCHAR char177
ENCODING 177
SWIDTH 24 0
DWIDTH 19 0
BBX 15 17 2 0
BITMAP
0300
0300
0300
0300
0300
0300
FFFE
FFFE
0300
0300
0300
0300
0300
0000
0000
FFFE
FFFE
ENDCHAR
STARTCHAR char178
ENCODING 178
SWIDTH 2 0
DWIDTH 11 0
BBX 9 12 1 10
BITMAP
3E00
7F00
C300
C180
0300
0700
1E00
3800
6000
C000
FF00
FF00
ENDCHAR
STARTCHAR char179
ENCODING 179
SWIDTH 2 0
DWIDTH 11 0
BBX 9 12 1 10
BITMAP
3E00
7F00
4300
C100
0300
1E00
0700
0180
C180
C100
7700
3E00
ENDCHAR
STARTCHAR char180
ENCODING 180
SWIDTH 2 0
DWIDTH 11 0
BBX 6 5 5 18
BITMAP
3C
78
70
E0
C0
ENDCHAR
STARTCHAR char181
ENCODING 181
SWIDTH 22 0
DWIDTH 18 0
BBX 15 23 2 -6
BITMAP
E018
E018
E018
E018
E018
E018
E018
E018
E018
E018
E018
E038
E038
E078
F9FC
FFDE
FF0E
E002
E000
E000
E000
E000
E000
ENDCHAR
STARTCHAR char182
ENCODING 182
SWIDTH 19 0
DWIDTH 17 0
BBX 15 29 2 -6
BITMAP
0FFE
3FFE
7F18
7F18
FF18
FF18
FF18
FF18
FF18
FF18
FF18
FF18
7F18
3F18
0F18
0318
0318
0318
0318
0318
0318
0318
0318
0318
0318
0318
0318
0318
0318
ENDCHAR
STARTCHAR char183
ENCODING 183
SWIDTH 25 0
DWIDTH 9 0
BBX 3 3 3 6
BITMAP
E0
E0
E0
ENDCHAR
STARTCHAR char184
ENCODING 184
SWIDTH 2 0
DWIDTH 11 0
BBX 7 7 2 -7
BITMAP
10
30
3E
0E
06
8E
FC
ENDCHAR
STARTCHAR char185
ENCODING 185
SWIDTH 2 0
DWIDTH 11 0
BBX 5 12 2 10
BITMAP
18
18
F8
18
18
18
18
18
18
18
18
18
ENDCHAR
STARTCHAR char186
ENCODING 186
SWIDTH 5 0
DWIDTH 12 0
BBX 9 14 1 9
BITMAP
1E00
7F00
6180
C180
C180
C180
C180
6180
6380
3F00
0C00
0000
7F80
7F80
ENDCHAR
STARTCHAR char187
ENCODING 187
SWIDTH 22 0
DWIDTH 18 0
BBX 11 11 3 3
BITMAP
8200
C300
E3C0
71E0
3860
0820
3860
71E0
E3C0
C300
8200
ENDCHAR
STARTCHAR char188
ENCODING 188
SWIDTH 18 0
DWIDTH 27 0
BBX 22 23 3 -1
BITMAP
100040
3000C0
F00180
300180
300300
300600
300600
300C00
300800
301800
303030
303070
006070
00C0F0
00C1B0
018330
010230
030630
0607FC
0607FC
0C0030
180030
180000
ENDCHAR
STARTCHAR char189
ENCODING 189
SWIDTH 18 0
DWIDTH 27 0
BBX 21 23 3 -1
BITMAP
100180
300100
F00300
300600
300600
300C00
301800
301800
303000
302000
306000
30C3F0
00C718
018608
030608
030018
060070
0401C0
0C0300
180600
1007F8
3007F8
600000
ENDCHAR
STARTCHAR char190
ENCODING 190
SWIDTH 18 0
DWIDTH 27 0
BBX 22 23 2 -1
BITMAP
3E0030
7F0020
C30060
C300C0
0300C0
1E0180
070300
018300
C18600
C10400
770C10
3E1830
001870
003050
0060D0
006190
00C310
008210
0187FC
0307FC
030010
060010
0C0000
ENDCHAR
STARTCHAR char191
ENCODING 191
SWIDTH 22 0
DWIDTH 18 0
BBX 14 24 2 -7
BITMAP
0700
0700
0700
0000
0000
0000
0700
0700
0700
0700
0F00
1E00
3C00
7800
7000
E000
E01C
E018
E018
E038
F038
7FF0
3FE0
0FC0
ENDCHAR
STARTCHAR char192
ENCODING 192
SWIDTH 2 0
DWIDTH 21 0
BBX 20 29 1 0
BITMAP
0F0000
078000
03C000
00C000
000000
000000
00F000
01F000
01F800
01F800
03B800
039C00
079C00
071C00
070E00
0E0E00
0E0E00
0E0700
1C0700
1C0780
1FFF80
3FFF80
3803C0
3801C0
7001C0
7001E0
F000E0
E000E0
E000F0
ENDCHAR
STARTCHAR char193
ENCODING 193
SWIDTH 2 0
DWIDTH 21 0
BBX 20 29 1 0
BITMAP
000F00
001E00
003800
007000
000000
000000
00F000
01F000
01F800
01F800
03B800
039C00
079C00
071C00
070E00
0E0E00
0E0E00
0E0700
1C0700
1C0780
1FFF80
3FFF80
3803C0
3801C0
7001C0
7001E0
F000E0
E000E0
E000F0
ENDCHAR
STARTCHAR char194
ENCODING 194
SWIDTH 2 0
DWIDTH 21 0
BBX 20 29 1 0
BITMAP
01F000
01F800
039C00
060E00
000000
000000
00F000
01F000
01F800
01F800
03B800
039C00
079C00
071C00
070E00
0E0E00
0E0E00
0E0700
1C0700
1C0780
1FFF80
3FFF80
3803C0
3801C0
7001C0
7001E0
F000E0
E000E0
E000F0
ENDCHAR
STARTCHAR char195
ENCODING 195
SWIDTH 2 0
DWIDTH 21 0
BBX 20 28 1 0
BITMAP
03CC00
07FC00
063800
000000
000000
00F000
01F000
01F800
01F800
03B800
039C00
079C00
071C00
070E00
0E0E00
0E0E00
0E0700
1C0700
1C0780
1FFF80
3FFF80
3803C0
3801C0
7001C0
7001E0
F000E0
E000E0
E000F0
ENDCHAR
STARTCHAR char196
ENCODING 196
SWIDTH 2 0
DWIDTH 21 0
BBX 20 28 1 0
BITMAP
039C00
039C00
039C00
000000
000000
00F000
01F000
01F800
01F800
03B800
039C00
079C00
071C00
070E00
0E0E00
0E0E00
0E0700
1C0700
1C0780
1FFF80
3FFF80
3803C0
3801C0
7001C0
7001E0
F000E0
E000E0
E000F0
ENDCHAR
STARTCHAR char197
ENCODING 197
SWIDTH 2 0
DWIDTH 21 0
BBX 20 31 1 0
BITMAP
006000
01F000
019800
011800
019800
00F000
000000
000000
00F000
01F000
01F800
01F800
03B800
039C00
079C00
071C00
070E00
0E0E00
0E0E00
0E0700
1C0700
1C0780
1FFF80
3FFF80
3803C0
3801C0
7001C0
7001E0
F000E0
E000E0
E000F0
ENDCHAR
STARTCHAR char198
ENCODING 198
SWIDTH 4 0
DWIDTH 32 0
BBX 29 23 1 0
BITMAP
007FFFF8
00FFFFF8
00FFFFF8
01C38000
01C38000
01C38000
03838000
03838000
07038000
07038000
0703FFF0
0E03FFF0
0E03FFF0
1FFF8000
1FFF8000
3FFF8000
38038000
38038000
70038000
70038000
F003FFF8
E003FFF8
E003FFF8
ENDCHAR
STARTCHAR char199
ENCODING 199
SWIDTH 7 0
DWIDTH 23 0
BBX 20 30 2 -7
BITMAP
01FC00
0FFF00
1FFF80
3C03C0
7801C0
7001E0
F000E0
E00000
E00000
E00000
E00000
E00000
E00000
E00000
E00070
E000E0
E000E0
7000E0
7801C0
3C03C0
1FFF80
0FFF00
01FC00
006000
007800
007800
001C00
001C00
033800
01F000
ENDCHAR
STARTCHAR char200
ENCODING 200
SWIDTH 2 0
DWIDTH 21 0
BBX 17 29 3 0
BITMAP
3C0000
1E0000
070000
038000
000000
000000
FFFF00
FFFF00
FFFF00
E00000
E00000
E00000
E00000
E00000
E00000
E00000
FFFF00
FFFF00
FFFF00
E00000
E00000
E00000
E00000
E00000
E00000
E00000
FFFF80
FFFF80
FFFF80
ENDCHAR
STARTCHAR char201
ENCODING 201
SWIDTH 2 0
DWIDTH 21 0
BBX 17 29 3 0
BITMAP
003C00
007800
00F000
01C000
000000
000000
FFFF00
FFFF00
FFFF00
E00000
E00000
E00000
E00000
E00000
E00000
E00000
FFFF00
FFFF00
FFFF00
E00000
E00000
E00000
E00000
E00000
E00000
E00000
FFFF80
FFFF80
FFFF80
ENDCHAR
STARTCHAR char202
ENCODING 202
SWIDTH 2 0
DWIDTH 21 0
BBX 17 29 3 0
BITMAP
03C000
07E000
0E7000
1C3800
000000
000000
FFFF00
FFFF00
FFFF00
E00000
E00000
E00000
E00000
E00000
E00000
E00000
FFFF00
FFFF00
FFFF00
E00000
E00000
E00000
E00000
E00000
E00000
E00000
FFFF80
FFFF80
FFFF80
ENDCHAR
STARTCHAR char203
ENCODING 203
SWIDTH 2 0
DWIDTH 21 0
BBX 17 28 3 0
BITMAP
0E7000
0E7000
0E7000
000000
000000
FFFF00
FFFF00
FFFF00
E00000
E00000
E00000
E00000
E00000
E00000
E00000
FFFF00
FFFF00
FFFF00
E00000
E00000
E00000
E00000
E00000
E00000
E00000
FFFF80
FFFF80
FFFF80
ENDCHAR
STARTCHAR char204
ENCODING 204
SWIDTH 25 0
DWIDTH 9 0
BBX 7 29 -1 0
BITMAP
F0
78
1C
0E
00
00
0E
0E
0E
0E
0E
0E
0E
0E
0E
0E
0E
0E
0E
0E
0E
0E
0E
0E
0E
0E
0E
0E
0E
ENDCHAR
STARTCHAR char205
ENCODING 205
SWIDTH 25 0
DWIDTH 9 0
BBX 8 29 3 0
BITMAP
1F
1C
38
70
00
00
E0
E0
E0
E0
E0
E0
E0
E0
E0
E0
E0
E0
E0
E0
E0
E0
E0
E0
E0
E0
E0
E0
E0
ENDCHAR
STARTCHAR char206
ENCODING 206
SWIDTH 25 0
DWIDTH 9 0
BBX 10 29 0 0
BITMAP
3E00
7F00
6380
C1C0
0000
0000
1C00
1C00
1C00
1C00
1C00
1C00
1C00
1C00
1C00
1C00
1C00
1C00
1C00
1C00
1C00
1C00
1C00
1C00
1C00
1C00
1C00
1C00
1C00
ENDCHAR
STARTCHAR char207
ENCODING 207
SWIDTH 25 0
DWIDTH 9 0
BBX 8 28 1 0
BITMAP
E7
E7
E7
00
00
38
38
38
38
38
38
38
38
38
38
38
38
38
38
38
38
38
38
38
38
38
38
38
ENDCHAR
STARTCHAR char208
ENCODING 208
SWIDTH 7 0
DWIDTH 23 0
BBX 20 23 1 0
BITMAP
3FFC00
3FFF00
3FFF80
3803C0
3801E0
3800E0
380070
380070
380070
380070
FFC070
FFC070
380070
380070
380070
380070
3800F0
3800E0
3801E0
3803C0
3FFF80
3FFF00
3FFC00
ENDCHAR
STARTCHAR char209
ENCODING 209
SWIDTH 7 0
DWIDTH 23 0
BBX 19 28 2 0
BITMAP
07CC00
07FC00
0C3800
000000
000000
F000E0
F800E0
F800E0
FC00E0
FE00E0
EE00E0
E700E0
E780E0
E380E0
E1C0E0
E1C0E0
E0E0E0
E0F0E0
E070E0
E038E0
E03CE0
E01CE0
E00EE0
E00FE0
E007E0
E003E0
E003E0
E001E0
ENDCHAR
STARTCHAR char210
ENCODING 210
SWIDTH 13 0
DWIDTH 25 0
BBX 23 28 1 0
BITMAP
078000
01C000
00E000
003000
000000
00FE00
03FF80
0FFFE0
1F01F0
3C0078
380038
70003C
70001C
70001C
E0000E
E0000E
E0000E
E0000E
E0000E
F0001C
70001C
70001C
380038
3C0078
1E01F0
0FFFE0
07FFC0
00FE00
ENDCHAR
STARTCHAR char211
ENCODING 211
SWIDTH 13 0
DWIDTH 25 0
BBX 23 28 1 0
BITMAP
0007C0
000F00
000E00
001800
000000
00FE00
03FF80
0FFFE0
1F01F0
3C0078
380038
70003C
70001C
70001C
E0000E
E0000E
E0000E
E0000E
E0000E
F0001C
70001C
70001C
380038
3C0078
1E01F0
0FFFE0
07FFC0
00FE00
ENDCHAR
STARTCHAR char212
ENCODING 212
SWIDTH 13 0
DWIDTH 25 0
BBX 23 28 1 0
BITMAP
007C00
00FE00
01C700
038300
000000
00FE00
03FF80
0FFFE0
1F01F0
3C0078
380038
70003C
70001C
70001C
E0000E
E0000E
E0000E
E0000E
E0000E
F0001C
70001C
70001C
380038
3C0078
1E01F0
0FFFE0
07FFC0
00FE00
ENDCHAR
STARTCHAR char213
ENCODING 213
SWIDTH 13 0
DWIDTH 25 0
BBX 23 28 1 0
BITMAP
00E300
01FF00
039E00
000000
000000
00FE00
03FF80
0FFFE0
1F01F0
3C0078
380038
70003C
70001C
70001C
E0000E
E0000E
E0000E
E0000E
E0000E
F0001C
70001C
70001C
380038
3C0078
1E01F0
0FFFE0
07FFC0
00FE00
ENDCHAR
STARTCHAR char214
ENCODING 214
SWIDTH 13 0
DWIDTH 25 0
BBX 23 28 1 0
BITMAP
01C700
01C700
01C700
000000
000000
00FE00
03FF80
0FFFE0
1F01F0
3C0078
380038
70003C
70001C
70001C
E0000E
E0000E
E0000E
E0000E
E0000E
F0001C
70001C
70001C
380038
3C0078
1E01F0
0FFFE0
07FFC0
00FE00
ENDCHAR
STARTCHAR char215
ENCODING 215
SWIDTH 24 0
DWIDTH 19 0
BBX 11 12 4 2
BITMAP
4040
E0E0
E1C0
7380
3F00
1E00
1E00
3F00
7380
E1C0
E0E0
4040
ENDCHAR
STARTCHAR char216
ENCODING 216
SWIDTH 13 0
DWIDTH 25 0
BBX 23 23 1 0
BITMAP
00FE04
03FF8E
0FFFFC
1F01F8
3C0078
3800F8
7001FC
70039C
70071C
E00E0E
E01C0E
E0380E
E0700E
E0E00E
F1C01C
73801C
77001C
3E0038
3C0078
3E01F0
7FFFE0
E7FFC0
40FE00
ENDCHAR
STARTCHAR char217
ENCODING 217
SWIDTH 7 0
DWIDTH 23 0
BBX 18 29 3 0
BITMAP
3C0000
0E0000
070000
018000
000000
000000
E001C0
E001C0
E001C0
E001C0
E001C0
E001C0
E001C0
E001C0
E001C0
E001C0
E001C0
E001C0
E001C0
E001C0
E001C0
E001C0
E001C0
E00380
F00380
780F00
3FFF00
1FFC00
07F000
ENDCHAR
STARTCHAR char218
ENCODING 218
SWIDTH 7 0
DWIDTH 23 0
BBX 18 29 3 0
BITMAP
001E00
003800
007000
00E000
000000
000000
E001C0
E001C0
E001C0
E001C0
E001C0
E001C0
E001C0
E001C0
E001C0
E001C0
E001C0
E001C0
E001C0
E001C0
E001C0
E001C0
E001C0
E00380
F00380
780F00
3FFF00
1FFC00
07F000
ENDCHAR
STARTCHAR char219
ENCODING 219
SWIDTH 7 0
DWIDTH 23 0
BBX 18 29 3 0
BITMAP
03E000
07F000
0E3800
1C1C00
000000
000000
E001C0
E001C0
E001C0
E001C0
E001C0
E001C0
E001C0
E001C0
E001C0
E001C0
E001C0
E001C0
E001C0
E001C0
E001C0
E001C0
E001C0
E00380
F00380
780F00
3FFF00
1FFC00
07F000
ENDCHAR
STARTCHAR char220
ENCODING 220
SWIDTH 7 0
DWIDTH 23 0
BBX 18 28 3 0
BITMAP
063800
063800
063800
000000
000000
E001C0
E001C0
E001C0
E001C0
E001C0
E001C0
E001C0
E001C0
E001C0
E001C0
E001C0
E001C0
E001C0
E001C0
E001C0
E001C0
E001C0
E00380
F00380
780F00
3FFF00
1FFC00
07F000
ENDCHAR
STARTCHAR char221
ENCODING 221
SWIDTH 2 0
DWIDTH 21 0
BBX 20 29 1 0
BITMAP
000F00
001E00
003800
007000
000000
000000
E000F0
F000E0
7801E0
3801C0
3C0380
1C0780
0E0700
0F0E00
070E00
039C00
03FC00
01F800
01F000
00F000
00E000
00E000
00E000
00E000
00E000
00E000
00E000
00E000
00E000
ENDCHAR
STARTCHAR char222
ENCODING 222
SWIDTH 2 0
DWIDTH 21 0
BBX 17 23 3 0
BITMAP
E00000
E00000
E00000
E00000
FFF800
FFFC00
FFFE00
E00F00
E00700
E00780
E00780
E00780
E00700
E00F00
FFFE00
FFFE00
FFF800
E00000
E00000
E00000
E00000
E00000
E00000
ENDCHAR
STARTCHAR char223
ENCODING 223
SWIDTH 27 0
DWIDTH 20 0
BBX 16 23 2 0
BITMAP
0FC0
1FF0
7FFC
701C
E00E
E00E
E00E
E01C
E03C
E1F8
E1F8
E1FC
E00E
E007
E007
E007
E007
E007
E00F
E01E
E3FE
E3FC
E3F0
ENDCHAR
STARTCHAR char224
ENCODING 224
SWIDTH 22 0
DWIDTH 18 0
BBX 16 23 1 0
BITMAP
1C00
0E00
0600
0300
0180
0000
0FE0
1FF8
3EFC
781C
701C
001C
001C
03FC
1FFC
7E1C
701C
E01C
E01C
E03C
78FE
3FCF
1F07
ENDCHAR
STARTCHAR char225
ENCODING 225
SWIDTH 22 0
DWIDTH 18 0
BBX 16 23 1 0
BITMAP
0038
0070
00E0
00C0
0180
0000
0FE0
1FF8
3EFC
781C
701C
001C
001C
03FC
1FFC
7E1C
701C
E01C
E01C
E03C
78FE
3FCF
1F07
ENDCHAR
STARTCHAR char226
ENCODING 226
SWIDTH 22 0
DWIDTH 18 0
BBX 16 23 1 0
BITMAP
03C0
07C0
06E0
0C60
1C30
0000
0FE0
1FF8
3EFC
781C
701C
001C
001C
03FC
1FFC
7E1C
701C
E01C
E01C
E03C
78FE
3FCF
1F07
ENDCHAR
STARTCHAR char227
ENCODING 227
SWIDTH 22 0
DWIDTH 18 0
BBX 16 22 1 0
BITMAP
0F18
1FF0
19F0
0000
0000
0FE0
1FF8
3EFC
781C
701C
001C
001C
03FC
1FFC
7E1C
701C
E01C
E01C
E03C
78FE
3FCF
1F07
ENDCHAR
STARTCHAR char228
ENCODING 228
SWIDTH 22 0
DWIDTH 18 0
BBX 16 22 1 0
BITMAP
0E70
0E70
0E70
0000
0000
0FE0
1FF8
3EFC
781C
701C
001C
001C
03FC
1FFC
7E1C
701C
E01C
E01C
E03C
78FE
3FCF
1F07
ENDCHAR
STARTCHAR char229
ENCODING 229
SWIDTH 22 0
DWIDTH 18 0
BBX 16 24 1 0
BITMAP
0380
07C0
0460
0460
0660
03C0
0000
0FE0
1FF8
3EFC
781C
701C
001C
001C
03FC
1FFC
7E1C
701C
E01C
E01C
E03C
78FE
3FCF
1F07
ENDCHAR
STARTCHAR char230
ENCODING 230
SWIDTH 21 0
DWIDTH 28 0
BBX 26 17 1 0
BITMAP
0FC0F800
3FF3FE00
3EFFDF00
701E0380
701E0380
001C01C0
001C01C0
07FFFFC0
3FFFFFC0
7C1C0000
F01C0000
E01C0000
E01E0380
E03E0380
79E7DF00
7FC3FE00
1F00F800
ENDCHAR
STARTCHAR char231
ENCODING 231
SWIDTH 16 0
DWIDTH 16 0
BBX 14 24 1 -7
BITMAP
07C0
1FF0
3EF8
7838
701C
E01C
E000
E000
E000
E000
E000
E01C
701C
703C
3EF8
1FF0
07C0
0300
03C0
03E0
0060
0060
1DE0
0F80
ENDCHAR
STARTCHAR char232
ENCODING 232
SWIDTH 22 0
DWIDTH 18 0
BBX 15 23 1 0
BITMAP
1C00
0E00
0600
0300
0180
0000
07E0
1FF8
3FFC
781C
700E
600E
E006
FFFE
FFFE
E000
E000
6000
700E
781C
3FFC
1FF8
07E0
ENDCHAR
STARTCHAR char233
ENCODING 233
SWIDTH 22 0
DWIDTH 18 0
BBX 15 23 1 0
BITMAP
0038
0070
00E0
00C0
0180
0000
07E0
1FF8
3FFC
781C
700E
600E
E006
FFFE
FFFE
E000
E000
6000
700E
781C
3FFC
1FF8
07E0
ENDCHAR
STARTCHAR char234
ENCODING 234
SWIDTH 22 0
DWIDTH 18 0
BBX 15 23 1 0
BITMAP
03C0
07C0
06E0
0E70
0C30
0000
07E0
1FF8
3FFC
781C
700E
600E
E006
FFFE
FFFE
E000
E000
6000
700E
781C
3FFC
1FF8
07E0
ENDCHAR
STARTCHAR char235
ENCODING 235
SWIDTH 22 0
DWIDTH 18 0
BBX 15 22 1 0
BITMAP
0E70
0E70
0E70
0000
0000
07E0
1FF8
3FFC
781C
700E
600E
E006
FFFE
FFFE
E000
E000
6000
700E
781C
3FFC
1FF8
07E0
ENDCHAR
STARTCHAR char236
ENCODING 236
SWIDTH 25 0
DWIDTH 9 0
BBX 6 23 0 0
BITMAP
E0
70
30
18
0C
00
1C
1C
1C
1C
1C
1C
1C
1C
1C
1C
1C
1C
1C
1C
1C
1C
1C
ENDCHAR
STARTCHAR char237
ENCODING 237
SWIDTH 25 0
DWIDTH 9 0
BBX 6 23 3 0
BITMAP
1C
38
30
60
C0
00
E0
E0
E0
E0
E0
E0
E0
E0
E0
E0
E0
E0
E0
E0
E0
E0
E0
ENDCHAR
STARTCHAR char238
ENCODING 238
SWIDTH 25 0
DWIDTH 9 0
BBX 9 23 0 0
BITMAP
1C00
3E00
6700
C180
0000
0000
1C00
1C00
1C00
1C00
1C00
1C00
1C00
1C00
1C00
1C00
1C00
1C00
1C00
1C00
1C00
1C00
1C00
ENDCHAR
STARTCHAR char239
ENCODING 239
SWIDTH 25 0
DWIDTH 9 0
BBX 9 22 0 0
BITMAP
E380
E380
E380
0000
0000
1C00
1C00
1C00
1C00
1C00
1C00
1C00
1C00
1C00
1C00
1C00
1C00
1C00
1C00
1C00
1C00
1C00
ENDCHAR
STARTCHAR char240
ENCODING 240
SWIDTH 22 0
DWIDTH 18 0
BBX 15 23 1 0
BITMAP
1000
3CE0
0F80
1F80
31C0
00F0
0FF0
1FF8
3EFC
781C
700E
E00E
E00E
E00E
E006
E00E
E00E
E00E
700E
781C
3FFC
1FF8
07E0
ENDCHAR
STARTCHAR char241
ENCODING 241
SWIDTH 22 0
DWIDTH 18 0
BBX 14 22 2 0
BITMAP
1E30
3FE0
33E0
0000
0000
E3E0
EFF0
F838
F038
F01C
E01C
E01C
E01C
E01C
E01C
E01C
E01C
E01C
E01C
E01C
E01C
E01C
ENDCHAR
STARTCHAR char242
ENCODING 242
SWIDTH 22 0
DWIDTH 18 0
BBX 15 23 1 0
BITMAP
1C00
0E00
0600
0300
0180
0000
07E0
1FF8
3FFC
781C
700E
E00E
E00E
E00E
E006
E00E
E00E
E00E
700E
781C
3FFC
1FF8
07E0
ENDCHAR
STARTCHAR char243
ENCODING 243
SWIDTH 22 0
DWIDTH 18 0
BBX 15 23 1 0
BITMAP
0038
0070
00E0
00C0
0180
0000
07E0
1FF8
3FFC
781C
700E
E00E
E00E
E00E
E006
E00E
E00E
E00E
700E
781C
3FFC
1FF8
07E0
ENDCHAR
STARTCHAR char244
ENCODING 244
SWIDTH 22 0
DWIDTH 18 0
BBX 15 23 1 0
BITMAP
03C0
07C0
06E0
0E70
0C30
0000
07E0
1FF8
3FFC
781C
700E
E00E
E00E
E00E
E006
E00E
E00E
E00E
700E
781C
3FFC
1FF8
07E0
ENDCHAR
STARTCHAR char245
ENCODING 245
SWIDTH 22 0
DWIDTH 18 0
BBX 15 22 1 0
BITMAP
0F18
1FF0
19F0
0000
0000
07E0
1FF8
3FFC
781C
700E
E00E
E00E
E00E
E006
E00E
E00E
E00E
700E
781C
3FFC
1FF8
07E0
ENDCHAR
STARTCHAR char246
ENCODING 246
SWIDTH 22 0
DWIDTH 18 0
BBX 15 22 1 0
BITMAP
0E70
0E70
0E70
0000
0000
07E0
1FF8
3FFC
781C
700E
E00E
E00E
E00E
E006
E00E
E00E
E00E
700E
781C
3FFC
1FF8
07E0
ENDCHAR
STARTCHAR char247
ENCODING 247
SWIDTH 24 0
DWIDTH 19 0
BBX 15 14 2 1
BITMAP
0380
0380
0380
0000
0000
0000
FFFE
FFFE
0000
0000
0000
0380
0380
0380
ENDCHAR
STARTCHAR char248
ENCODING 248
SWIDTH 22 0
DWIDTH 18 0
BBX 15 17 1 0
BITMAP
07E0
1FF6
3FFC
781C
703E
E06E
E0EE
E0CE
E186
E30E
E60E
EC0E
780E
781C
7EFC
FFF8
47E0
ENDCHAR
STARTCHAR char249
ENCODING 249
SWIDTH 22 0
DWIDTH 18 0
BBX 13 23 2 0
BITMAP
3800
1C00
0C00
0600
0300
0000
E018
E018
E018
E018
E018
E018
E018
E018
E018
E018
E018
E038
E038
E078
79F8
7FD8
1F18
ENDCHAR
STARTCHAR char250
ENCODING 250
SWIDTH 22 0
DWIDTH 18 0
BBX 13 23 2 0
BITMAP
0070
00E0
01C0
0180
0300
0000
E018
E018
E018
E018
E018
E018
E018
E018
E018
E018
E018
E038
E038
E078
79F8
7FD8
1F18
ENDCHAR
STARTCHAR char251
ENCODING 251
SWIDTH 22 0
DWIDTH 18 0
BBX 13 23 2 0
BITMAP
0780
0FC0
1CC0
1860
0000
0000
E018
E018
E018
E018
E018
E018
E018
E018
E018
E018
E018
E038
E038
E078
79F8
7FD8
1F18
ENDCHAR
STARTCHAR char252
ENCODING 252
SWIDTH 22 0
DWIDTH 18 0
BBX 13 22 2 0
BITMAP
1CE0
1CE0
1CE0
0000
0000
E018
E018
E018
E018
E018
E018
E018
E018
E018
E018
E018
E038
E038
E078
79F8
7FD8
1F18
ENDCHAR
STARTCHAR char253
ENCODING 253
SWIDTH 16 0
DWIDTH 16 0
BBX 14 30 1 -7
BITMAP
0070
00E0
01C0
0180
0300
0000
E01C
E01C
E018
7038
7038
7070
3870
3870
38E0
1CE0
1CC0
1DC0
0FC0
0F80
0F80
0780
0700
0700
0700
0E00
0E00
7C00
7C00
7800
ENDCHAR
STARTCHAR char254
ENCODING 254
SWIDTH 22 0
DWIDTH 18 0
BBX 15 29 2 -6
BITMAP
C000
C000
C000
C000
C000
C000
C7C0
DFF0
FFF8
F038
E01C
E01C
E00C
C00E
C00E
E00E
E00E
E01C
E01C
F03C
FFF8
DFF0
C7C0
C000
C000
C000
C000
C000
C000
ENDCHAR
STARTCHAR char255
ENCODING 255
SWIDTH 16 0
DWIDTH 16 0
BBX 14 29 1 -7
BITMAP
1CE0
1CE0
1CE0
0000
0000
E01C
E01C
E018
7038
7038
7070
3870
3870
38E0
1CE0
1CC0
1DC0
0FC0
0F80
0F80
0780
0700
0700
0700
0E00
0E00
7C00
7C00
7800
ENDCHAR
STARTCHAR char256
ENCODING 256
SWIDTH 2 0
DWIDTH 21 0
BBX 20 28 1 0
BITMAP
07FC00
07FC00
000000
000000
000000
00F000
01F000
01F800
01F800
03B800
039C00
079C00
071C00
070E00
0E0E00
0E0E00
0E0700
1C0700
1C0780
1FFF80
3FFF80
3803C0
3801C0
7001C0
7001E0
F000E0
E000E0
E000F0
ENDCHAR
STARTCHAR char257
ENCODING 257
SWIDTH 22 0
DWIDTH 18 0
BBX 16 22 1 0
BITMAP
1FF0
1FF0
0000
0000
0000
0FE0
1FF8
3EFC
781C
701C
001C
001C
03FC
1FFC
7E1C
701C
E01C
E01C
E03C
78FE
3FCF
1F07
ENDCHAR
STARTCHAR char258
ENCODING 258
SWIDTH 2 0
DWIDTH 21 0
BBX 20 29 1 0
BITMAP
0C0600
0F1E00
07FC00
01F800
000000
000000
00F000
01F000
01F800
01F800
03B800
039C00
079C00
071C00
070E00
0E0E00
0E0E00
0E0700
1C0700
1C0780
1FFF80
3FFF80
3803C0
3801C0
7001C0
7001E0
F000E0
E000E0
E000F0
ENDCHAR
STARTCHAR char259
ENCODING 259
SWIDTH 22 0
DWIDTH 18 0
BBX 16 23 1 0
BITMAP
1818
1C70
0FF0
07C0
0000
0000
0FE0
1FF8
3EFC
781C
701C
001C
001C
03FC
1FFC
7E1C
701C
E01C
E01C
E03C
78FE
3FCF
1F07
ENDCHAR
STARTCHAR char260
ENCODING 260
SWIDTH 2 0
DWIDTH 21 0
BBX 20 31 1 -8
BITMAP
00F000
01F000
01F800
01F800
03B800
039C00
079C00
071C00
070E00
0E0E00
0E0E00
0E0700
1C0700
1C0780
1FFF80
3FFF80
3803C0
3801C0
7001C0
7001E0
F000E0
E000E0
E000F0
0000C0
000180
000180
000380
000380
0001F0
0001F0
000030
ENDCHAR
STARTCHAR char261
ENCODING 261
SWIDTH 22 0
DWIDTH 18 0
BBX 16 24 1 -7
BITMAP
0FE0
1FF8
3EFC
781C
701C
001C
001C
03FC
1FFC
7C1C
701C
E01C
E01C
E03C
78FE
3FCF
1F07
000C
0018
0018
0018
001C
001F
000F
ENDCHAR
STARTCHAR char262
ENCODING 262
SWIDTH 7 0
DWIDTH 23 0
BBX 20 28 2 0
BITMAP
000F00
001C00
003800
007000
000000
01FC00
0FFF00
1FFF80
3C03C0
7801C0
7001E0
F000E0
E00000
E00000
E00000
E00000
E00000
E00000
E00000
E00070
E000E0
E000E0
7000E0
7801C0
3C03C0
1FFF80
0FFF00
03FC00
ENDCHAR
STARTCHAR char263
ENCODING 263
SWIDTH 16 0
DWIDTH 16 0
BBX 14 23 1 0
BITMAP
0078
0070
00E0
01C0
0180
0000
07C0
1FF0
3EF8
7838
701C
E01C
E000
E000
E000
E000
E000
E01C
701C
703C
3EF8
1FF0
0FC0
ENDCHAR
STARTCHAR char264
ENCODING 264
SWIDTH 7 0
DWIDTH 23 0
BBX 20 28 2 0
BITMAP
00F000
01F800
039C00
060E00
000000
01FC00
0FFF00
1FFF80
3C03C0
7801C0
7001E0
F000E0
E00000
E00000
E00000
E00000
E00000
E00000
E00000
E00070
E000E0
E000E0
7000E0
7801C0
3C03C0
1FFF80
0FFF00
03FC00
ENDCHAR
STARTCHAR char265
ENCODING 265
SWIDTH 16 0
DWIDTH 16 0
BBX 14 23 1 0
BITMAP
0380
07C0
0EC0
0C60
1830
0000
07C0
1FF0
3EF8
7838
701C
E01C
E000
E000
E000
E000
E000
E01C
701C
703C
3EF8
1FF0
0FC0
ENDCHAR
STARTCHAR char266
ENCODING 266
SWIDTH 7 0
DWIDTH 23 0
BBX 20 28 2 0
BITMAP
00F000
00F000
00F000
000000
000000
01FC00
0FFF00
1FFF80
3C03C0
7801C0
7001E0
F000E0
E00000
E00000
E00000
E00000
E00000
E00000
E00000
E00070
E000E0
E000E0
7000E0
7801C0
3C03C0
1FFF80
0FFF00
03FC00
ENDCHAR
STARTCHAR char267
ENCODING 267
SWIDTH 16 0
DWIDTH 16 0
BBX 14 22 1 0
BITMAP
0380
0380
0380
0000
0000
07C0
1FF0
3EF8
7838
701C
E01C
E000
E000
E000
E000
E000
E01C
701C
703C
3EF8
1FF0
0FC0
ENDCHAR
STARTCHAR char268
ENCODING 268
SWIDTH 7 0
DWIDTH 23 0
BBX 20 28 2 0
BITMAP
060E00
039C00
01F800
00F000
000000
01FC00
0FFF00
1FFF80
3C03C0
7801C0
7001E0
F000E0
E00000
E00000
E00000
E00000
E00000
E00000
E00000
E00070
E000E0
E000E0
7000E0
7801C0
3C03C0
1FFF80
0FFF00
03FC00
ENDCHAR
STARTCHAR char269
ENCODING 269
SWIDTH 16 0
DWIDTH 16 0
BBX 14 23 1 0
BITMAP
1830
0C60
0EC0
07C0
0380
0000
07C0
1FF0
3EF8
7838
701C
E01C
E000
E000
E000
E000
E000
E01C
701C
703C
3EF8
1FF0
0FC0
ENDCHAR
STARTCHAR char270
ENCODING 270
SWIDTH 7 0
DWIDTH 23 0
BBX 18 29 3 0
BITMAP
1C1800
0E3000
07F000
03E000
000000
000000
FFF000
FFFC00
FFFE00
E00F00
E00780
E00380
E003C0
E001C0
E001C0
E001C0
E001C0
E001C0
E001C0
E001C0
E001C0
E001C0
E003C0
E00380
E00780
E00F00
FFFE00
FFFC00
FFF000
ENDCHAR
STARTCHAR char271
ENCODING 271
SWIDTH 22 0
DWIDTH 18 0
BBX 20 23 1 0
BITMAP
000E70
000E70
000E70
000E10
000E10
000E30
0FCE60
1FEE00
3FFE00
783E00
F01E00
E00E00
E00E00
E00E00
E00E00
E00E00
E00E00
E00E00
F01E00
783E00
3EFE00
1FEE00
0FCE00
ENDCHAR
STARTCHAR char272
ENCODING 272
SWIDTH 7 0
DWIDTH 23 0
BBX 20 23 1 0
BITMAP
3FFC00
3FFF00
3FFF80
3803C0
3801E0
3800E0
380070
380070
380070
380070
FFC070
FFC070
380070
380070
380070
380070
3800F0
3800E0
3801E0
3803C0
3FFF80
3FFF00
3FFC00
ENDCHAR
STARTCHAR char273
ENCODING 273
SWIDTH 22 0
DWIDTH 18 0
BBX 17 23 1 0
BITMAP
000E00
000E00
01FF80
01FF80
000E00
000E00
0FCE00
1FEE00
3FFE00
783E00
F01E00
E00E00
E00E00
E00E00
E00E00
E00E00
E00E00
E00E00
701E00
783E00
3FFE00
1FEE00
0FCE00
ENDCHAR
STARTCHAR char274
ENCODING 274
SWIDTH 2 0
DWIDTH 21 0
BBX 17 28 3 0
BITMAP
0FF000
0FF000
000000
000000
000000
FFFF00
FFFF00
FFFF00
E00000
E00000
E00000
E00000
E00000
E00000
E00000
FFFF00
FFFF00
FFFF00
E00000
E00000
E00000
E00000
E00000
E00000
E00000
FFFF80
FFFF80
FFFF80
ENDCHAR
STARTCHAR char275
ENCODING 275
SWIDTH 22 0
DWIDTH 18 0
BBX 15 22 1 0
BITMAP
1FF0
1FF0
0000
0000
0000
07E0
1FF8
3FFC
781C
700E
600E
E006
FFFE
FFFE
E000
E000
6000
700E
781C
3FFC
1FF8
07E0
ENDCHAR
STARTCHAR char276
ENCODING 276
SWIDTH 2 0
DWIDTH 21 0
BBX 17 29 3 0
BITMAP
381C00
3C7800
1FF800
07E000
000000
000000
FFFF00
FFFF00
FFFF00
E00000
E00000
E00000
E00000
E00000
E00000
E00000
FFFF00
FFFF00
FFFF00
E00000
E00000
E00000
E00000
E00000
E00000
E00000
FFFF80
FFFF80
FFFF80
ENDCHAR
STARTCHAR char277
ENCODING 277
SWIDTH 22 0
DWIDTH 18 0
BBX 15 23 1 0
BITMAP
1818
1C30
0FF0
07E0
0000
0000
07E0
1FF8
3FFC
781C
700E
600E
E006
FFFE
FFFE
E000
E000
6000
700E
781C
3FFC
1FF8
07E0
ENDCHAR
STARTCHAR char278
ENCODING 278
SWIDTH 2 0
DWIDTH 21 0
BBX 17 28 3 0
BITMAP
03C000
03C000
03C000
000000
000000
FFFF00
FFFF00
FFFF00
E00000
E00000
E00000
E00000
E00000
E00000
E00000
FFFF00
FFFF00
FFFF00
E00000
E00000
E00000
E00000
E00000
E00000
E00000
FFFF80
FFFF80
FFFF80
ENDCHAR
STARTCHAR char279
ENCODING 279
SWIDTH 22 0
DWIDTH 18 0
BBX 15 22 1 0
BITMAP
03C0
03C0
03C0
0000
0000
07E0
1FF8
3FFC
781C
700E
600E
E006
FFFE
FFFE
E000
E000
6000
700E
781C
3FFC
1FF8
07E0
ENDCHAR
STARTCHAR char280
ENCODING 280
SWIDTH 2 0
DWIDTH 21 0
BBX 17 31 3 -8
BITMAP
FFFF00
FFFF00
FFFF00
E00000
E00000
E00000
E00000
E00000
E00000
E00000
FFFF00
FFFF00
FFFF00
E00000
E00000
E00000
E00000
E00000
E00000
E00000
FFFF80
FFFF80
FFFF80
000600
000C00
001C00
001C00
001C00
001F80
000F80
000180
ENDCHAR
STARTCHAR char281
ENCODING 281
SWIDTH 22 0
DWIDTH 18 0
BBX 15 24 1 -7
BITMAP
07E0
1FF8
3FFC
781C
700E
600E
E006
FFFE
FFFE
E000
E000
6000
700E
781C
3FFC
1FF8
07E0
01C0
0180
0380
0380
03C0
03F0
00F0
ENDCHAR
STARTCHAR char282
ENCODING 282
SWIDTH 2 0
DWIDTH 21 0
BBX 17 29 3 0
BITMAP
1C3800
0E7000
07E000
03C000
000000
000000
FFFF00
FFFF00
FFFF00
E00000
E00000
E00000
E00000
E00000
E00000
E00000
FFFF00
FFFF00
FFFF00
E00000
E00000
E00000
E00000
E00000
E00000
E00000
FFFF80
FFFF80
FFFF80
ENDCHAR
STARTCHAR char283
ENCODING 283
SWIDTH 22 0
DWIDTH 18 0
BBX 15 23 1 0
BITMAP
0C30
0E70
06E0
07C0
03C0
0000
07E0
1FF8
3FFC
781C
700E
600E
E006
FFFE
FFFE
E000
E000
6000
700E
781C
3FFC
1FF8
07E0
ENDCHAR
STARTCHAR char284
ENCODING 284
SWIDTH 13 0
DWIDTH 25 0
BBX 22 28 1 0
BITMAP
007C00
00FE00
01C700
018380
000000
00FE00
03FF80
0FFFE0
1F01F0
1C0070
380038
780038
700000
700000
700000
E00000
E00FFC
E00FFC
E00FFC
70001C
70001C
70001C
38003C
3C007C
1F00FC
0FFFDC
07FF8C
00FE00
ENDCHAR
STARTCHAR char285
ENCODING 285
SWIDTH 22 0
DWIDTH 18 0
BBX 15 29 1 -6
BITMAP
03C0
07E0
0E60
0C30
0000
0000
078E
1FEE
3FFE
783E
701E
E01E
E00E
E00E
E00E
E00E
E00E
E01E
701E
703E
3EFE
1FEE
0F8C
000C
E00C
701C
7838
3FF8
1FE0
ENDCHAR
STARTCHAR char286
ENCODING 286
SWIDTH 13 0
DWIDTH 25 0
BBX 22 28 1 0
BITMAP
030180
03C780
01FF00
00FE00
000000
00FE00
03FF80
0FFFE0
1F01F0
1C0070
380038
780038
700000
700000
700000
E00000
E00FFC
E00FFC
E00FFC
70001C
70001C
70001C
38003C
3C007C
1F00FC
0FFFDC
07FF8C
00FE00
ENDCHAR
STARTCHAR char287
ENCODING 287
SWIDTH 22 0
DWIDTH 18 0
BBX 15 29 1 -6
BITMAP
1818
1E70
0FF0
03C0
0000
0000
078E
1FEE
3FFE
783E
701E
E01E
E00E
E00E
E00E
E00E
E00E
E01E
701E
703E
3EFE
1FEE
0F8C
000C
E00C
701C
7838
3FF8
1FE0
ENDCHAR
STARTCHAR char288
ENCODING 288
SWIDTH 13 0
DWIDTH 25 0
BBX 22 28 1 0
BITMAP
003800
003800
003800
000000
000000
00FE00
03FF80
0FFFE0
1F01F0
1C0070
380038
780038
700000
700000
700000
E00000
E00FFC
E00FFC
E00FFC
70001C
70001C
70001C
38003C
3C007C
1F00FC
0FFFDC
07FF8C
00FE00
ENDCHAR
STARTCHAR char289
ENCODING 289
SWIDTH 22 0
DWIDTH 18 0
BBX 15 28 1 -6
BITMAP
03C0
03C0
03C0
0000
0000
078E
1FEE
3FFE
783E
701E
E01E
E00E
E00E
E00E
E00E
E00E
E01E
701E
703E
3EFE
1FEE
0F8C
000C
E00C
701C
7838
3FF8
1FE0
ENDCHAR
STARTCHAR char290
ENCODING 290
SWIDTH 13 0
DWIDTH 25 0
BBX 22 31 1 -8
BITMAP
00FE00
03FF80
0FFFE0
1F01F0
1C0070
380038
780038
700000
700000
700000
E00000
E00FFC
E00FFC
E00FFC
70001C
70001C
70001C
38003C
3C007C
1F00FC
0FFFDC
07FF8C
00FE00
000000
003800
003800
003800
001800
000800
001800
003000
ENDCHAR
STARTCHAR char291
ENCODING 291
SWIDTH 22 0
DWIDTH 18 0
BBX 15 32 1 -6
BITMAP
00C0
0180
0300
0300
03C0
03C0
03C0
0000
0000
078E
1FEE
3FFE
783E
701E
E01E
E00E
E00E
E00E
E00E
E00E
E01E
701E
703E
3EFE
1FEE
0F8C
000C
E00C
701C
7838
3FF8
1FE0
ENDCHAR
STARTCHAR char292
ENCODING 292
SWIDTH 7 0
DWIDTH 23 0
BBX 18 29 3 0
BITMAP
03E000
07F000
0E3800
1C1C00
000000
000000
E001C0
E001C0
E001C0
E001C0
E001C0
E001C0
E001C0
E001C0
E001C0
E001C0
FFFFC0
FFFFC0
FFFFC0
E001C0
E001C0
E001C0
E001C0
E001C0
E001C0
E001C0
E001C0
E001C0
E001C0
ENDCHAR
STARTCHAR char293
ENCODING 293
SWIDTH 22 0
DWIDTH 18 0
BBX 14 29 2 0
BITMAP
0780
0FC0
1CE0
3070
0000
0000
E000
E000
E000
E000
E000
E000
E3E0
EFF0
FE78
F038
F01C
E01C
E01C
E01C
E01C
E01C
E01C
E01C
E01C
E01C
E01C
E01C
E01C
ENDCHAR
STARTCHAR char294
ENCODING 294
SWIDTH 7 0
DWIDTH 23 0
BBX 21 23 1 0
BITMAP
380070
380070
380070
380070
FFFFF8
380070
380070
380070
380070
380070
3FFFF0
3FFFF0
3FFFF0
380070
380070
380070
380070
380070
380070
380070
380070
380070
380070
ENDCHAR
STARTCHAR char295
ENCODING 295
SWIDTH 24 0
DWIDTH 19 0
BBX 15 23 2 0
BITMAP
7000
7000
7000
7300
7E00
7800
F1F0
77FC
7F3C
7C1E
780E
700E
700E
700E
700E
700E
700E
700E
700E
700E
700E
700E
700E
ENDCHAR
STARTCHAR char296
ENCODING 296
SWIDTH 25 0
DWIDTH 9 0
BBX 9 28 0 0
BITMAP
7980
FF80
C700
0000
0000
1C00
1C00
1C00
1C00
1C00
1C00
1C00
1C00
1C00
1C00
1C00
1C00
1C00
1C00
1C00
1C00
1C00
1C00
1C00
1C00
1C00
1C00
1C00
ENDCHAR
STARTCHAR char297
ENCODING 297
SWIDTH 25 0
DWIDTH 9 0
BBX 10 22 -1 0
BITMAP
38C0
7FC0
E780
0000
0000
0E00
0E00
0E00
0E00
0E00
0E00
0E00
0E00
0E00
0E00
0E00
0E00
0E00
0E00
0E00
0E00
0E00
ENDCHAR
STARTCHAR char298
ENCODING 298
SWIDTH 25 0
DWIDTH 9 0
BBX 9 28 0 0
BITMAP
FF80
FF80
0000
0000
0000
1C00
1C00
1C00
1C00
1C00
1C00
1C00
1C00
1C00
1C00
1C00
1C00
1C00
1C00
1C00
1C00
1C00
1C00
1C00
1C00
1C00
1C00
1C00
ENDCHAR
STARTCHAR char299
ENCODING 299
SWIDTH 25 0
DWIDTH 9 0
BBX 9 22 0 0
BITMAP
FF80
FF80
0000
0000
0000
1C00
1C00
1C00
1C00
1C00
1C00
1C00
1C00
1C00
1C00
1C00
1C00
1C00
1C00
1C00
1C00
1C00
ENDCHAR
STARTCHAR char300
ENCODING 300
SWIDTH 25 0
DWIDTH 9 0
BBX 11 29 -1 0
BITMAP
C060
F1E0
7FC0
3F80
0000
0000
0E00
0E00
0E00
0E00
0E00
0E00
0E00
0E00
0E00
0E00
0E00
0E00
0E00
0E00
0E00
0E00
0E00
0E00
0E00
0E00
0E00
0E00
0E00
ENDCHAR
STARTCHAR char301
ENCODING 301
SWIDTH 25 0
DWIDTH 9 0
BBX 9 23 0 0
BITMAP
C180
E380
7F00
3E00
0000
0000
1C00
1C00
1C00
1C00
1C00
1C00
1C00
1C00
1C00
1C00
1C00
1C00
1C00
1C00
1C00
1C00
1C00
ENDCHAR
STARTCHAR char302
ENCODING 302
SWIDTH 25 0
DWIDTH 9 0
BBX 6 31 1 -8
BITMAP
38
38
38
38
38
38
38
38
38
38
38
38
38
38
38
38
38
38
38
38
38
38
38
30
60
60
E0
E0
FC
7C
0C
ENDCHAR
STARTCHAR char303
ENCODING 303
SWIDTH 25 0
DWIDTH 9 0
BBX 6 30 1 -8
BITMAP
38
38
38
00
00
38
38
38
38
38
38
38
38
38
38
38
38
38
38
38
38
38
30
60
60
E0
E0
FC
7C
0C
ENDCHAR
STARTCHAR char304
ENCODING 304
SWIDTH 25 0
DWIDTH 9 0
BBX 3 28 3 0
BITMAP
E0
E0
E0
00
00
E0
E0
E0
E0
E0
E0
E0
E0
E0
E0
E0
E0
E0
E0
E0
E0
E0
E0
E0
E0
E0
E0
E0
ENDCHAR
STARTCHAR char305
ENCODING 305
SWIDTH 19 0
DWIDTH 7 0
BBX 3 17 2 0
BITMAP
E0
E0
E0
E0
E0
E0
E0
E0
E0
E0
E0
E0
E0
E0
E0
E0
E0
ENDCHAR
STARTCHAR char306
ENCODING 306
SWIDTH 7 0
DWIDTH 23 0
BBX 19 23 2 0
BITMAP
E000E0
E000E0
E000E0
E000E0
E000E0
E000E0
E000E0
E000E0
E000E0
E000E0
E000E0
E000E0
E000E0
E000E0
E000E0
E380E0
E380E0
E380E0
E380E0
E3C1C0
E1FFC0
E0FF80
007E00
ENDCHAR
STARTCHAR char307
ENCODING 307
SWIDTH 10 0
DWIDTH 14 0
BBX 10 29 2 -7
BITMAP
E1C0
E1C0
E1C0
0000
0000
E1C0
E1C0
E1C0
E1C0
E1C0
E1C0
E1C0
E1C0
E1C0
E1C0
E1C0
E1C0
E1C0
E1C0
E1C0
E1C0
E1C0
01C0
01C0
01C0
01C0
03C0
0F80
0F00
ENDCHAR
STARTCHAR char308
ENCODING 308
SWIDTH 16 0
DWIDTH 16 0
BBX 16 29 1 0
BITMAP
0078
00FC
01CE
0383
0000
0000
0038
0038
0038
0038
0038
0038
0038
0038
0038
0038
0038
0038
0038
0038
0038
E038
E038
E078
E070
F070
7FF0
7FE0
1F80
ENDCHAR
STARTCHAR char309
ENCODING 309
SWIDTH 19 0
DWIDTH 7 0
BBX 9 30 -1 -7
BITMAP
1C00
3E00
7300
E180
0000
0000
1C00
1C00
1C00
1C00
1C00
1C00
1C00
1C00
1C00
1C00
1C00
1C00
1C00
1C00
1C00
1C00
1C00
1C00
1C00
1C00
1C00
3C00
F800
F000
ENDCHAR
STARTCHAR char310
ENCODING 310
SWIDTH 2 0
DWIDTH 21 0
BBX 18 32 3 -9
BITMAP
E00380
E00700
E00E00
E01C00
E03800
E07000
E0E000
E1C000
E38000
E78000
EF8000
FFC000
F9E000
F0E000
E07000
E07800
E03800
E01C00
E01E00
E00F00
E00700
E00780
E003C0
000000
000000
01C000
01C000
01C000
004000
004000
00C000
018000
ENDCHAR
STARTCHAR char311
ENCODING 311
SWIDTH 16 0
DWIDTH 16 0
BBX 14 32 2 -9
BITMAP
E000
E000
E000
E000
E000
E000
E078
E0F0
E1E0
E3C0
E780
EF00
FF00
FF00
F380
E380
E1C0
E1E0
E0E0
E070
E078
E038
E03C
0000
0000
0F00
0F00
0F00
0300
0200
0600
0C00
ENDCHAR
STARTCHAR char313
ENCODING 313
SWIDTH 22 0
DWIDTH 18 0
BBX 14 29 3 0
BITMAP
1E00
3C00
7000
E000
0000
0000
E000
E000
E000
E000
E000
E000
E000
E000
E000
E000
E000
E000
E000
E000
E000
E000
E000
E000
E000
E000
FFFC
FFFC
FFFC
ENDCHAR
STARTCHAR char314
ENCODING 314
SWIDTH 19 0
DWIDTH 7 0
BBX 8 29 2 0
BITMAP
1F
1C
38
70
00
00
E0
E0
E0
E0
E0
E0
E0
E0
E0
E0
E0
E0
E0
E0
E0
E0
E0
E0
E0
E0
E0
E0
E0
ENDCHAR
STARTCHAR char315
ENCODING 315
SWIDTH 22 0
DWIDTH 18 0
BBX 14 32 3 -9
BITMAP
E000
E000
E000
E000
E000
E000
E000
E000
E000
E000
E000
E000
E000
E000
E000
E000
E000
E000
E000
E000
FFFC
FFFC
FFFC
0000
0000
0700
0700
0700
0100
0100
0300
0600
ENDCHAR
STARTCHAR char316
ENCODING 316
SWIDTH 19 0
DWIDTH 7 0
BBX 3 32 2 -9
BITMAP
E0
E0
E0
E0
E0
E0
E0
E0
E0
E0
E0
E0
E0
E0
E0
E0
E0
E0
E0
E0
E0
E0
E0
00
00
E0
E0
E0
20
20
60
C0
ENDCHAR
STARTCHAR char317
ENCODING 317
SWIDTH 22 0
DWIDTH 18 0
BBX 14 23 3 0
BITMAP
E700
E700
E700
E300
E300
E200
E600
E000
E000
E000
E000
E000
E000
E000
E000
E000
E000
E000
E000
E000
FFFC
FFFC
FFFC
ENDCHAR
STARTCHAR char318
ENCODING 318
SWIDTH 19 0
DWIDTH 7 0
BBX 8 23 2 0
BITMAP
E7
E7
E7
E1
E1
E3
E6
E0
E0
E0
E0
E0
E0
E0
E0
E0
E0
E0
E0
E0
E0
E0
E0
ENDCHAR
STARTCHAR char319
ENCODING 319
SWIDTH 22 0
DWIDTH 18 0
BBX 14 23 3 0
BITMAP
E000
E000
E000
E000
E000
E000
E000
E000
E000
E0F0
E0F0
E0F0
E000
E000
E000
E000
E000
E000
E000
E000
FFFC
FFFC
FFFC
ENDCHAR
STARTCHAR char320
ENCODING 320
SWIDTH 28 0
DWIDTH 10 0
BBX 8 23 2 0
BITMAP
E0
E0
E0
E0
E0
E0
E0
E0
E0
E0
E7
E7
E7
E0
E0
E0
E0
E0
E0
E0
E0
E0
E0
ENDCHAR
STARTCHAR char321
ENCODING 321
SWIDTH 27 0
DWIDTH 20 0
BBX 16 23 2 0
BITMAP
3800
3800
3800
3800
3800
3800
3880
3980
3B80
3F00
3E00
3C00
3800
7800
F800
F800
B800
3800
3800
3800
3FFF
3FFF
3FFF
ENDCHAR
STARTCHAR char322
ENCODING 322
SWIDTH 28 0
DWIDTH 10 0
BBX 6 23 2 0
BITMAP
30
30
30
30
30
30
34
3C
3C
38
30
70
F0
F0
B0
30
30
30
30
30
30
30
30
ENDCHAR
STARTCHAR char323
ENCODING 323
SWIDTH 7 0
DWIDTH 23 0
BBX 19 29 2 0
BITMAP
000F00
001C00
003800
007000
000000
000000
F000E0
F800E0
F800E0
FC00E0
FE00E0
EE00E0
E700E0
E780E0
E380E0
E1C0E0
E1C0E0
E0E0E0
E0F0E0
E070E0
E038E0
E03CE0
E01CE0
E00EE0
E00FE0
E007E0
E003E0
E003E0
E001E0
ENDCHAR
STARTCHAR char324
ENCODING 324
SWIDTH 22 0
DWIDTH 18 0
BBX 14 23 2 0
BITMAP
0070
00E0
01C0
0180
0300
0000
E3E0
EFF0
F838
F038
F01C
E01C
E01C
E01C
E01C
E01C
E01C
E01C
E01C
E01C
E01C
E01C
E01C
ENDCHAR
STARTCHAR char325
ENCODING 325
SWIDTH 7 0
DWIDTH 23 0
BBX 19 32 2 -9
BITMAP
F000E0
F800E0
F800E0
FC00E0
FE00E0
EE00E0
E700E0
E780E0
E380E0
E1C0E0
E1C0E0
E0E0E0
E0F0E0
E070E0
E038E0
E03CE0
E01CE0
E00EE0
E00FE0
E007E0
E003E0
E003E0
E001E0
000000
000000
00E000
00E000
00E000
002000
002000
006000
00C000
ENDCHAR
STARTCHAR char326
ENCODING 326
SWIDTH 22 0
DWIDTH 18 0
BBX 14 26 2 -9
BITMAP
E3E0
EFF0
F838
F038
F01C
E01C
E01C
E01C
E01C
E01C
E01C
E01C
E01C
E01C
E01C
E01C
E01C
0000
0000
0780
0780
0780
0180
0100
0300
0600
ENDCHAR
STARTCHAR char327
ENCODING 327
SWIDTH 7 0
DWIDTH 23 0
BBX 19 29 2 0
BITMAP
060E00
071C00
03F800
01F000
000000
000000
F000E0
F800E0
F800E0
FC00E0
FE00E0
EE00E0
E700E0
E780E0
E380E0
E1C0E0
E1C0E0
E0E0E0
E0F0E0
E070E0
E038E0
E03CE0
E01CE0
E00EE0
E00FE0
E007E0
E003E0
E003E0
E001E0
ENDCHAR
STARTCHAR char328
ENCODING 328
SWIDTH 22 0
DWIDTH 18 0
BBX 14 23 2 0
BITMAP
1860
1CC0
0FC0
0780
0000
0000
E3E0
EFF0
F838
F038
F01C
E01C
E01C
E01C
E01C
E01C
E01C
E01C
E01C
E01C
E01C
E01C
E01C
ENDCHAR
STARTCHAR char330
ENCODING 330
SWIDTH 7 0
DWIDTH 23 0
BBX 19 31 2 -8
BITMAP
F000E0
F800E0
F800E0
FC00E0
FE00E0
EE00E0
E700E0
E780E0
E380E0
E1C0E0
E1C0E0
E0E0E0
E0F0E0
E070E0
E038E0
E03CE0
E01CE0
E00EE0
E00FE0
E007E0
E003E0
E003E0
E001E0
0000E0
0080E0
0380E0
0381C0
03C3C0
01FFC0
01FF80
007E00
ENDCHAR
STARTCHAR char331
ENCODING 331
SWIDTH 22 0
DWIDTH 18 0
BBX 14 24 2 -7
BITMAP
E3E0
EFF0
F838
F038
F01C
E01C
E01C
E01C
E01C
E01C
E01C
E01C
E01C
E01C
E01C
E01C
E01C
001C
001C
001C
001C
0038
00F8
00F0
ENDCHAR
STARTCHAR char332
ENCODING 332
SWIDTH 13 0
DWIDTH 25 0
BBX 23 27 1 0
BITMAP
01FF00
01FF00
000000
000000
00FE00
03FF80
0FFFE0
1F01F0
3C0078
380038
70003C
70001C
70001C
E0000E
E0000E
E0000E
E0000E
E0000E
F0001C
70001C
70001C
380038
3C0078
1E01F0
0FFFE0
07FFC0
00FE00
ENDCHAR
STARTCHAR char333
ENCODING 333
SWIDTH 22 0
DWIDTH 18 0
BBX 15 22 1 0
BITMAP
1FF0
1FF0
0000
0000
0000
07E0
1FF8
3FFC
781C
700E
E00E
E00E
E00E
E006
E00E
E00E
E00E
700E
781C
3FFC
1FF8
07E0
ENDCHAR
STARTCHAR char334
ENCODING 334
SWIDTH 13 0
DWIDTH 25 0
BBX 23 28 1 0
BITMAP
030180
03C780
01FF00
00FE00
000000
00FE00
03FF80
0FFFE0
1F01F0
3C0078
380038
70003C
70001C
70001C
E0000E
E0000E
E0000E
E0000E
E0000E
F0001C
70001C
70001C
380038
3C0078
1E01F0
0FFFE0
07FFC0
00FE00
ENDCHAR
STARTCHAR char335
ENCODING 335
SWIDTH 22 0
DWIDTH 18 0
BBX 15 23 1 0
BITMAP
1818
1C30
0FF0
07E0
0000
0000
07E0
1FF8
3FFC
781C
700E
E00E
E00E
E00E
E006
E00E
E00E
E00E
700E
781C
3FFC
1FF8
07E0
ENDCHAR
STARTCHAR char336
ENCODING 336
SWIDTH 13 0
DWIDTH 25 0
BBX 23 29 1 0
BITMAP
003CE0
0039C0
007380
00E300
00C600
000000
00FE00
03FF80
0FFFE0
1F01F0
3C0078
380038
70003C
70001C
70001C
E0000E
E0000E
E0000E
E0000E
E0000E
F0001C
70001C
70001C
380038
3C0078
1E01F0
0FFFE0
07FFC0
00FE00
ENDCHAR
STARTCHAR char337
ENCODING 337
SWIDTH 22 0
DWIDTH 18 0
BBX 15 23 1 0
BITMAP
01CE
039C
0718
0630
0C60
0000
07E0
1FF8
3FFC
781C
700E
E00E
E00E
E00E
E006
E00E
E00E
E00E
700E
781C
3FFC
1FF8
07E0
ENDCHAR
STARTCHAR char338
ENCODING 338
SWIDTH 4 0
DWIDTH 32 0
BBX 30 24 1 -1
BITMAP
03FCFFFC
0FFEFFFC
1F0FFFFC
1C03E000
3801E000
7801E000
7000E000
7000E000
7000E000
E000E000
E000FFF8
E000FFF8
E000FFF8
E000E000
6000E000
7000E000
7000E000
7000E000
3801E000
3C03E000
1E07E000
0FFEFFFC
07FCFFFC
01F00000
ENDCHAR
STARTCHAR char339
ENCODING 339
SWIDTH 27 0
DWIDTH 30 0
BBX 28 17 1 0
BITMAP
07E03E00
1FF8FF80
3FFDFFC0
781F81E0
700F00E0
700F0060
E00F0070
E007FFF0
E007FFF0
E0060000
E00F0000
700F0000
700F00E0
781F81E0
3FFDF7C0
1FF8FF80
07E07E00
ENDCHAR
STARTCHAR char340
ENCODING 340
SWIDTH 7 0
DWIDTH 23 0
BBX 19 29 3 0
BITMAP
001E00
003800
007000
00E000
000000
000000
FFFC00
FFFF00
FFFF80
E00780
E003C0
E001C0
E001C0
E001C0
E00380
E00380
FFFF00
FFFC00
FFFF00
E00780
E00380
E00380
E00380
E00380
E00380
E00380
E003C0
E001C0
E001E0
ENDCHAR
STARTCHAR char341
ENCODING 341
SWIDTH 2 0
DWIDTH 11 0
BBX 8 23 2 0
BITMAP
07
0E
1C
18
30
00
E7
EF
FE
F0
F0
E0
E0
E0
E0
E0
E0
E0
E0
E0
E0
E0
E0
ENDCHAR
STARTCHAR char342
ENCODING 342
SWIDTH 7 0
DWIDTH 23 0
BBX 19 32 3 -9
BITMAP
FFFC00
FFFF00
FFFF80
E00780
E003C0
E001C0
E001C0
E001C0
E00380
E00380
FFFF00
FFFC00
FFFF00
E00780
E00380
E00380
E00380
E00380
E00380
E00380
E003C0
E001C0
E001E0
000000
000000
01C000
01C000
01C000
004000
004000
00C000
018000
ENDCHAR
STARTCHAR char343
ENCODING 343
SWIDTH 2 0
DWIDTH 11 0
BBX 8 26 2 -9
BITMAP
E7
EF
FE
F0
F0
E0
E0
E0
E0
E0
E0
E0
E0
E0
E0
E0
E0
00
00
E0
E0
E0
20
20
60
C0
ENDCHAR
STARTCHAR char344
ENCODING 344
SWIDTH 7 0
DWIDTH 23 0
BBX 19 29 3 0
BITMAP
0C1C00
0E3800
07F000
03E000
000000
000000
FFFC00
FFFF00
FFFF80
E00780
E003C0
E001C0
E001C0
E001C0
E00380
E00380
FFFF00
FFFC00
FFFF00
E00780
E00380
E00380
E00380
E00380
E00380
E00380
E003C0
E001C0
E001E0
ENDCHAR
STARTCHAR char345
ENCODING 345
SWIDTH 2 0
DWIDTH 11 0
BBX 9 23 1 0
BITMAP
C300
E600
7E00
3C00
0000
0000
7380
7780
7F00
7800
7800
7000
7000
7000
7000
7000
7000
7000
7000
7000
7000
7000
7000
ENDCHAR
STARTCHAR char346
ENCODING 346
SWIDTH 2 0
DWIDTH 21 0
BBX 18 28 2 0
BITMAP
001E00
003800
007000
00E000
000000
07F000
1FFC00
3FFE00
780F00
700780
E00380
E00380
E00000
F00000
780000
7F8000
3FF000
07FE00
007F00
000380
C001C0
E001C0
E001C0
F00380
780780
7FFF00
1FFE00
07F800
ENDCHAR
STARTCHAR char347
ENCODING 347
SWIDTH 16 0
DWIDTH 16 0
BBX 14 23 1 0
BITMAP
0070
00E0
01C0
0180
0300
0000
0FC0
3FF0
7FF0
7038
6038
E000
7000
7F00
1FE0
03F8
0038
001C
E01C
F038
7DF8
3FF0
1FC0
ENDCHAR
STARTCHAR char348
ENCODING 348
SWIDTH 2 0
DWIDTH 21 0
BBX 18 28 2 0
BITMAP
03E000
07F000
063800
0C1C00
000000
07F000
1FFC00
3FFE00
780F00
700780
E00380
E00380
E00000
F00000
780000
7F8000
3FF000
07FE00
007F00
000380
C001C0
E001C0
E001C0
F00380
780780
7FFF00
1FFE00
07F800
ENDCHAR
STARTCHAR char349
ENCODING 349
SWIDTH 16 0
DWIDTH 16 0
BBX 14 23 1 0
BITMAP
0780
0780
0CC0
1CE0
1860
0000
0FC0
3FF0
7FF0
7038
6038
E000
7000
7F00
1FE0
03F8
0038
001C
E01C
F038
7DF8
3FF0
1FC0
ENDCHAR
STARTCHAR char350
ENCODING 350
SWIDTH 2 0
DWIDTH 21 0
BBX 18 30 2 -7
BITMAP
07F000
1FFC00
3FFE00
780F00
700780
E00380
E00380
E00000
F00000
780000
7F8000
3FF000
07FE00
007F00
000380
C001C0
E001C0
E001C0
F00380
780780
3FFF00
1FFE00
07F800
008000
01E000
01F000
003000
003000
067000
03E000
ENDCHAR
STARTCHAR char351
ENCODING 351
SWIDTH 16 0
DWIDTH 16 0
BBX 14 24 1 -7
BITMAP
0FC0
3FF0
7FF0
7038
6038
E000
7000
7F00
1FE0
03F8
0038
001C
E01C
F038
7DF8
3FF0
1FC0
0200
0780
07C0
00C0
00C0
19C0
0F80
ENDCHAR
STARTCHAR char352
ENCODING 352
SWIDTH 2 0
DWIDTH 21 0
BBX 18 28 2 0
BITMAP
0C1C00
063800
03F000
03E000
000000
07F000
1FFC00
3FFE00
780F00
700780
E00380
E00380
E00000
F00000
780000
7F8000
3FF000
07FE00
007F00
000380
C001C0
E001C0
E001C0
F00380
780780
7FFF00
1FFE00
07F800
ENDCHAR
STARTCHAR char353
ENCODING 353
SWIDTH 16 0
DWIDTH 16 0
BBX 14 23 1 0
BITMAP
1860
1CE0
0CC0
0780
0780
0000
0FC0
3FF0
7FF0
7038
6038
E000
7000
7F00
1FE0
03F8
0038
001C
E01C
F038
7DF8
3FF0
1FC0
ENDCHAR
STARTCHAR char354
ENCODING 354
SWIDTH 27 0
DWIDTH 20 0
BBX 18 30 1 -7
BITMAP
FFFFC0
FFFFC0
FFFFC0
01C000
01C000
01C000
01C000
01C000
01C000
01C000
01C000
01C000
01C000
01C000
01C000
01C000
01C000
01C000
01C000
01C000
01C000
01C000
01C000
008000
018000
01E000
007000
003000
0C7000
07E000
ENDCHAR
STARTCHAR char355
ENCODING 355
SWIDTH 25 0
DWIDTH 9 0
BBX 8 29 0 -7
BITMAP
18
18
18
18
18
FF
FF
18
18
18
18
18
18
18
18
18
18
18
18
1C
1F
0F
0C
08
1F
03
03
67
3E
ENDCHAR
STARTCHAR char356
ENCODING 356
SWIDTH 27 0
DWIDTH 20 0
BBX 18 29 1 0
BITMAP
0C1C00
073800
03F000
01E000
000000
000000
FFFFC0
FFFFC0
FFFFC0
01C000
01C000
01C000
01C000
01C000
01C000
01C000
01C000
01C000
01C000
01C000
01C000
01C000
01C000
01C000
01C000
01C000
01C000
01C000
01C000
ENDCHAR
STARTCHAR char357
ENCODING 357
SWIDTH 25 0
DWIDTH 9 0
BBX 10 25 0 0
BITMAP
03C0
03C0
03C0
18C0
1880
1980
1B00
1800
FF00
FF00
1800
1800
1800
1800
1800
1800
1800
1800
1800
1800
1800
1800
1C00
1F00
0F00
ENDCHAR
STARTCHAR char360
ENCODING 360
SWIDTH 7 0
DWIDTH 23 0
BBX 18 28 3 0
BITMAP
0F9800
0FF800
187000
000000
000000
E001C0
E001C0
E001C0
E001C0
E001C0
E001C0
E001C0
E001C0
E001C0
E001C0
E001C0
E001C0
E001C0
E001C0
E001C0
E001C0
E001C0
E00380
F00380
780F00
3FFF00
1FFC00
07F000
ENDCHAR
STARTCHAR char361
ENCODING 361
SWIDTH 22 0
DWIDTH 18 0
BBX 13 22 2 0
BITMAP
1E30
3FE0
33E0
0000
0000
E018
E018
E018
E018
E018
E018
E018
E018
E018
E018
E018
E038
E038
E078
79F8
7FD8
1F18
ENDCHAR
STARTCHAR char362
ENCODING 362
SWIDTH 7 0
DWIDTH 23 0
BBX 18 28 3 0
BITMAP
0FF800
0FF800
000000
000000
000000
E001C0
E001C0
E001C0
E001C0
E001C0
E001C0
E001C0
E001C0
E001C0
E001C0
E001C0
E001C0
E001C0
E001C0
E001C0
E001C0
E001C0
E00380
F00380
780F00
3FFF00
1FFC00
07F000
ENDCHAR
STARTCHAR char363
ENCODING 363
SWIDTH 22 0
DWIDTH 18 0
BBX 13 22 2 0
BITMAP
3FE0
3FE0
0000
0000
0000
E018
E018
E018
E018
E018
E018
E018
E018
E018
E018
E018
E038
E038
E078
79F8
7FD8
1F18
ENDCHAR
STARTCHAR char364
ENCODING 364
SWIDTH 7 0
DWIDTH 23 0
BBX 18 29 3 0
BITMAP
180C00
1E3C00
0FF800
07F000
000000
000000
E001C0
E001C0
E001C0
E001C0
E001C0
E001C0
E001C0
E001C0
E001C0
E001C0
E001C0
E001C0
E001C0
E001C0
E001C0
E001C0
E001C0
E00380
F00380
780F00
3FFF00
1FFC00
07F000
ENDCHAR
STARTCHAR char365
ENCODING 365
SWIDTH 22 0
DWIDTH 18 0
BBX 13 23 2 0
BITMAP
3030
3CE0
1FE0
0780
0000
0000
E018
E018
E018
E018
E018
E018
E018
E018
E018
E018
E018
E038
E038
E078
79F8
7FD8
1F18
ENDCHAR
STARTCHAR char366
ENCODING 366
SWIDTH 7 0
DWIDTH 23 0
BBX 18 31 3 0
BITMAP
01C000
03E000
023000
063000
036000
03E000
000000
000000
E001C0
E001C0
E001C0
E001C0
E001C0
E001C0
E001C0
E001C0
E001C0
E001C0
E001C0
E001C0
E001C0
E001C0
E001C0
E001C0
E001C0
E00380
F00380
780F00
3FFF00
1FFC00
07F000
ENDCHAR
STARTCHAR char367
ENCODING 367
SWIDTH 22 0
DWIDTH 18 0
BBX 13 24 2 0
BITMAP
0780
0FC0
08C0
08C0
0FC0
0780
0000
E018
E018
E018
E018
E018
E018
E018
E018
E018
E018
E018
E038
E038
E078
79F8
7FD8
1F18
ENDCHAR
STARTCHAR char368
ENCODING 368
SWIDTH 7 0
DWIDTH 23 0
BBX 18 30 3 0
BITMAP
00E700
01CE00
039C00
031800
063000
000000
000000
E001C0
E001C0
E001C0
E001C0
E001C0
E001C0
E001C0
E001C0
E001C0
E001C0
E001C0
E001C0
E001C0
E001C0
E001C0
E001C0
E001C0
E00380
F00380
780F00
3FFF00
1FFC00
07F000
ENDCHAR
STARTCHAR char369
ENCODING 369
SWIDTH 22 0
DWIDTH 18 0
BBX 14 23 2 0
BITMAP
039C
0738
0E30
0C60
18C0
0000
E018
E018
E018
E018
E018
E018
E018
E018
E018
E018
E018
E038
E038
E078
79F8
7FD8
1F18
ENDCHAR
STARTCHAR char370
ENCODING 370
SWIDTH 7 0
DWIDTH 23 0
BBX 18 30 3 -7
BITMAP
E001C0
E001C0
E001C0
E001C0
E001C0
E001C0
E001C0
E001C0
E001C0
E001C0
E001C0
E001C0
E001C0
E001C0
E001C0
E001C0
E001C0
E00380
F00380
780F00
3FFF00
1FFC00
07F000
00E000
00C000
01C000
01C000
01E000
01F800
007800
ENDCHAR
STARTCHAR char371
ENCODING 371
SWIDTH 22 0
DWIDTH 18 0
BBX 14 24 2 -7
BITMAP
E018
E018
E018
E018
E018
E018
E018
E018
E018
E018
E018
E038
E038
E078
79F8
7FD8
1F18
0030
0060
00E0
00E0
00F0
007C
003C
ENDCHAR
STARTCHAR char372
ENCODING 372
SWIDTH 27 0
DWIDTH 30 0
BBX 29 29 1 0
BITMAP
000F0000
001F8000
0039C000
00706000
00000000
00000000
E00F0078
E00F0070
F00F8070
700F8070
701F80F0
701D80E0
781DC0E0
3819C0E0
3839C1E0
3838E1C0
3C30E1C0
1C70E1C0
1C7061C0
1C707380
1C607380
0EE07380
0EE03B00
0EC03F00
0FC03F00
07C01F00
07C01E00
07801E00
03801E00
ENDCHAR
STARTCHAR char373
ENCODING 373
SWIDTH 7 0
DWIDTH 23 0
BBX 22 23 0 0
BITMAP
003800
006C00
00C600
018300
000000
000000
E0380C
70781C
707C1C
707C1C
707C18
38EC38
38EE38
38CE30
18CE30
1DC670
1DC770
1D8760
0D83E0
0F83E0
0F83C0
0703C0
0701C0
ENDCHAR
STARTCHAR char374
ENCODING 374
SWIDTH 2 0
DWIDTH 21 0
BBX 20 29 1 0
BITMAP
00F000
01F800
039C00
060E00
000000
000000
E000F0
F000E0
7801E0
3801C0
3C0380
1C0780
0E0700
0F0E00
070E00
039C00
03FC00
01F800
01F000
00F000
00E000
00E000
00E000
00E000
00E000
00E000
00E000
00E000
00E000
ENDCHAR
STARTCHAR char375
ENCODING 375
SWIDTH 16 0
DWIDTH 16 0
BBX 14 30 1 -7
BITMAP
0780
0FC0
0CC0
1860
0000
0000
E01C
E01C
E018
7038
7038
7070
3870
3870
38E0
1CE0
1CC0
1DC0
0FC0
0F80
0F80
0780
0700
0700
0700
0E00
0E00
7C00
7C00
7800
ENDCHAR
STARTCHAR char376
ENCODING 376
SWIDTH 2 0
DWIDTH 21 0
BBX 20 28 1 0
BITMAP
039C00
039C00
039C00
000000
000000
E000F0
F000E0
7801E0
3801C0
3C0380
1C0780
0E0700
0F0E00
070E00
039C00
03FC00
01F800
01F000
00F000
00E000
00E000
00E000
00E000
00E000
00E000
00E000
00E000
00E000
ENDCHAR
STARTCHAR char377
ENCODING 377
SWIDTH 27 0
DWIDTH 20 0
BBX 18 29 1 0
BITMAP
001E00
003C00
003800
006000
000000
000000
7FFFC0
7FFFC0
7FFFC0
000780
000F00
000E00
001E00
003C00
007800
00F000
00E000
01E000
03C000
078000
070000
0E0000
1E0000
3C0000
780000
700000
FFFFC0
FFFFC0
FFFFC0
ENDCHAR
STARTCHAR char378
ENCODING 378
SWIDTH 16 0
DWIDTH 16 0
BBX 14 23 1 0
BITMAP
0070
00E0
01C0
0180
0300
0000
7FF8
7FF8
0038
0070
00E0
01E0
01C0
0380
0700
0E00
1E00
1C00
3800
7000
E000
FFFC
FFFC
ENDCHAR
STARTCHAR char379
ENCODING 379
SWIDTH 27 0
DWIDTH 20 0
BBX 18 28 1 0
BITMAP
00E000
00E000
00E000
000000
000000
7FFFC0
7FFFC0
7FFFC0
000780
000F00
000E00
001E00
003C00
007800
00F000
00E000
01E000
03C000
078000
070000
0E0000
1E0000
3C0000
780000
700000
FFFFC0
FFFFC0
FFFFC0
ENDCHAR
STARTCHAR char380
ENCODING 380
SWIDTH 16 0
DWIDTH 16 0
BBX 14 22 1 0
BITMAP
0780
0780
0780
0000
0000
7FF8
7FF8
0038
0070
00E0
01E0
01C0
0380
0700
0E00
1E00
1C00
3800
7000
E000
FFFC
FFFC
ENDCHAR
STARTCHAR char381
ENCODING 381
SWIDTH 27 0
DWIDTH 20 0
BBX 18 29 1 0
BITMAP
0E0C00
073800
03F000
01F000
000000
000000
7FFFC0
7FFFC0
7FFFC0
000780
000F00
000E00
001E00
003C00
007800
00F000
00E000
01E000
03C000
078000
070000
0E0000
1E0000
3C0000
780000
700000
FFFFC0
FFFFC0
FFFFC0
ENDCHAR
STARTCHAR char382
ENCODING 382
SWIDTH 16 0
DWIDTH 16 0
BBX 14 23 1 0
BITMAP
1860
0CC0
0FC0
0780
0000
0000
7FF8
7FF8
0038
0070
00E0
01E0
01C0
0380
0700
0E00
1E00
1C00
3800
7000
E000
FFFC
FFFC
ENDCHAR
STARTCHAR char383
ENCODING 383
SWIDTH 25 0
DWIDTH 9 0
BBX 5 23 3 0
BITMAP
38
F8
F0
E0
C0
C0
C0
C0
C0
C0
C0
C0
C0
C0
C0
C0
C0
C0
C0
C0
C0
C0
C0
ENDCHAR
STARTCHAR char398
ENCODING 398
SWIDTH 2 0
DWIDTH 21 0
BBX 17 23 3 0
BITMAP
FFFF80
FFFF80
FFFF80
000380
000380
000380
000380
000380
000380
000380
7FFF80
7FFF80
7FFF80
000380
000380
000380
000380
000380
000380
000380
FFFF80
FFFF80
FFFF80
ENDCHAR
STARTCHAR char402
ENCODING 402
SWIDTH 22 0
DWIDTH 18 0
BBX 17 30 0 -7
BITMAP
000780
001F80
003F80
003800
007000
007000
007000
007000
006000
0FFE00
0FFE00
00E000
00E000
00C000
01C000
01C000
01C000
01C000
018000
038000
038000
038000
038000
030000
070000
070000
070000
5E0000
7C0000
F80000
ENDCHAR
STARTCHAR char416
ENCODING 416
SWIDTH 13 0
DWIDTH 25 0
BBX 23 26 1 0
BITMAP
00000E
00000E
00000E
00FE06
07FF84
0FFFEC
1F01FC
3C0078
380038
70001C
70001C
F0001C
E0000E
E0000E
E0000E
E0000E
E0000E
F0001C
70001C
70001C
380038
3C0078
1E01F0
0FFFE0
03FF80
00FE00
ENDCHAR
STARTCHAR char417
ENCODING 417
SWIDTH 22 0
DWIDTH 18 0
BBX 17 20 1 0
BITMAP
000380
000380
000380
07E180
1FF180
3F7900
781F00
700E00
E00E00
E00E00
E00E00
E00600
E00E00
E00E00
E00E00
700E00
781C00
3FFC00
1FF800
07E000
ENDCHAR
STARTCHAR char431
ENCODING 431
SWIDTH 13 0
DWIDTH 25 0
BBX 22 27 3 0
BITMAP
00001C
00001C
00001C
E001CC
E001C8
E001D8
E001D0
E001E0
E001C0
E001C0
E001C0
E001C0
E001C0
E001C0
E001C0
E001C0
E001C0
E001C0
E001C0
E001C0
E001C0
E00380
F00380
780F00
3FFF00
1FFC00
07F000
ENDCHAR
STARTCHAR char432
ENCODING 432
SWIDTH 27 0
DWIDTH 20 0
BBX 17 20 2 0
BITMAP
000380
000380
000380
E01880
E01880
E01980
E01B00
E01E00
E01800
E01800
E01800
E01800
E01800
E01800
E03800
E03800
E07800
79F800
7FD800
1F9800
ENDCHAR
STARTCHAR char461
ENCODING 461
SWIDTH 2 0
DWIDTH 21 0
BBX 20 29 1 0
BITMAP
060E00
039C00
01F800
00F000
000000
000000
00F000
01F000
01F800
01F800
03B800
039C00
079C00
071C00
070E00
0E0E00
0E0E00
0E0700
1C0700
1C0780
1FFF80
3FFF80
3803C0
3801C0
7001C0
7001E0
F000E0
E000E0
E000F0
ENDCHAR
STARTCHAR char462
ENCODING 462
SWIDTH 22 0
DWIDTH 18 0
BBX 16 23 1 0
BITMAP
1C30
0C60
06E0
07C0
03C0
0000
0FE0
1FF8
3EFC
781C
701C
001C
001C
03FC
1FFC
7E1C
701C
E01C
E01C
E03C
78FE
3FCF
1F07
ENDCHAR
STARTCHAR char463
ENCODING 463
SWIDTH 25 0
DWIDTH 9 0
BBX 10 29 0 0
BITMAP
C1C0
6380
3F00
3E00
0000
0000
1C00
1C00
1C00
1C00
1C00
1C00
1C00
1C00
1C00
1C00
1C00
1C00
1C00
1C00
1C00
1C00
1C00
1C00
1C00
1C00
1C00
1C00
1C00
ENDCHAR
STARTCHAR char464
ENCODING 464
SWIDTH 25 0
DWIDTH 9 0
BBX 9 23 0 0
BITMAP
C380
6700
3600
1C00
0000
0000
1C00
1C00
1C00
1C00
1C00
1C00
1C00
1C00
1C00
1C00
1C00
1C00
1C00
1C00
1C00
1C00
1C00
ENDCHAR
STARTCHAR char465
ENCODING 465
SWIDTH 13 0
DWIDTH 25 0
BBX 23 28 1 0
BITMAP
038380
01C700
00EE00
007C00
000000
00FE00
03FF80
0FFFE0
1F01F0
3C0078
380038
70003C
70001C
70001C
E0000E
E0000E
E0000E
E0000E
E0000E
F0001C
70001C
70001C
380038
3C0078
1E01F0
0FFFE0
07FFC0
00FE00
ENDCHAR
STARTCHAR char466
ENCODING 466
SWIDTH 22 0
DWIDTH 18 0
BBX 15 23 1 0
BITMAP
0C30
0E70
06E0
07C0
03C0
0000
07E0
1FF8
3FFC
781C
700E
E00E
E00E
E00E
E006
E00E
E00E
E00E
700E
781C
3FFC
1FF8
07E0
ENDCHAR
STARTCHAR char467
ENCODING 467
SWIDTH 7 0
DWIDTH 23 0
BBX 18 29 3 0
BITMAP
0C1C00
0E3800
07F000
03E000
000000
000000
E001C0
E001C0
E001C0
E001C0
E001C0
E001C0
E001C0
E001C0
E001C0
E001C0
E001C0
E001C0
E001C0
E001C0
E001C0
E001C0
E001C0
E00380
F00380
780F00
3FFF00
1FFC00
07F000
ENDCHAR
STARTCHAR char468
ENCODING 468
SWIDTH 22 0
DWIDTH 18 0
BBX 13 23 2 0
BITMAP
1860
1CC0
0FC0
0780
0000
0000
E018
E018
E018
E018
E018
E018
E018
E018
E018
E018
E018
E038
E038
E078
79F8
7FD8
1F18
ENDCHAR
STARTCHAR char471
ENCODING 471
SWIDTH 7 0
DWIDTH 23 0
BBX 18 34 3 0
BITMAP
003E00
003800
007000
00C000
000000
000000
0E3800
0E3800
0E3800
000000
000000
E001C0
E001C0
E001C0
E001C0
E001C0
E001C0
E001C0
E001C0
E001C0
E001C0
E001C0
E001C0
E001C0
E001C0
E001C0
E001C0
E001C0
E00380
F00380
780F00
3FFF00
1FFC00
07F000
ENDCHAR
STARTCHAR char472
ENCODING 472
SWIDTH 22 0
DWIDTH 18 0
BBX 13 28 2 0
BITMAP
0078
00E0
01C0
0380
0000
0000
1CE0
1CE0
1CE0
0000
0000
E018
E018
E018
E018
E018
E018
E018
E018
E018
E018
E018
E038
E038
E078
79F8
7FD8
1F18
ENDCHAR
STARTCHAR char473
ENCODING 473
SWIDTH 7 0
DWIDTH 23 0
BBX 18 35 3 0
BITMAP
1C1C00
0E3800
077000
03E000
03E000
000000
000000
0E3800
0E3800
0E3800
000000
000000
E001C0
E001C0
E001C0
E001C0
E001C0
E001C0
E001C0
E001C0
E001C0
E001C0
E001C0
E001C0
E001C0
E001C0
E001C0
E001C0
E001C0
E00380
F00380
780F00
3FFF00
1FFC00
07F000
ENDCHAR
STARTCHAR char474
ENCODING 474
SWIDTH 22 0
DWIDTH 18 0
BBX 13 29 2 0
BITMAP
3070
1860
1CE0
0FC0
0780
0000
0000
1CE0
1CE0
1CE0
0000
0000
E018
E018
E018
E018
E018
E018
E018
E018
E018
E018
E018
E038
E038
E078
79F8
7FD8
1F18
ENDCHAR
STARTCHAR char475
ENCODING 475
SWIDTH 7 0
DWIDTH 23 0
BBX 18 34 3 0
BITMAP
3C0000
0E0000
070000
018000
000000
000000
0E3800
0E3800
0E3800
000000
000000
E001C0
E001C0
E001C0
E001C0
E001C0
E001C0
E001C0
E001C0
E001C0
E001C0
E001C0
E001C0
E001C0
E001C0
E001C0
E001C0
E001C0
E00380
F00380
780F00
3FFF00
1FFC00
07F000
ENDCHAR
STARTCHAR char476
ENCODING 476
SWIDTH 22 0
DWIDTH 18 0
BBX 13 29 2 0
BITMAP
7800
3800
1C00
0E00
0700
0000
0000
1CE0
1CE0
1CE0
0000
0000
E018
E018
E018
E018
E018
E018
E018
E018
E018
E018
E018
E038
E038
E078
79F8
7FD8
1F18
ENDCHAR
STARTCHAR char477
ENCODING 477
SWIDTH 22 0
DWIDTH 18 0
BBX 15 17 1 0
BITMAP
07E0
1FF0
3EFC
781C
700E
000E
000E
0006
FFFE
FFFE
E00E
600E
700E
781C
3FF8
1FF0
07E0
ENDCHAR
STARTCHAR char486
ENCODING 486
SWIDTH 13 0
DWIDTH 25 0
BBX 22 28 1 0
BITMAP
018380
00C700
00FE00
007C00
000000
00FE00
03FF80
0FFFE0
1F01F0
1C0070
380038
780038
700000
700000
700000
E00000
E00FFC
E00FFC
E00FFC
70001C
70001C
70001C
38003C
3C007C
1F00FC
0FFFDC
07FF8C
00FE00
ENDCHAR
STARTCHAR char487
ENCODING 487
SWIDTH 22 0
DWIDTH 18 0
BBX 15 29 1 -6
BITMAP
0C30
0E60
07E0
03C0
0000
0000
078E
1FEE
3FFE
783E
701E
E01E
E00E
E00E
E00E
E00E
E00E
E01E
701E
703E
3EFE
1FEE
0F8C
000C
E00C
701C
7838
3FF8
1FE0
ENDCHAR
STARTCHAR char490
ENCODING 490
SWIDTH 13 0
DWIDTH 25 0
BBX 23 30 1 -7
BITMAP
00FE00
03FF80
0FFFE0
1F01F0
3C0078
380038
70003C
70001C
70001C
E0000E
E0000E
E0000E
E0000E
E0000E
F0001C
70001C
70001C
380038
3C0078
1E01F0
0FFFE0
07FF80
00FE00
001800
003800
003000
003000
003C00
003E00
001E00
ENDCHAR
STARTCHAR char491
ENCODING 491
SWIDTH 22 0
DWIDTH 18 0
BBX 15 24 1 -7
BITMAP
07E0
1FF8
3FFC
781C
700E
E00E
E00E
E00E
E006
E00E
E00E
E00E
700E
781C
3FF8
1FF0
07E0
00C0
0180
0380
0380
03C0
01F0
00F0
ENDCHAR
STARTCHAR char496
ENCODING 496
SWIDTH 19 0
DWIDTH 7 0
BBX 9 30 -1 -7
BITMAP
E180
7300
3E00
1C00
0000
0000
1C00
1C00
1C00
1C00
1C00
1C00
1C00
1C00
1C00
1C00
1C00
1C00
1C00
1C00
1C00
1C00
1C00
1C00
1C00
1C00
1C00
3C00
F800
F000
ENDCHAR
STARTCHAR char500
ENCODING 500
SWIDTH 13 0
DWIDTH 25 0
BBX 22 28 1 0
BITMAP
0007C0
000700
000E00
001800
000000
00FE00
03FF80
0FFFE0
1F01F0
1C0070
380038
780038
700000
700000
700000
E00000
E00FFC
E00FFC
E00FFC
70001C
70001C
70001C
38003C
3C007C
1F00FC
0FFFDC
07FF8C
00FE00
ENDCHAR
STARTCHAR char501
ENCODING 501
SWIDTH 22 0
DWIDTH 18 0
BBX 15 29 1 -6
BITMAP
0038
0070
00E0
00C0
0180
0000
078E
1FEE
3FFE
783E
701E
E01E
E00E
E00E
E00E
E00E
E00E
E01E
701E
703E
3EFE
1FEE
0F8C
000C
E00C
701C
7838
3FF8
1FE0
ENDCHAR
STARTCHAR char506
ENCODING 506
SWIDTH 2 0
DWIDTH 21 0
BBX 20 35 1 0
BITMAP
000F00
001C00
003800
007000
000000
00F000
019800
011800
011800
01F000
00E000
000000
00F000
01F000
01F800
01F800
03B800
039C00
079C00
071C00
070E00
0E0E00
0E0E00
0E0700
1C0700
1C0780
1FFF80
3FFF80
3803C0
3801C0
7001C0
7001E0
F000E0
E000E0
E000F0
ENDCHAR
STARTCHAR char507
ENCODING 507
SWIDTH 22 0
DWIDTH 18 0
BBX 16 29 1 0
BITMAP
003C
0078
00E0
01C0
0000
03C0
07C0
0460
0460
07C0
03C0
0000
0FE0
1FF8
3EFC
781C
701C
001C
001C
03FC
1FFC
7E1C
701C
E01C
E01C
E03C
78FE
3FCF
1F07
ENDCHAR
STARTCHAR char508
ENCODING 508
SWIDTH 4 0
DWIDTH 32 0
BBX 29 29 1 0
BITMAP
00007800
0000F000
0001E000
00038000
00000000
00000000
007FFFF8
00FFFFF8
00FFFFF8
01C38000
01C38000
01C38000
03838000
03838000
07038000
07038000
0703FFF0
0E03FFF0
0E03FFF0
1FFF8000
1FFF8000
3FFF8000
38038000
38038000
70038000
70038000
F003FFF8
E003FFF8
E003FFF8
ENDCHAR
STARTCHAR char509
ENCODING 509
SWIDTH 21 0
DWIDTH 28 0
BBX 26 23 1 0
BITMAP
0001C000
00038000
00030000
00060000
000C0000
00000000
0FC0F800
3FF3FE00
3EFFDF00
701E0380
701E0380
001C01C0
001C01C0
07FFFFC0
3FFFFFC0
7C1C0000
F01C0000
E01C0000
E01E0380
E03E0380
79E7DF00
7FC3FE00
1F00F800
ENDCHAR
STARTCHAR char510
ENCODING 510
SWIDTH 13 0
DWIDTH 25 0
BBX 23 28 1 0
BITMAP
0007C0
000F00
000E00
001800
000000
00FE04
03FF8E
0FFFFC
1F01F8
3C0078
3800F8
7001FC
70039C
70071C
E00E0E
E01C0E
E0380E
E0700E
E0E00E
F1C01C
73801C
77001C
3E0038
3C0078
3E01F0
7FFFE0
E7FFC0
40FE00
ENDCHAR
STARTCHAR char511
ENCODING 511
SWIDTH 22 0
DWIDTH 18 0
BBX 15 23 1 0
BITMAP
001C
0038
0070
0060
00C0
0000
07E0
1FF6
3FFC
781C
703E
E06E
E0EE
E0CE
E186
E30E
E60E
EC0E
780E
781C
7EFC
FFF8
47E0
ENDCHAR
STARTCHAR char512
ENCODING 512
SWIDTH 2 0
DWIDTH 21 0
BBX 20 30 1 0
BITMAP
3DE000
1CF000
0E7000
073800
031800
000000
000000
00F000
01F000
01F800
01F800
03B800
039C00
079C00
071C00
070E00
0E0E00
0E0E00
0E0700
1C0700
1C0780
1FFF80
3FFF80
3803C0
3801C0
7001C0
7001E0
F000E0
E000E0
E000F0
ENDCHAR
STARTCHAR char513
ENCODING 513
SWIDTH 22 0
DWIDTH 18 0
BBX 16 23 1 0
BITMAP
F780
73C0
39C0
1CE0
0C60
0000
0FE0
1FF8
3EFC
781C
701C
001C
001C
03FC
1FFC
7E1C
701C
E01C
E01C
E03C
78FE
3FCF
1F07
ENDCHAR
STARTCHAR char516
ENCODING 516
SWIDTH 2 0
DWIDTH 21 0
BBX 17 30 3 0
BITMAP
F38000
71C000
38C000
1C6000
0C7000
000000
000000
FFFF00
FFFF00
FFFF00
E00000
E00000
E00000
E00000
E00000
E00000
E00000
FFFF00
FFFF00
FFFF00
E00000
E00000
E00000
E00000
E00000
E00000
E00000
FFFF80
FFFF80
FFFF80
ENDCHAR
STARTCHAR char517
ENCODING 517
SWIDTH 22 0
DWIDTH 18 0
BBX 15 23 1 0
BITMAP
F380
71C0
38C0
1C60
0C70
0000
07E0
1FF8
3FFC
781C
700E
600E
E006
FFFE
FFFE
E000
E000
6000
700E
781C
3FFC
1FF8
07E0
ENDCHAR
STARTCHAR char520
ENCODING 520
SWIDTH 25 0
DWIDTH 9 0
BBX 11 30 -3 0
BITMAP
F780
7380
39C0
18E0
0C60
0000
0000
0380
0380
0380
0380
0380
0380
0380
0380
0380
0380
0380
0380
0380
0380
0380
0380
0380
0380
0380
0380
0380
0380
0380
ENDCHAR
STARTCHAR char521
ENCODING 521
SWIDTH 25 0
DWIDTH 9 0
BBX 11 23 -3 0
BITMAP
E780
7380
38C0
0C60
0000
0000
0380
0380
0380
0380
0380
0380
0380
0380
0380
0380
0380
0380
0380
0380
0380
0380
0380
ENDCHAR
STARTCHAR char524
ENCODING 524
SWIDTH 13 0
DWIDTH 25 0
BBX 23 29 1 0
BITMAP
0E7800
073800
039C00
018C00
00C600
000000
00FE00
03FF80
0FFFE0
1F01F0
3C0078
380038
70003C
70001C
70001C
E0000E
E0000E
E0000E
E0000E
E0000E
F0001C
70001C
70001C
380038
3C0078
1E01F0
0FFFE0
07FFC0
00FE00
ENDCHAR
STARTCHAR char525
ENCODING 525
SWIDTH 22 0
DWIDTH 18 0
BBX 15 23 1 0
BITMAP
F380
71C0
39C0
1CE0
0C60
0000
07E0
1FF8
3FFC
781C
700E
E00E
E00E
E00E
E006
E00E
E00E
E00E
700E
781C
3FFC
1FF8
07E0
ENDCHAR
STARTCHAR char528
ENCODING 528
SWIDTH 7 0
DWIDTH 23 0
BBX 19 30 3 0
BITMAP
73C000
39C000
1CE000
0C7000
063000
000000
000000
FFFC00
FFFF00
FFFF80
E00780
E003C0
E001C0
E001C0
E001C0
E00380
E00380
FFFF00
FFFC00
FFFF00
E00780
E00380
E00380
E00380
E00380
E00380
E00380
E003C0
E001C0
E001E0
ENDCHAR
STARTCHAR char529
ENCODING 529
SWIDTH 2 0
DWIDTH 11 0
BBX 13 23 -3 0
BITMAP
F380
39C0
18E0
0C60
0000
0000
0738
0778
07F0
0780
0780
0700
0700
0700
0700
0700
0700
0700
0700
0700
0700
0700
0700
ENDCHAR
STARTCHAR char532
ENCODING 532
SWIDTH 7 0
DWIDTH 23 0
BBX 18 30 3 0
BITMAP
73C000
39C000
1CE000
0C7000
063000
000000
000000
E001C0
E001C0
E001C0
E001C0
E001C0
E001C0
E001C0
E001C0
E001C0
E001C0
E001C0
E001C0
E001C0
E001C0
E001C0
E001C0
E001C0
E00380
F00380
780F00
3FFF00
1FFC00
07F000
ENDCHAR
STARTCHAR char533
ENCODING 533
SWIDTH 22 0
DWIDTH 18 0
BBX 14 23 1 0
BITMAP
F380
39C0
18E0
0C60
0000
0000
700C
700C
700C
700C
700C
700C
700C
700C
700C
700C
700C
701C
701C
703C
3CFC
3FEC
0F8C
ENDCHAR
STARTCHAR char536
ENCODING 536
SWIDTH 2 0
DWIDTH 21 0
BBX 18 31 2 -8
BITMAP
07F000
1FFC00
3FFE00
780F00
700780
E00380
E00380
E00000
F00000
780000
7F8000
3FF000
07FE00
007F00
000380
C001C0
E001C0
E001C0
F00380
780780
7FFF00
1FFE00
07F800
000000
01C000
01C000
01C000
00C000
004000
00C000
018000
ENDCHAR
STARTCHAR char537
ENCODING 537
SWIDTH 16 0
DWIDTH 16 0
BBX 14 26 1 -9
BITMAP
0FC0
3FF0
7FF0
7038
6038
E000
7000
7F00
1FE0
03F8
0038
001C
E01C
F038
7DF8
3FF0
1FC0
0000
0000
0780
0780
0780
0180
0100
0300
0600
ENDCHAR
STARTCHAR char538
ENCODING 538
SWIDTH 27 0
DWIDTH 20 0
BBX 18 32 1 -9
BITMAP
FFFFC0
FFFFC0
FFFFC0
01C000
01C000
01C000
01C000
01C000
01C000
01C000
01C000
01C000
01C000
01C000
01C000
01C000
01C000
01C000
01C000
01C000
01C000
01C000
01C000
000000
000000
01C000
01C000
01C000
004000
004000
00C000
018000
ENDCHAR
STARTCHAR char539
ENCODING 539
SWIDTH 25 0
DWIDTH 9 0
BBX 8 31 0 -9
BITMAP
18
18
18
18
18
FF
FF
18
18
18
18
18
18
18
18
18
18
18
18
1C
1F
0F
00
00
1C
1C
1C
04
0C
0C
18
ENDCHAR
STARTCHAR char567
ENCODING 567
SWIDTH 19 0
DWIDTH 7 0
BBX 6 24 -1 -7
BITMAP
1C
1C
1C
1C
1C
1C
1C
1C
1C
1C
1C
1C
1C
1C
1C
1C
1C
1C
1C
1C
1C
3C
F8
F0
ENDCHAR
STARTCHAR char600
ENCODING 600
SWIDTH 22 0
DWIDTH 18 0
BBX 15 17 1 0
BITMAP
07E0
1FF0
3FF8
781C
700E
600E
E00E
FFFE
FFFE
0006
000E
000E
700E
701C
3EFC
1FF8
07E0
ENDCHAR
STARTCHAR char601
ENCODING 601
SWIDTH 22 0
DWIDTH 18 0
BBX 15 17 1 0
BITMAP
07E0
1FF0
3EFC
781C
700E
000E
000E
0006
FFFE
FFFE
E00E
600E
700E
781C
3FF8
1FF0
07E0
ENDCHAR
STARTCHAR char702
ENCODING 702
SWIDTH 10 0
DWIDTH 14 0
BBX 10 12 2 10
BITMAP
1E00
7F80
7380
E1C0
C0C0
00C0
00C0
00C0
E1C0
6380
7F80
3F00
ENDCHAR
STARTCHAR char703
ENCODING 703
SWIDTH 10 0
DWIDTH 14 0
BBX 10 12 2 10
BITMAP
1F00
3F80
71C0
60C0
E0C0
E000
E000
E000
E0C0
71C0
3F80
1F00
ENDCHAR
STARTCHAR char710
ENCODING 710
SWIDTH 2 0
DWIDTH 11 0
BBX 9 5 1 18
BITMAP
3C00
3E00
7600
6300
C380
ENDCHAR
STARTCHAR char711
ENCODING 711
SWIDTH 2 0
DWIDTH 11 0
BBX 9 5 1 18
BITMAP
C380
6300
7600
3E00
3C00
ENDCHAR
STARTCHAR char728
ENCODING 728
SWIDTH 2 0
DWIDTH 11 0
BBX 10 4 0 19
BITMAP
C0C0
61C0
7F80
3F00
ENDCHAR
STARTCHAR char729
ENCODING 729
SWIDTH 2 0
DWIDTH 11 0
BBX 3 3 4 19
BITMAP
E0
E0
E0
ENDCHAR
STARTCHAR char730
ENCODING 730
SWIDTH 2 0
DWIDTH 11 0
BBX 6 6 2 18
BITMAP
38
7C
C4
C4
7C
38
ENDCHAR
STARTCHAR char731
ENCODING 731
SWIDTH 2 0
DWIDTH 11 0
BBX 6 8 3 -8
BITMAP
30
60
60
E0
E0
7C
7C
0C
ENDCHAR
STARTCHAR char732
ENCODING 732
SWIDTH 2 0
DWIDTH 11 0
BBX 10 3 0 19
BITMAP
78C0
7FC0
CF80
ENDCHAR
STARTCHAR char733
ENCODING 733
SWIDTH 2 0
DWIDTH 11 0
BBX 11 5 2 18
BITMAP
3DE0
39C0
7380
E300
C600
ENDCHAR
STARTCHAR char768
ENCODING 768
SWIDTH 0 0
DWIDTH 0 0
BBX 6 5 -14 18
BITMAP
E0
70
38
18
0C
ENDCHAR
STARTCHAR char769
ENCODING 769
SWIDTH 0 0
DWIDTH 0 0
BBX 6 5 -10 18
BITMAP
1C
38
30
60
C0
ENDCHAR
STARTCHAR char770
ENCODING 770
SWIDTH 0 0
DWIDTH 0 0
BBX 8 5 -13 18
BITMAP
3C
3E
76
E7
C3
ENDCHAR
STARTCHAR char771
ENCODING 771
SWIDTH 0 0
DWIDTH 0 0
BBX 10 3 -14 19
BITMAP
78C0
FFC0
CF80
ENDCHAR
STARTCHAR char772
ENCODING 772
SWIDTH 0 0
DWIDTH 0 0
BBX 8 2 -13 20
BITMAP
FF
FF
ENDCHAR
STARTCHAR char774
ENCODING 774
SWIDTH 0 0
DWIDTH 0 0
BBX 10 4 -14 19
BITMAP
C0C0
E1C0
7F80
3F00
ENDCHAR
STARTCHAR char775
ENCODING 775
SWIDTH 0 0
DWIDTH 0 0
BBX 4 3 -11 19
BITMAP
F0
F0
F0
ENDCHAR
STARTCHAR char776
ENCODING 776
SWIDTH 0 0
DWIDTH 0 0
BBX 8 3 -13 19
BITMAP
E7
E7
E7
ENDCHAR
STARTCHAR char777
ENCODING 777
SWIDTH 0 0
DWIDTH 0 0
BBX 8 7 -13 18
BITMAP
3C
7E
63
C7
0E
18
18
ENDCHAR
STARTCHAR char778
ENCODING 778
SWIDTH 0 0
DWIDTH 0 0
BBX 6 6 -12 18
BITMAP
78
FC
C4
C4
FC
78
ENDCHAR
STARTCHAR char779
ENCODING 779
SWIDTH 0 0
DWIDTH 0 0
BBX 12 5 -13 18
BITMAP
1CF0
38E0
31C0
6380
C300
ENDCHAR
STARTCHAR char780
ENCODING 780
SWIDTH 0 0
DWIDTH 0 0
BBX 8 5 -13 18
BITMAP
C3
E7
76
3E
3C
ENDCHAR
STARTCHAR char783
ENCODING 783
SWIDTH 0 0
DWIDTH 0 0
BBX 11 5 -16 18
BITMAP
E700
F380
7180
38C0
1860
ENDCHAR
STARTCHAR char785
ENCODING 785
SWIDTH 0 0
DWIDTH 0 0
BBX 10 4 -14 19
BITMAP
3F00
7F80
E1C0
C0C0
ENDCHAR
STARTCHAR char803
ENCODING 803
SWIDTH 0 0
DWIDTH 0 0
BBX 4 3 -11 -6
BITMAP
F0
F0
F0
ENDCHAR
STARTCHAR char806
ENCODING 806
SWIDTH 0 0
DWIDTH 0 0
BBX 3 7 -10 -9
BITMAP
E0
E0
E0
60
60
40
C0
ENDCHAR
STARTCHAR char814
ENCODING 814
SWIDTH 0 0
DWIDTH 0 0
BBX 12 4 -15 -6
BITMAP
E070
79E0
7FE0
1F80
ENDCHAR
STARTCHAR char815
ENCODING 815
SWIDTH 0 0
DWIDTH 0 0
BBX 12 4 -15 -6
BITMAP
1F80
7FE0
78F0
E070
ENDCHAR
STARTCHAR char816
ENCODING 816
SWIDTH 0 0
DWIDTH 0 0
BBX 10 3 -14 -6
BITMAP
7CC0
FF80
C780
ENDCHAR
STARTCHAR char817
ENCODING 817
SWIDTH 0 0
DWIDTH 0 0
BBX 8 2 -13 -5
BITMAP
FF
FF
ENDCHAR
STARTCHAR char818
ENCODING 818
SWIDTH 0 0
DWIDTH 0 0
BBX 8 2 -13 -5
BITMAP
FF
FF
ENDCHAR
STARTCHAR char913
ENCODING 913
SWIDTH 2 0
DWIDTH 21 0
BBX 20 23 1 0
BITMAP
00F000
01F000
01F800
01F800
03B800
039C00
079C00
071C00
070E00
0E0E00
0E0E00
0E0700
1C0700
1C0780
1FFF80
3FFF80
3803C0
3801C0
7001C0
7001E0
F000E0
E000E0
E000F0
ENDCHAR
STARTCHAR char914
ENCODING 914
SWIDTH 2 0
DWIDTH 21 0
BBX 17 23 3 0
BITMAP
FFF000
FFFC00
FFFE00
E00E00
E00700
E00700
E00700
E00700
E00E00
E01E00
FFF800
FFFC00
FFFE00
E00700
E00380
E00380
E00380
E00380
E00780
E00700
FFFF00
FFFE00
FFF800
ENDCHAR
STARTCHAR char915
ENCODING 915
SWIDTH 27 0
DWIDTH 20 0
BBX 16 23 3 0
BITMAP
FFFF
FFFF
FFFF
E000
E000
E000
E000
E000
E000
E000
E000
E000
E000
E000
E000
E000
E000
E000
E000
E000
E000
E000
E000
ENDCHAR
STARTCHAR char916
ENCODING 916
SWIDTH 7 0
DWIDTH 23 0
BBX 23 23 0 0
BITMAP
003800
007800
007C00
007C00
00EE00
00EE00
01C600
01C700
038700
038380
070380
0701C0
0601C0
0E00E0
0E00E0
1C0060
1C0070
380070
380038
700038
7FFFFC
7FFFFC
FFFFFE
ENDCHAR
STARTCHAR char917
ENCODING 917
SWIDTH 2 0
DWIDTH 21 0
BBX 17 23 3 0
BITMAP
FFFF00
FFFF00
FFFF00
E00000
E00000
E00000
E00000
E00000
E00000
E00000
FFFF00
FFFF00
FFFF00
E00000
E00000
E00000
E00000
E00000
E00000
E00000
FFFF80
FFFF80
FFFF80
ENDCHAR
STARTCHAR char918
ENCODING 918
SWIDTH 27 0
DWIDTH 20 0
BBX 18 23 1 0
BITMAP
7FFFC0
7FFFC0
7FFFC0
000780
000F00
000E00
001E00
003C00
007800
00F000
00E000
01E000
03C000
078000
070000
0E0000
1E0000
3C0000
780000
700000
FFFFC0
FFFFC0
FFFFC0
ENDCHAR
STARTCHAR char919
ENCODING 919
SWIDTH 7 0
DWIDTH 23 0
BBX 18 23 3 0
BITMAP
E001C0
E001C0
E001C0
E001C0
E001C0
E001C0
E001C0
E001C0
E001C0
E001C0
FFFFC0
FFFFC0
FFFFC0
E001C0
E001C0
E001C0
E001C0
E001C0
E001C0
E001C0
E001C0
E001C0
E001C0
ENDCHAR
STARTCHAR char920
ENCODING 920
SWIDTH 13 0
DWIDTH 25 0
BBX 23 23 1 0
BITMAP
00FE00
07FF80
0FFFE0
1F01F0
3C0078
380038
70003C
70001C
70001C
E0000E
E7FFCE
E7FFCE
E7FFCE
E0000E
F0001C
70001C
70001C
380038
3C0078
1E01F0
0FFFE0
07FF80
00FE00
ENDCHAR
STARTCHAR char921
ENCODING 921
SWIDTH 25 0
DWIDTH 9 0
BBX 3 23 3 0
BITMAP
E0
E0
E0
E0
E0
E0
E0
E0
E0
E0
E0
E0
E0
E0
E0
E0
E0
E0
E0
E0
E0
E0
E0
ENDCHAR
STARTCHAR char922
ENCODING 922
SWIDTH 2 0
DWIDTH 21 0
BBX 18 23 3 0
BITMAP
E00380
E00700
E00E00
E01C00
E03800
E07000
E0E000
E1C000
E38000
E78000
EF8000
FFC000
F9E000
F0E000
E07000
E07800
E03800
E01C00
E01E00
E00F00
E00700
E00780
E003C0
ENDCHAR
STARTCHAR char923
ENCODING 923
SWIDTH 2 0
DWIDTH 21 0
BBX 20 23 1 0
BITMAP
00F000
01F000
01F800
01F800
03B800
039C00
079C00
071C00
070E00
0F0E00
0E0E00
0E0700
1C0700
1C0780
1C0380
380380
3803C0
3801C0
7001C0
7001E0
F000E0
E000E0
E000F0
ENDCHAR
STARTCHAR char924
ENCODING 924
SWIDTH 18 0
DWIDTH 27 0
BBX 22 23 2 0
BITMAP
F8003C
F8003C
F8007C
FC007C
FC006C
EC00EC
EE00EC
EE00CC
E601CC
E701CC
E3018C
E3838C
E3838C
E1830C
E1C70C
E1C70C
E0C60C
E0EE0C
E0EE0C
E06C0C
E07C0C
E0780C
E0380C
ENDCHAR
STARTCHAR char925
ENCODING 925
SWIDTH 7 0
DWIDTH 23 0
BBX 19 23 2 0
BITMAP
F000E0
F800E0
F800E0
FC00E0
FE00E0
EE00E0
E700E0
E780E0
E380E0
E1C0E0
E1C0E0
E0E0E0
E0F0E0
E070E0
E038E0
E03CE0
E01CE0
E00EE0
E00FE0
E007E0
E003E0
E003E0
E001E0
ENDCHAR
STARTCHAR char926
ENCODING 926
SWIDTH 7 0
DWIDTH 23 0
BBX 21 23 1 0
BITMAP
FFFFF8
FFFFF8
FFFFF8
000000
000000
000000
000000
000000
000000
000000
1FFFC0
1FFFC0
1FFFC0
000000
000000
000000
000000
000000
000000
000000
FFFFF8
FFFFF8
FFFFF8
ENDCHAR
STARTCHAR char927
ENCODING 927
SWIDTH 13 0
DWIDTH 25 0
BBX 23 23 1 0
BITMAP
00FE00
03FF80
0FFFE0
1F01F0
3C0078
380038
70003C
70001C
70001C
E0000E
E0000E
E0000E
E0000E
E0000E
F0001C
70001C
70001C
380038
3C0078
1E01F0
0FFFE0
07FFC0
00FE00
ENDCHAR
STARTCHAR char928
ENCODING 928
SWIDTH 27 0
DWIDTH 20 0
BBX 18 23 1 0
BITMAP
FFFFC0
FFFFC0
FFFFC0
E001C0
E001C0
E001C0
E001C0
E001C0
E001C0
E001C0
E001C0
E001C0
E001C0
E001C0
E001C0
E001C0
E001C0
E001C0
E001C0
E001C0
E001C0
E001C0
E001C0
ENDCHAR
STARTCHAR char929
ENCODING 929
SWIDTH 2 0
DWIDTH 21 0
BBX 17 23 3 0
BITMAP
FFF800
FFFE00
FFFF00
E00F00
E00700
E00780
E00380
E00780
E00700
E00F00
FFFF00
FFFE00
FFF800
E00000
E00000
E00000
E00000
E00000
E00000
E00000
E00000
E00000
E00000
ENDCHAR
STARTCHAR char931
ENCODING 931
SWIDTH 24 0
DWIDTH 19 0
BBX 17 23 1 0
BITMAP
FFFF80
FFFF80
FFFF80
780000
3C0000
1E0000
0F0000
078000
03C000
01E000
00F000
007800
00F000
01E000
03C000
078000
0F0000
1E0000
3C0000
780000
FFFF80
FFFF80
FFFF80
ENDCHAR
STARTCHAR char932
ENCODING 932
SWIDTH 27 0
DWIDTH 20 0
BBX 18 23 1 0
BITMAP
FFFFC0
FFFFC0
FFFFC0
01C000
01C000
01C000
01C000
01C000
01C000
01C000
01C000
01C000
01C000
01C000
01C000
01C000
01C000
01C000
01C000
01C000
01C000
01C000
01C000
ENDCHAR
STARTCHAR char933
ENCODING 933
SWIDTH 2 0
DWIDTH 21 0
BBX 20 23 1 0
BITMAP
E000F0
F000E0
7801E0
3801C0
3C0380
1C0780
0E0700
0F0E00
070E00
039C00
03FC00
01F800
01F000
00F000
00E000
00E000
00E000
00E000
00E000
00E000
00E000
00E000
00E000
ENDCHAR
STARTCHAR char934
ENCODING 934
SWIDTH 10 0
DWIDTH 24 0
BBX 20 23 2 0
BITMAP
007000
007000
007000
007000
007000
07FE00
1FFF80
3E73E0
7870E0
707070
E07070
E07070
E07070
707070
7070E0
3C73E0
1FFF80
07FE00
007000
007000
007000
007000
007000
ENDCHAR
STARTCHAR char935
ENCODING 935
SWIDTH 2 0
DWIDTH 21 0
BBX 19 23 1 0
BITMAP
7001E0
7801C0
3803C0
1C0780
1E0700
0E0F00
071E00
079C00
03B800
01F800
01F000
00F000
01F000
03F800
03BC00
071E00
0F0E00
0E0F00
1C0780
3C0380
7803C0
7001E0
F000E0
ENDCHAR
STARTCHAR char936
ENCODING 936
SWIDTH 10 0
DWIDTH 24 0
BBX 20 23 2 0
BITMAP
E0E070
E0E070
E0E070
E0E070
E0E070
E0E070
E0E070
E0E070
E0E060
70E0E0
70E0E0
38E1C0
3CE380
1FFF00
07FE00
01F800
00E000
00E000
00E000
00E000
00E000
00E000
00E000
ENDCHAR
STARTCHAR char937
ENCODING 937
SWIDTH 10 0
DWIDTH 24 0
BBX 22 23 1 0
BITMAP
00FC00
03FF00
0FFFC0
1F03E0
1C00F0
380070
380078
700038
700038
700038
700038
700038
780038
380070
3C00F0
1E01E0
0F83C0
078780
038700
038700
FF87FC
FF87FC
FF87FC
ENDCHAR
STARTCHAR char945
ENCODING 945
SWIDTH 13 0
DWIDTH 25 0
BBX 20 18 2 -1
BITMAP
03F030
0FF870
1E3C70
380E60
7007E0
7007E0
E003C0
E003C0
E001C0
E001C0
E003C0
6003C0
7007E0
780EE0
3E1E60
1FFC70
07F030
000020
ENDCHAR
STARTCHAR char946
ENCODING 946
SWIDTH 22 0
DWIDTH 18 0
BBX 14 30 2 -7
BITMAP
0FC0
3FF0
7FF0
7038
E038
E018
E038
E038
E070
E3E0
E3E0
E3F8
E03C
E01C
E01C
E00C
E00C
E01C
E01C
F03C
FFF8
FFF0
E7C0
E000
E000
E000
E000
E000
E000
E000
ENDCHAR
STARTCHAR char947
ENCODING 947
SWIDTH 2 0
DWIDTH 21 0
BBX 16 24 2 -7
BITMAP
E007
7007
7006
300E
380E
381C
1C1C
1C18
0C38
0E38
0E70
0770
0760
03E0
03E0
03C0
01C0
01C0
01C0
01C0
01C0
01C0
01C0
01C0
ENDCHAR
STARTCHAR char948
ENCODING 948
SWIDTH 22 0
DWIDTH 18 0
BBX 16 23 1 0
BITMAP
03E0
0FF8
0E38
0C00
0C00
0E00
0F00
0780
03C0
07F0
1FF8
3C3C
701E
F00E
E00E
E007
E00E
E00E
700E
781C
3FFC
1FF8
07E0
ENDCHAR
STARTCHAR char949
ENCODING 949
SWIDTH 24 0
DWIDTH 19 0
BBX 15 19 2 -1
BITMAP
07C0
1FFC
3FFE
7004
6000
6000
7000
7800
1FE0
3FE0
7800
E000
E000
E000
6000
7000
3F3E
1FFE
07F0
ENDCHAR
STARTCHAR char950
ENCODING 950
SWIDTH 19 0
DWIDTH 17 0
BBX 14 30 2 -7
BITMAP
FFFC
FFFC
01C0
0700
0E00
1C00
1800
3800
7000
7000
6000
E000
E000
E000
E000
E000
E000
6000
7000
3800
3F80
1FF0
07F8
0038
001C
001C
0018
0038
0070
0060
ENDCHAR
STARTCHAR char951
ENCODING 951
SWIDTH 22 0
DWIDTH 18 0
BBX 14 24 2 -7
BITMAP
E3E0
EFF0
F838
F038
F01C
E01C
E01C
E01C
E01C
E01C
E01C
E01C
E01C
E01C
E01C
E01C
E01C
001C
001C
001C
001C
001C
001C
0004
ENDCHAR
STARTCHAR char952
ENCODING 952
SWIDTH 24 0
DWIDTH 19 0
BBX 14 24 2 0
BITMAP
0380
0FE0
1FF0
3830
3038
7018
601C
601C
E00C
E00C
E00C
E00C
FFFC
FFFC
E00C
E00C
E00C
601C
601C
7018
3038
3C70
1FF0
0FC0
ENDCHAR
STARTCHAR char953
ENCODING 953
SWIDTH 2 0
DWIDTH 11 0
BBX 5 17 4 0
BITMAP
E0
E0
E0
E0
E0
E0
E0
E0
E0
E0
E0
E0
E0
60
70
38
18
ENDCHAR
STARTCHAR char954
ENCODING 954
SWIDTH 16 0
DWIDTH 16 0
BBX 14 17 2 0
BITMAP
E078
E0F0
E1E0
E3C0
E780
EF00
FF00
FF00
F380
E380
E1C0
E1E0
E0E0
E070
E078
E038
E03C
ENDCHAR
STARTCHAR char955
ENCODING 955
SWIDTH 4 0
DWIDTH 22 0
BBX 18 23 2 0
BITMAP
1C0000
1F0000
078000
01C000
01E000
00E000
006000
007000
007000
00F800
00F800
01D800
039C00
039C00
070E00
070E00
0E0E00
1C0700
1C0700
380300
380380
700380
E001C0
ENDCHAR
STARTCHAR char956
ENCODING 956
SWIDTH 4 0
DWIDTH 22 0
BBX 14 24 4 -7
BITMAP
E01C
E01C
E01C
E01C
E01C
E01C
E01C
E01C
E01C
E01C
E01C
E01C
F03C
F03C
FCFC
FFFC
E7DC
E000
E000
E000
E000
E000
E000
E000
ENDCHAR
STARTCHAR char957
ENCODING 957
SWIDTH 22 0
DWIDTH 18 0
BBX 16 17 1 0
BITMAP
E007
7007
7007
3007
3803
3803
1C07
1C07
0E07
0E06
060E
070E
071C
03B8
03F0
01E0
01C0
ENDCHAR
STARTCHAR char958
ENCODING 958
SWIDTH 22 0
DWIDTH 18 0
BBX 14 30 2 -7
BITMAP
FFFC
FFFC
3C00
7000
7000
6000
6000
7000
3800
3F80
0F80
3F80
7800
7000
E000
E000
E000
E000
7000
7000
3F80
1FF0
07F8
0038
001C
001C
0018
0038
0070
0060
ENDCHAR
STARTCHAR char959
ENCODING 959
SWIDTH 22 0
DWIDTH 18 0
BBX 15 17 1 0
BITMAP
07E0
1FF8
3FFC
781C
700E
E00E
E00E
E00E
E006
E00E
E00E
E00E
700E
781C
3FFC
1FF8
07E0
ENDCHAR
STARTCHAR char960
ENCODING 960
SWIDTH 2 0
DWIDTH 21 0
BBX 20 17 1 0
BITMAP
1FFFF0
7FFFF0
730300
E30300
C30300
C30300
030300
030300
030300
030300
030300
030300
030300
030300
030300
030300
030300
ENDCHAR
STARTCHAR char961
ENCODING 961
SWIDTH 27 0
DWIDTH 20 0
BBX 16 24 2 -6
BITMAP
0FF0
1FF8
3C3C
780E
700E
6007
E007
E007
E003
E007
E007
E007
E00E
F01E
FE7C
FFF8
E7E0
E000
E000
E000
E000
E000
E000
E000
ENDCHAR
STARTCHAR char962
ENCODING 962
SWIDTH 22 0
DWIDTH 18 0
BBX 14 24 2 -7
BITMAP
07C0
1FF0
3C70
7838
7018
6000
E000
E000
E000
E000
E000
6000
7000
3800
3F80
1FF0
07F8
0038
001C
001C
0018
0038
0070
0060
ENDCHAR
STARTCHAR char963
ENCODING 963
SWIDTH 2 0
DWIDTH 21 0
BBX 17 18 2 0
BITMAP
000180
07FF80
1FFF00
3FF800
781C00
700E00
E00E00
E00E00
E00E00
E00600
E00E00
E00E00
E00E00
700E00
781C00
3FFC00
1FF000
07E000
ENDCHAR
STARTCHAR char964
ENCODING 964
SWIDTH 16 0
DWIDTH 16 0
BBX 12 17 2 0
BITMAP
FFF0
FFF0
FFF0
0600
0600
0600
0600
0600
0600
0600
0600
0600
0600
0700
0700
0380
0180
ENDCHAR
STARTCHAR char965
ENCODING 965
SWIDTH 22 0
DWIDTH 18 0
BBX 14 17 2 0
BITMAP
E038
E038
E038
E018
E018
E018
E01C
E01C
E01C
E01C
E018
E038
E038
7070
78F0
3FE0
1F80
ENDCHAR
STARTCHAR char966
ENCODING 966
SWIDTH 18 0
DWIDTH 27 0
BBX 23 24 2 -6
BITMAP
0603F0
1E07F8
3C0E1C
381C1C
701C0E
60180E
E0180E
E03806
E03806
E0380E
E0380E
70381E
78383C
3E3878
1FFFF0
07FFC0
00FF00
003800
003800
003800
003800
003800
003800
003800
ENDCHAR
STARTCHAR char967
ENCODING 967
SWIDTH 2 0
DWIDTH 21 0
BBX 16 24 2 -7
BITMAP
E007
7007
380E
380E
1C1C
1C38
0E38
0E70
0770
07E0
03E0
01C0
01C0
03E0
07E0
0770
0E70
0E38
1C38
1C1C
380E
380E
7007
E007
ENDCHAR
STARTCHAR char968
ENCODING 968
SWIDTH 7 0
DWIDTH 23 0
BBX 19 30 2 -7
BITMAP
00E000
00E000
00E000
00E000
00E000
00E000
E0E0E0
E0E0E0
E0E0E0
E0E0E0
E0E0E0
E0E0E0
E0E0E0
E0E0E0
E0E0E0
E0E0E0
E0E0E0
E0E0E0
E0E0E0
70E1C0
7CE7C0
1FFF00
07FC00
00E000
00E000
00E000
00E000
00E000
00E000
00E000
ENDCHAR
STARTCHAR char969
ENCODING 969
SWIDTH 10 0
DWIDTH 24 0
BBX 20 17 2 0
BITMAP
3000C0
300060
600060
600060
600070
E00070
E06070
E06070
E06070
E07070
E07070
607070
60F060
70F8E0
3BFDC0
3F9FC0
0F0F80
ENDCHAR
STARTCHAR char977
ENCODING 977
SWIDTH 27 0
DWIDTH 20 0
BBX 16 25 2 0
BITMAP
0380
1FE0
38F0
7030
6038
6018
601C
601C
701C
3E1C
0FFF
01FF
001C
E01C
E01C
E01C
E01C
E01C
E01C
E01C
E018
7038
7FF0
3FE0
0FC0
ENDCHAR
STARTCHAR char981
ENCODING 981
SWIDTH 4 0
DWIDTH 22 0
BBX 18 30 2 -7
BITMAP
00E000
00E000
00E000
00E000
00E000
00E000
03F000
0FFC00
1FFF00
3CE780
78E380
70E1C0
E0E1C0
E0E0C0
E0E0C0
E0E1C0
E0E1C0
70E1C0
70E380
38E780
1FFF00
0FFE00
07F800
00E000
00E000
00E000
00E000
00E000
00E000
00E000
ENDCHAR
STARTCHAR char982
ENCODING 982
SWIDTH 10 0
DWIDTH 24 0
BBX 20 22 2 0
BITMAP
03FC00
1FFF00
080380
000180
0000C0
3000E0
300060
600060
600070
600070
E00070
E06070
E06070
E06070
E07070
E07070
607070
60F060
70F8E0
3BFDC0
3F9FC0
0F0F80
ENDCHAR
STARTCHAR char1009
ENCODING 1009
SWIDTH 27 0
DWIDTH 20 0
BBX 15 25 2 -8
BITMAP
07E0
1FF8
3FFC
781C
700E
E00E
E00E
E00E
E006
E00E
E00E
E00E
F00E
F81C
7FFC
7FF0
77E0
3800
3C00
1F80
0FF0
03FC
001E
000E
0006
ENDCHAR
STARTCHAR char1013
ENCODING 1013
SWIDTH 16 0
DWIDTH 16 0
BBX 14 17 1 0
BITMAP
07C0
1FF0
3EF8
703C
7000
E000
E000
FFC0
FFC0
E000
E000
E000
701C
783C
3EF8
1FF0
07C0
ENDCHAR
STARTCHAR char3647
ENCODING 3647
SWIDTH 2 0
DWIDTH 21 0
BBX 17 29 3 -3
BITMAP
010000
010000
010000
FFF000
FFFC00
FFFE00
E10E00
E10700
E10700
E10700
E10700
E10E00
E11E00
FFF800
FFFC00
FFFE00
E10700
E10780
E10380
E10380
E10380
E10780
E10700
FFFF00
FFFE00
FFF800
010000
010000
010000
ENDCHAR
STARTCHAR char7692
ENCODING 7692
SWIDTH 7 0
DWIDTH 23 0
BBX 18 29 3 -6
BITMAP
FFF000
FFFC00
FFFE00
E00F00
E00780
E00380
E003C0
E001C0
E001C0
E001C0
E001C0
E001C0
E001C0
E001C0
E001C0
E001C0
E003C0
E00380
E00780
E00F00
FFFE00
FFFC00
FFF000
000000
000000
000000
01C000
01C000
01C000
ENDCHAR
STARTCHAR char7693
ENCODING 7693
SWIDTH 22 0
DWIDTH 18 0
BBX 15 28 1 -5
BITMAP
000E
000E
000E
000E
000E
000E
0FCE
1FEE
3FFE
783E
F01E
E00E
E00E
E00E
E00E
E00E
E00E
E00E
F01E
783E
3EFE
1FEE
0FCE
0000
0000
03C0
03C0
03C0
ENDCHAR
STARTCHAR char7694
ENCODING 7694
SWIDTH 7 0
DWIDTH 23 0
BBX 18 28 3 -5
BITMAP
FFF000
FFFC00
FFFE00
E00F00
E00780
E00380
E003C0
E001C0
E001C0
E001C0
E001C0
E001C0
E001C0
E001C0
E001C0
E001C0
E003C0
E00380
E00780
E00F00
FFFE00
FFFC00
FFF000
000000
000000
000000
0FF800
0FF800
ENDCHAR
STARTCHAR char7695
ENCODING 7695
SWIDTH 22 0
DWIDTH 18 0
BBX 15 28 1 -5
BITMAP
000E
000E
000E
000E
000E
000E
0FCE
1FEE
3FFE
783E
F01E
E00E
E00E
E00E
E00E
E00E
E00E
E00E
F01E
783E
3EFE
1FEE
0FCE
0000
0000
0000
1FF0
1FF0
ENDCHAR
STARTCHAR char7716
ENCODING 7716
SWIDTH 7 0
DWIDTH 23 0
BBX 18 29 3 -6
BITMAP
E001C0
E001C0
E001C0
E001C0
E001C0
E001C0
E001C0
E001C0
E001C0
E001C0
FFFFC0
FFFFC0
FFFFC0
E001C0
E001C0
E001C0
E001C0
E001C0
E001C0
E001C0
E001C0
E001C0
E001C0
000000
000000
000000
01C000
01C000
01C000
ENDCHAR
STARTCHAR char7717
ENCODING 7717
SWIDTH 22 0
DWIDTH 18 0
BBX 14 29 2 -6
BITMAP
E000
E000
E000
E000
E000
E000
E3E0
EFF0
FE78
F038
F01C
E01C
E01C
E01C
E01C
E01C
E01C
E01C
E01C
E01C
E01C
E01C
E01C
0000
0000
0000
0780
0780
0780
ENDCHAR
STARTCHAR char7718
ENCODING 7718
SWIDTH 7 0
DWIDTH 23 0
BBX 18 28 3 0
BITMAP
063800
063800
063800
000000
000000
E001C0
E001C0
E001C0
E001C0
E001C0
E001C0
E001C0
E001C0
E001C0
E001C0
FFFFC0
FFFFC0
FFFFC0
E001C0
E001C0
E001C0
E001C0
E001C0
E001C0
E001C0
E001C0
E001C0
E001C0
ENDCHAR
STARTCHAR char7719
ENCODING 7719
SWIDTH 22 0
DWIDTH 18 0
BBX 14 28 2 0
BITMAP
1CE0
1CE0
1CE0
0000
0000
E000
E000
E000
E000
E000
E000
E3E0
EFF0
FE78
F038
F01C
E01C
E01C
E01C
E01C
E01C
E01C
E01C
E01C
E01C
E01C
E01C
E01C
ENDCHAR
STARTCHAR char7722
ENCODING 7722
SWIDTH 7 0
DWIDTH 23 0
BBX 18 29 3 -6
BITMAP
E001C0
E001C0
E001C0
E001C0
E001C0
E001C0
E001C0
E001C0
E001C0
E001C0
FFFFC0
FFFFC0
FFFFC0
E001C0
E001C0
E001C0
E001C0
E001C0
E001C0
E001C0
E001C0
E001C0
E001C0
000000
000000
180C00
1E3C00
0FF800
07F000
ENDCHAR
STARTCHAR char7723
ENCODING 7723
SWIDTH 22 0
DWIDTH 18 0
BBX 14 29 2 -6
BITMAP
E000
E000
E000
E000
E000
E000
E3E0
EFF0
FE78
F038
F01C
E01C
E01C
E01C
E01C
E01C
E01C
E01C
E01C
E01C
E01C
E01C
E01C
0000
0000
7038
78F0
3FF0
0FC0
ENDCHAR
STARTCHAR char7726
ENCODING 7726
SWIDTH 25 0
DWIDTH 9 0
BBX 10 34 1 0
BITMAP
03C0
0700
0E00
1C00
0000
0000
E700
E700
E700
0000
0000
3800
3800
3800
3800
3800
3800
3800
3800
3800
3800
3800
3800
3800
3800
3800
3800
3800
3800
3800
3800
3800
3800
3800
ENDCHAR
STARTCHAR char7727
ENCODING 7727
SWIDTH 25 0
DWIDTH 9 0
BBX 11 28 0 0
BITMAP
03E0
0780
0700
0C00
0000
0000
E380
E380
E380
0000
0000
1C00
1C00
1C00
1C00
1C00
1C00
1C00
1C00
1C00
1C00
1C00
1C00
1C00
1C00
1C00
1C00
1C00
ENDCHAR
STARTCHAR char7734
ENCODING 7734
SWIDTH 22 0
DWIDTH 18 0
BBX 14 29 3 -6
BITMAP
E000
E000
E000
E000
E000
E000
E000
E000
E000
E000
E000
E000
E000
E000
E000
E000
E000
E000
E000
E000
FFFC
FFFC
FFFC
0000
0000
0000
0700
0700
0700
ENDCHAR
STARTCHAR char7735
ENCODING 7735
SWIDTH 19 0
DWIDTH 7 0
BBX 3 29 2 -6
BITMAP
E0
E0
E0
E0
E0
E0
E0
E0
E0
E0
E0
E0
E0
E0
E0
E0
E0
E0
E0
E0
E0
E0
E0
00
00
00
E0
E0
E0
ENDCHAR
STARTCHAR char7736
ENCODING 7736
SWIDTH 22 0
DWIDTH 18 0
BBX 17 34 0 -6
BITMAP
FF0000
FF0000
000000
000000
000000
1C0000
1C0000
1C0000
1C0000
1C0000
1C0000
1C0000
1C0000
1C0000
1C0000
1C0000
1C0000
1C0000
1C0000
1C0000
1C0000
1C0000
1C0000
1C0000
1C0000
1FFF80
1FFF80
1FFF80
000000
000000
000000
00E000
00E000
00E000
ENDCHAR
STARTCHAR char7737
ENCODING 7737
SWIDTH 19 0
DWIDTH 7 0
BBX 9 34 -1 -6
BITMAP
FF80
FF80
0000
0000
0000
1C00
1C00
1C00
1C00
1C00
1C00
1C00
1C00
1C00
1C00
1C00
1C00
1C00
1C00
1C00
1C00
1C00
1C00
1C00
1C00
1C00
1C00
1C00
0000
0000
0000
1C00
1C00
1C00
ENDCHAR
STARTCHAR char7746
ENCODING 7746
SWIDTH 18 0
DWIDTH 27 0
BBX 22 29 2 -6
BITMAP
F8003C
F8003C
F8007C
FC007C
FC006C
EC00EC
EE00EC
EE00CC
E601CC
E701CC
E3018C
E3838C
E3838C
E1830C
E1C70C
E1C70C
E0C60C
E0EE0C
E0EE0C
E06C0C
E07C0C
E0780C
E0380C
000000
000000
000000
003800
003800
003800
ENDCHAR
STARTCHAR char7747
ENCODING 7747
SWIDTH 18 0
DWIDTH 27 0
BBX 22 23 2 -6
BITMAP
E7C1F0
EFF7F8
F87E1C
F03C1C
E0380C
E0380C
E0380C
E0380C
E0380C
E0380C
E0380C
E0380C
E0380C
E0380C
E0380C
E0380C
E0380C
000000
000000
000000
003800
003800
003800
ENDCHAR
STARTCHAR char7748
ENCODING 7748
SWIDTH 7 0
DWIDTH 23 0
BBX 19 28 2 0
BITMAP
00E000
00E000
00E000
000000
000000
F000E0
F800E0
F800E0
FC00E0
FE00E0
EE00E0
E700E0
E780E0
E380E0
E1C0E0
E1C0E0
E0E0E0
E0F0E0
E070E0
E038E0
E03CE0
E01CE0
E00EE0
E00FE0
E007E0
E003E0
E003E0
E001E0
ENDCHAR
STARTCHAR char7749
ENCODING 7749
SWIDTH 22 0
DWIDTH 18 0
BBX 14 22 2 0
BITMAP
0780
0780
0780
0000
0000
E3E0
EFF0
F838
F038
F01C
E01C
E01C
E01C
E01C
E01C
E01C
E01C
E01C
E01C
E01C
E01C
E01C
ENDCHAR
STARTCHAR char7750
ENCODING 7750
SWIDTH 7 0
DWIDTH 23 0
BBX 19 29 2 -6
BITMAP
F000E0
F800E0
F800E0
FC00E0
FE00E0
EE00E0
E700E0
E780E0
E380E0
E1C0E0
E1C0E0
E0E0E0
E0F0E0
E070E0
E038E0
E03CE0
E01CE0
E00EE0
E00FE0
E007E0
E003E0
E003E0
E001E0
000000
000000
000000
00E000
00E000
00E000
ENDCHAR
STARTCHAR char7751
ENCODING 7751
SWIDTH 22 0
DWIDTH 18 0
BBX 14 23 2 -6
BITMAP
E3E0
EFF0
F838
F038
F01C
E01C
E01C
E01C
E01C
E01C
E01C
E01C
E01C
E01C
E01C
E01C
E01C
0000
0000
0000
0780
0780
0780
ENDCHAR
STARTCHAR char7768
ENCODING 7768
SWIDTH 7 0
DWIDTH 23 0
BBX 19 28 3 0
BITMAP
01C000
01C000
01C000
000000
000000
FFFC00
FFFF00
FFFF80
E00780
E003C0
E001C0
E001C0
E001C0
E00380
E00380
FFFF00
FFFC00
FFFF00
E00780
E00380
E00380
E00380
E00380
E00380
E00380
E003C0
E001C0
E001E0
ENDCHAR
STARTCHAR char7769
ENCODING 7769
SWIDTH 2 0
DWIDTH 11 0
BBX 8 22 2 0
BITMAP
78
78
78
00
00
E7
EF
FE
F0
F0
E0
E0
E0
E0
E0
E0
E0
E0
E0
E0
E0
E0
ENDCHAR
STARTCHAR char7770
ENCODING 7770
SWIDTH 7 0
DWIDTH 23 0
BBX 19 29 3 -6
BITMAP
FFFC00
FFFF00
FFFF80
E00780
E003C0
E001C0
E001C0
E001C0
E00380
E00380
FFFF00
FFFC00
FFFF00
E00780
E00380
E00380
E00380
E00380
E00380
E00380
E003C0
E001C0
E001E0
000000
000000
000000
01C000
01C000
01C000
ENDCHAR
STARTCHAR char7771
ENCODING 7771
SWIDTH 2 0
DWIDTH 11 0
BBX 8 23 2 -6
BITMAP
E7
EF
FE
F0
F0
E0
E0
E0
E0
E0
E0
E0
E0
E0
E0
E0
E0
00
00
00
E0
E0
E0
ENDCHAR
STARTCHAR char7772
ENCODING 7772
SWIDTH 7 0
DWIDTH 23 0
BBX 19 34 3 -6
BITMAP
0FF800
0FF800
000000
000000
000000
FFFC00
FFFF00
FFFF80
E00780
E003C0
E001C0
E001C0
E001C0
E00380
E00380
FFFF00
FFFC00
FFFF00
E00780
E00380
E00380
E00380
E00380
E00380
E00380
E003C0
E001C0
E001E0
000000
000000
000000
01C000
01C000
01C000
ENDCHAR
STARTCHAR char7773
ENCODING 7773
SWIDTH 2 0
DWIDTH 11 0
BBX 10 28 0 -6
BITMAP
FF80
FF80
0000
0000
0000
39C0
3BC0
3F80
3C00
3C00
3800
3800
3800
3800
3800
3800
3800
3800
3800
3800
3800
3800
0000
0000
0000
3800
3800
3800
ENDCHAR
STARTCHAR char7778
ENCODING 7778
SWIDTH 2 0
DWIDTH 21 0
BBX 18 28 2 -5
BITMAP
07F000
1FFC00
3FFE00
780F00
700780
E00380
E00380
E00000
F00000
780000
7F8000
3FF000
07FE00
007F00
000380
C001C0
E001C0
E001C0
F00380
780780
7FFF00
1FFE00
07F800
000000
000000
01C000
01C000
01C000
ENDCHAR
STARTCHAR char7779
ENCODING 7779
SWIDTH 16 0
DWIDTH 16 0
BBX 14 22 1 -5
BITMAP
0FC0
3FF0
7FF0
7038
6038
E000
7000
7F00
1FE0
03F8
0038
001C
E01C
F038
7DF8
3FF0
1FC0
0000
0000
0780
0780
0780
ENDCHAR
STARTCHAR char7788
ENCODING 7788
SWIDTH 27 0
DWIDTH 20 0
BBX 18 29 1 -6
BITMAP
FFFFC0
FFFFC0
FFFFC0
01C000
01C000
01C000
01C000
01C000
01C000
01C000
01C000
01C000
01C000
01C000
01C000
01C000
01C000
01C000
01C000
01C000
01C000
01C000
01C000
000000
000000
000000
01E000
01E000
01E000
ENDCHAR
STARTCHAR char7789
ENCODING 7789
SWIDTH 25 0
DWIDTH 9 0
BBX 8 27 0 -5
BITMAP
18
18
18
18
18
FF
FF
18
18
18
18
18
18
18
18
18
18
18
18
1C
1F
0F
00
00
1C
1C
1C
ENDCHAR
STARTCHAR char7790
ENCODING 7790
SWIDTH 27 0
DWIDTH 20 0
BBX 18 28 1 -5
BITMAP
FFFFC0
FFFFC0
FFFFC0
01C000
01C000
01C000
01C000
01C000
01C000
01C000
01C000
01C000
01C000
01C000
01C000
01C000
01C000
01C000
01C000
01C000
01C000
01C000
01C000
000000
000000
000000
0FF800
0FF800
ENDCHAR
STARTCHAR char7791
ENCODING 7791
SWIDTH 25 0
DWIDTH 9 0
BBX 9 27 0 -5
BITMAP
1800
1800
1800
1800
1800
FF00
FF00
1800
1800
1800
1800
1800
1800
1800
1800
1800
1800
1800
1800
1C00
1F00
0F00
0000
0000
0000
FF80
FF80
ENDCHAR
STARTCHAR char7808
ENCODING 7808
SWIDTH 27 0
DWIDTH 30 0
BBX 29 29 1 0
BITMAP
00F00000
00780000
001C0000
000E0000
00000000
00000000
E00F0078
E00F0070
F00F8070
700F8070
701F80F0
701D80E0
781DC0E0
3819C0E0
3839C1E0
3838E1C0
3C30E1C0
1C70E1C0
1C7061C0
1C707380
1C607380
0EE07380
0EE03B00
0EC03F00
0FC03F00
07C01F00
07C01E00
07801E00
03801E00
ENDCHAR
STARTCHAR char7809
ENCODING 7809
SWIDTH 7 0
DWIDTH 23 0
BBX 22 23 0 0
BITMAP
03C000
01C000
00E000
007000
003000
000000
E0380C
70781C
707C1C
707C1C
707C18
38EC38
38EE38
38CE30
18CE30
1DC670
1DC770
1D8760
0D83E0
0F83E0
0F83C0
0703C0
0701C0
ENDCHAR
STARTCHAR char7810
ENCODING 7810
SWIDTH 27 0
DWIDTH 30 0
BBX 29 29 1 0
BITMAP
0000F000
0001E000
0003C000
00030000
00040000
00000000
E00F0078
E00F0070
F00F8070
700F8070
701F80F0
701D80E0
781DC0E0
3819C0E0
3839C1E0
3838E1C0
3C30E1C0
1C70E1C0
1C7061C0
1C707380
1C607380
0EE07380
0EE03B00
0EC03F00
0FC03F00
07C01F00
07C01E00
07801E00
03801E00
ENDCHAR
STARTCHAR char7811
ENCODING 7811
SWIDTH 7 0
DWIDTH 23 0
BBX 22 23 0 0
BITMAP
000780
000700
000E00
001C00
001800
000000
E0380C
70781C
707C1C
707C1C
707C18
38EC38
38EE38
38CE30
18CE30
1DC670
1DC770
1D8760
0D83E0
0F83E0
0F83C0
0703C0
0701C0
ENDCHAR
STARTCHAR char7812
ENCODING 7812
SWIDTH 27 0
DWIDTH 30 0
BBX 29 28 1 0
BITMAP
0039C000
0039C000
0039C000
00000000
00000000
E00F0078
E00F0070
F00F8070
700F8070
701F80F0
701D80E0
781DC0E0
3819C0E0
3839C1E0
3838E1C0
3C30E1C0
1C70E1C0
1C7061C0
1C707380
1C607380
0EE07380
0EE03B00
0EC03F00
0FC03F00
07C01F00
07C01E00
07801E00
03801E00
ENDCHAR
STARTCHAR char7813
ENCODING 7813
SWIDTH 7 0
DWIDTH 23 0
BBX 22 22 0 0
BITMAP
01C700
01C700
01C700
000000
000000
E0380C
70781C
707C1C
707C1C
707C18
38EC38
38EE38
38CE30
18CE30
1DC670
1DC770
1D8760
0D83E0
0F83E0
0F83C0
0703C0
0701C0
ENDCHAR
STARTCHAR char7826
ENCODING 7826
SWIDTH 27 0
DWIDTH 20 0
BBX 18 29 1 -6
BITMAP
7FFFC0
7FFFC0
7FFFC0
000780
000F00
000E00
001E00
003C00
007800
00F000
00E000
01E000
03C000
078000
070000
0E0000
1E0000
3C0000
780000
700000
FFFFC0
FFFFC0
FFFFC0
000000
000000
000000
00E000
00E000
00E000
ENDCHAR
STARTCHAR char7827
ENCODING 7827
SWIDTH 16 0
DWIDTH 16 0
BBX 14 23 1 -6
BITMAP
7FF8
7FF8
0038
0070
00E0
01E0
01C0
0380
0700
0E00
1E00
1C00
3800
7000
E000
FFFC
FFFC
0000
0000
0000
0780
0780
0780
ENDCHAR
STARTCHAR char7831
ENCODING 7831
SWIDTH 25 0
DWIDTH 9 0
BBX 8 27 0 0
BITMAP
E7
E7
E7
00
00
18
18
18
18
18
FF
FF
18
18
18
18
18
18
18
18
18
18
18
18
1C
1F
0F
ENDCHAR
STARTCHAR char7840
ENCODING 7840
SWIDTH 2 0
DWIDTH 21 0
BBX 20 29 1 -6
BITMAP
00F000
01F000
01F800
01F800
03B800
039C00
079C00
071C00
070E00
0E0E00
0E0E00
0E0700
1C0700
1C0780
1FFF80
3FFF80
3803C0
3801C0
7001C0
7001E0
F000E0
E000E0
E000F0
000000
000000
000000
00E000
00E000
00E000
ENDCHAR
STARTCHAR char7841
ENCODING 7841
SWIDTH 22 0
DWIDTH 18 0
BBX 16 22 1 -5
BITMAP
0FE0
1FF8
3EFC
781C
701C
001C
001C
03FC
1FFC
7E1C
701C
E01C
E01C
E03C
78FE
3FCF
1F07
0000
0000
0380
0380
0380
ENDCHAR
STARTCHAR char7842
ENCODING 7842
SWIDTH 2 0
DWIDTH 21 0
BBX 20 32 1 0
BITMAP
00E000
01F800
031800
031800
003800
007000
006000
006000
000000
00F000
01F000
01F800
01F800
03B800
039C00
079C00
071C00
070E00
0E0E00
0E0E00
0E0700
1C0700
1C0780
1FFF80
3FFF80
3803C0
3801C0
7001C0
7001E0
F000E0
E000E0
E000F0
ENDCHAR
STARTCHAR char7843
ENCODING 7843
SWIDTH 22 0
DWIDTH 18 0
BBX 16 25 1 0
BITMAP
03C0
07E0
0C60
0C60
01C0
0180
0180
0000
0FE0
1FF8
3EFC
781C
701C
001C
001C
03FC
1FFC
7E1C
701C
E01C
E01C
E03C
78FE
3FCF
1F07
ENDCHAR
STARTCHAR char7844
ENCODING 7844
SWIDTH 2 0
DWIDTH 21 0
BBX 20 34 1 0
BITMAP
000F00
001E00
003800
007000
000000
00F000
01F800
039C00
060E00
000000
000000
00F000
01F000
01F800
01F800
03B800
039C00
079C00
071C00
070E00
0E0E00
0E0E00
0E0700
1C0700
1C0780
1FFF80
3FFF80
3803C0
3801C0
7001C0
7001E0
F000E0
E000E0
E000F0
ENDCHAR
STARTCHAR char7845
ENCODING 7845
SWIDTH 22 0
DWIDTH 18 0
BBX 16 27 1 0
BITMAP
003C
0070
00E0
01C0
0000
03C0
07E0
0E70
1838
0000
0FE0
1FF8
3EFC
781C
701C
001C
001C
03FC
1FFC
7E1C
701C
E01C
E01C
E03C
78FE
3FCF
1F07
ENDCHAR
STARTCHAR char7846
ENCODING 7846
SWIDTH 2 0
DWIDTH 21 0
BBX 20 34 1 0
BITMAP
0F0000
078000
03C000
00C000
000000
00F000
01F800
039C00
060E00
000000
000000
00F000
01F000
01F800
01F800
03B800
039C00
079C00
071C00
070E00
0E0E00
0E0E00
0E0700
1C0700
1C0780
1FFF80
3FFF80
3803C0
3801C0
7001C0
7001E0
F000E0
E000E0
E000F0
ENDCHAR
STARTCHAR char7847
ENCODING 7847
SWIDTH 22 0
DWIDTH 18 0
BBX 16 27 1 0
BITMAP
3C00
1E00
0F00
0300
0000
03C0
07E0
0E70
1838
0000
0FE0
1FF8
3EFC
781C
701C
001C
001C
03FC
1FFC
7E1C
701C
E01C
E01C
E03C
78FE
3FCF
1F07
ENDCHAR
STARTCHAR char7848
ENCODING 7848
SWIDTH 2 0
DWIDTH 21 0
BBX 20 37 1 0
BITMAP
001000
007E00
00C600
00C600
000E00
001800
001800
000000
00F000
01F800
039C00
060E00
000000
000000
00F000
01F000
01F800
01F800
03B800
039C00
079C00
071C00
070E00
0E0E00
0E0E00
0E0700
1C0700
1C0780
1FFF80
3FFF80
3803C0
3801C0
7001C0
7001E0
F000E0
E000E0
E000F0
ENDCHAR
STARTCHAR char7849
ENCODING 7849
SWIDTH 22 0
DWIDTH 18 0
BBX 16 30 1 0
BITMAP
00F0
01F8
0318
0018
0070
0060
0060
0000
03C0
07E0
0E70
1838
0000
0FE0
1FF8
3EFC
781C
701C
001C
001C
03FC
1FFC
7E1C
701C
E01C
E01C
E03C
78FE
3FCF
1F07
ENDCHAR
STARTCHAR char7850
ENCODING 7850
SWIDTH 2 0
DWIDTH 21 0
BBX 20 33 1 0
BITMAP
03CE00
07FC00
063800
000000
00F000
01F800
039C00
060E00
000000
000000
00F000
01F000
01F800
01F800
03B800
039C00
079C00
071C00
070E00
0E0E00
0E0E00
0E0700
1C0700
1C0780
1FFF80
3FFF80
3803C0
3801C0
7001C0
7001E0
F000E0
E000E0
E000F0
ENDCHAR
STARTCHAR char7851
ENCODING 7851
SWIDTH 22 0
DWIDTH 18 0
BBX 16 27 1 0
BITMAP
0F38
1FF0
18E0
0000
03C0
07E0
0EE0
1C70
1838
0000
0FE0
1FF8
3EFC
781C
701C
001C
001C
03FC
1FFC
7E1C
701C
E01C
E01C
E03C
78FE
3FCF
1F07
ENDCHAR
STARTCHAR char7852
ENCODING 7852
SWIDTH 2 0
DWIDTH 21 0
BBX 20 35 1 -6
BITMAP
01F000
01F800
039C00
060E00
000000
000000
00F000
01F000
01F800
01F800
03B800
039C00
079C00
071C00
070E00
0E0E00
0E0E00
0E0700
1C0700
1C0780
1FFF80
3FFF80
3803C0
3801C0
7001C0
7001E0
F000E0
E000E0
E000F0
000000
000000
000000
00E000
00E000
00E000
ENDCHAR
STARTCHAR char7853
ENCODING 7853
SWIDTH 22 0
DWIDTH 18 0
BBX 16 28 1 -5
BITMAP
03C0
07C0
06E0
0C60
1C30
0000
0FE0
1FF8
3EFC
781C
701C
001C
001C
03FC
1FFC
7E1C
701C
E01C
E01C
E03C
78FE
3FCF
1F07
0000
0000
0380
0380
0380
ENDCHAR
STARTCHAR char7854
ENCODING 7854
SWIDTH 2 0
DWIDTH 21 0
BBX 20 34 1 0
BITMAP
000F00
001C00
003800
007000
000000
0C0600
0F1E00
07FC00
03F800
000000
000000
00F000
01F000
01F800
01F800
03B800
039C00
079C00
071C00
070E00
0E0E00
0E0E00
0E0700
1C0700
1C0780
1FFF80
3FFF80
3803C0
3801C0
7001C0
7001E0
F000E0
E000E0
E000F0
ENDCHAR
STARTCHAR char7855
ENCODING 7855
SWIDTH 22 0
DWIDTH 18 0
BBX 16 27 1 0
BITMAP
003C
0070
00E0
01C0
0000
301C
3C78
1FF8
0FE0
0000
0FE0
1FF8
3EFC
781C
701C
001C
001C
03FC
1FFC
7E1C
701C
E01C
E01C
E03C
78FE
3FCF
1F07
ENDCHAR
STARTCHAR char7856
ENCODING 7856
SWIDTH 2 0
DWIDTH 21 0
BBX 20 34 1 0
BITMAP
0F0000
078000
03C000
00C000
000000
0C0600
0F1E00
07FC00
03F800
000000
000000
00F000
01F000
01F800
01F800
03B800
039C00
079C00
071C00
070E00
0E0E00
0E0E00
0E0700
1C0700
1C0780
1FFF80
3FFF80
3803C0
3801C0
7001C0
7001E0
F000E0
E000E0
E000F0
ENDCHAR
STARTCHAR char7857
ENCODING 7857
SWIDTH 22 0
DWIDTH 18 0
BBX 16 27 1 0
BITMAP
3C00
1E00
0F00
0300
0000
301C
3C78
1FF8
0FE0
0000
0FE0
1FF8
3EFC
781C
701C
001C
001C
03FC
1FFC
7E1C
701C
E01C
E01C
E03C
78FE
3FCF
1F07
ENDCHAR
STARTCHAR char7858
ENCODING 7858
SWIDTH 2 0
DWIDTH 21 0
BBX 20 35 1 0
BITMAP
00F000
01F800
031800
003800
007000
006000
0C0600
0F1E00
07FC00
03F800
000000
000000
00F000
01F000
01F800
01F800
03B800
039C00
079C00
071C00
070E00
0E0E00
0E0E00
0E0700
1C0700
1C0780
1FFF80
3FFF80
3803C0
3801C0
7001C0
7001E0
F000E0
E000E0
E000F0
ENDCHAR
STARTCHAR char7859
ENCODING 7859
SWIDTH 22 0
DWIDTH 18 0
BBX 16 29 1 0
BITMAP
0100
07E0
0C60
0C60
00E0
0180
0180
301C
3C78
1FF8
0FE0
0000
0FE0
1FF8
3EFC
781C
701C
001C
001C
03FC
1FFC
7E1C
701C
E01C
E01C
E03C
78FE
3FCF
1F07
ENDCHAR
STARTCHAR char7860
ENCODING 7860
SWIDTH 2 0
DWIDTH 21 0
BBX 20 34 1 0
BITMAP
038600
07FC00
06FC00
061800
000000
0C0600
0F1E00
07FC00
03F800
000000
000000
00F000
01F000
01F800
01F800
03B800
039C00
079C00
071C00
070E00
0E0E00
0E0E00
0E0700
1C0700
1C0780
1FFF80
3FFF80
3803C0
3801C0
7001C0
7001E0
F000E0
E000E0
E000F0
ENDCHAR
STARTCHAR char7861
ENCODING 7861
SWIDTH 22 0
DWIDTH 18 0
BBX 16 27 1 0
BITMAP
0E18
1FF0
1BF0
1860
0000
301C
3C78
1FF8
0FE0
0000
0FE0
1FF8
3EFC
781C
701C
001C
001C
03FC
1FFC
7E1C
701C
E01C
E01C
E03C
78FE
3FCF
1F07
ENDCHAR
STARTCHAR char7862
ENCODING 7862
SWIDTH 2 0
DWIDTH 21 0
BBX 20 35 1 -6
BITMAP
0C0600
0F1E00
07FC00
01F800
000000
000000
00F000
01F000
01F800
01F800
03B800
039C00
079C00
071C00
070E00
0E0E00
0E0E00
0E0700
1C0700
1C0780
1FFF80
3FFF80
3803C0
3801C0
7001C0
7001E0
F000E0
E000E0
E000F0
000000
000000
000000
00E000
00E000
00E000
ENDCHAR
STARTCHAR char7863
ENCODING 7863
SWIDTH 22 0
DWIDTH 18 0
BBX 16 28 1 -5
BITMAP
1818
1C70
0FF0
07C0
0000
0000
0FE0
1FF8
3EFC
781C
701C
001C
001C
03FC
1FFC
7E1C
701C
E01C
E01C
E03C
78FE
3FCF
1F07
0000
0000
0380
0380
0380
ENDCHAR
STARTCHAR char7864
ENCODING 7864
SWIDTH 2 0
DWIDTH 21 0
BBX 17 29 3 -6
BITMAP
FFFF00
FFFF00
FFFF00
E00000
E00000
E00000
E00000
E00000
E00000
E00000
FFFF00
FFFF00
FFFF00
E00000
E00000
E00000
E00000
E00000
E00000
E00000
FFFF80
FFFF80
FFFF80
000000
000000
000000
038000
038000
038000
ENDCHAR
STARTCHAR char7865
ENCODING 7865
SWIDTH 22 0
DWIDTH 18 0
BBX 15 22 1 -5
BITMAP
07E0
1FF8
3FFC
781C
700E
600E
E006
FFFE
FFFE
E000
E000
6000
700E
781C
3FFC
1FF8
07E0
0000
0000
03C0
03C0
03C0
ENDCHAR
STARTCHAR char7866
ENCODING 7866
SWIDTH 2 0
DWIDTH 21 0
BBX 17 32 3 0
BITMAP
03C000
07E000
067000
0C7000
00E000
01C000
018000
018000
000000
FFFF00
FFFF00
FFFF00
E00000
E00000
E00000
E00000
E00000
E00000
E00000
FFFF00
FFFF00
FFFF00
E00000
E00000
E00000
E00000
E00000
E00000
E00000
FFFF80
FFFF80
FFFF80
ENDCHAR
STARTCHAR char7867
ENCODING 7867
SWIDTH 22 0
DWIDTH 18 0
BBX 15 25 1 0
BITMAP
03C0
07E0
0C30
0C60
00E0
0180
0180
0000
07E0
1FF8
3FFC
781C
700E
600E
E006
FFFE
FFFE
E000
E000
6000
700E
781C
3FFC
1FF8
07E0
ENDCHAR
STARTCHAR char7868
ENCODING 7868
SWIDTH 2 0
DWIDTH 21 0
BBX 17 28 3 0
BITMAP
0F1800
1FF000
18F000
000000
000000
FFFF00
FFFF00
FFFF00
E00000
E00000
E00000
E00000
E00000
E00000
E00000
FFFF00
FFFF00
FFFF00
E00000
E00000
E00000
E00000
E00000
E00000
E00000
FFFF80
FFFF80
FFFF80
ENDCHAR
STARTCHAR char7869
ENCODING 7869
SWIDTH 22 0
DWIDTH 18 0
BBX 15 22 1 0
BITMAP
0F18
1FF0
19F0
0000
0000
07E0
1FF8
3FFC
781C
700E
600E
E006
FFFE
FFFE
E000
E000
6000
700E
781C
3FFC
1FF8
07E0
ENDCHAR
STARTCHAR char7870
ENCODING 7870
SWIDTH 2 0
DWIDTH 21 0
BBX 17 34 3 0
BITMAP
003C00
007800
00F000
01C000
000000
03C000
07E000
0E7000
1C3800
000000
000000
FFFF00
FFFF00
FFFF00
E00000
E00000
E00000
E00000
E00000
E00000
E00000
FFFF00
FFFF00
FFFF00
E00000
E00000
E00000
E00000
E00000
E00000
E00000
FFFF80
FFFF80
FFFF80
ENDCHAR
STARTCHAR char7871
ENCODING 7871
SWIDTH 22 0
DWIDTH 18 0
BBX 15 27 1 0
BITMAP
003C
0070
00E0
01C0
0000
03C0
07E0
0E70
1C38
0000
07E0
1FF8
3FFC
781C
700E
600E
E006
FFFE
FFFE
E000
E000
6000
700E
781C
3FFC
1FF8
07E0
ENDCHAR
STARTCHAR char7872
ENCODING 7872
SWIDTH 2 0
DWIDTH 21 0
BBX 17 34 3 0
BITMAP
3C0000
1E0000
070000
038000
000000
03C000
07E000
0E7000
1C3800
000000
000000
FFFF00
FFFF00
FFFF00
E00000
E00000
E00000
E00000
E00000
E00000
E00000
FFFF00
FFFF00
FFFF00
E00000
E00000
E00000
E00000
E00000
E00000
E00000
FFFF80
FFFF80
FFFF80
ENDCHAR
STARTCHAR char7873
ENCODING 7873
SWIDTH 22 0
DWIDTH 18 0
BBX 15 27 1 0
BITMAP
3C00
1E00
0700
0380
0000
03C0
07E0
0E70
1C38
0000
07E0
1FF8
3FFC
781C
700E
600E
E006
FFFE
FFFE
E000
E000
6000
700E
781C
3FFC
1FF8
07E0
ENDCHAR
STARTCHAR char7874
ENCODING 7874
SWIDTH 2 0
DWIDTH 21 0
BBX 17 37 3 0
BITMAP
004000
01F800
031800
031800
003800
006000
006000
000000
03C000
07E000
0E7000
1C3800
000000
000000
FFFF00
FFFF00
FFFF00
E00000
E00000
E00000
E00000
E00000
E00000
E00000
FFFF00
FFFF00
FFFF00
E00000
E00000
E00000
E00000
E00000
E00000
E00000
FFFF80
FFFF80
FFFF80
ENDCHAR
STARTCHAR char7875
ENCODING 7875
SWIDTH 22 0
DWIDTH 18 0
BBX 15 30 1 0
BITMAP
00F0
01F8
0318
0018
0070
0060
0060
0000
03C0
07E0
0E70
1C38
0000
07E0
1FF8
3FFC
781C
700E
600E
E006
FFFE
FFFE
E000
E000
6000
700E
781C
3FFC
1FF8
07E0
ENDCHAR
STARTCHAR char7876
ENCODING 7876
SWIDTH 2 0
DWIDTH 21 0
BBX 17 33 3 0
BITMAP
0F1800
1FF000
18F000
000000
03C000
07E000
0E7000
1C3800
000000
000000
FFFF00
FFFF00
FFFF00
E00000
E00000
E00000
E00000
E00000
E00000
E00000
FFFF00
FFFF00
FFFF00
E00000
E00000
E00000
E00000
E00000
E00000
E00000
FFFF80
FFFF80
FFFF80
ENDCHAR
STARTCHAR char7877
ENCODING 7877
SWIDTH 22 0
DWIDTH 18 0
BBX 15 27 1 0
BITMAP
0F18
1FF0
18F0
0000
03C0
07E0
0E70
0C30
1818
0000
07E0
1FF8
3FFC
781C
700E
600E
E006
FFFE
FFFE
E000
E000
6000
700E
781C
3FFC
1FF8
07E0
ENDCHAR
STARTCHAR char7878
ENCODING 7878
SWIDTH 2 0
DWIDTH 21 0
BBX 17 35 3 -6
BITMAP
03C000
07E000
0E7000
1C3800
000000
000000
FFFF00
FFFF00
FFFF00
E00000
E00000
E00000
E00000
E00000
E00000
E00000
FFFF00
FFFF00
FFFF00
E00000
E00000
E00000
E00000
E00000
E00000
E00000
FFFF80
FFFF80
FFFF80
000000
000000
000000
038000
038000
038000
ENDCHAR
STARTCHAR char7879
ENCODING 7879
SWIDTH 22 0
DWIDTH 18 0
BBX 15 28 1 -5
BITMAP
03C0
07C0
06E0
0E70
0C30
0000
07E0
1FF8
3FFC
781C
700E
600E
E006
FFFE
FFFE
E000
E000
6000
700E
781C
3FFC
1FF8
07E0
0000
0000
03C0
03C0
03C0
ENDCHAR
STARTCHAR char7880
ENCODING 7880
SWIDTH 25 0
DWIDTH 9 0
BBX 7 32 1 0
BITMAP
38
7E
C6
C6
0E
1C
18
18
00
38
38
38
38
38
38
38
38
38
38
38
38
38
38
38
38
38
38
38
38
38
38
38
ENDCHAR
STARTCHAR char7881
ENCODING 7881
SWIDTH 25 0
DWIDTH 9 0
BBX 7 26 1 0
BITMAP
38
7E
C6
C6
0E
1C
38
30
00
38
38
38
38
38
38
38
38
38
38
38
38
38
38
38
38
38
ENDCHAR
STARTCHAR char7882
ENCODING 7882
SWIDTH 25 0
DWIDTH 9 0
BBX 3 29 3 -6
BITMAP
E0
E0
E0
E0
E0
E0
E0
E0
E0
E0
E0
E0
E0
E0
E0
E0
E0
E0
E0
E0
E0
E0
E0
00
00
00
E0
E0
E0
ENDCHAR
STARTCHAR char7883
ENCODING 7883
SWIDTH 19 0
DWIDTH 7 0
BBX 3 28 2 -6
BITMAP
E0
E0
E0
00
00
E0
E0
E0
E0
E0
E0
E0
E0
E0
E0
E0
E0
E0
E0
E0
E0
E0
00
00
00
E0
E0
E0
ENDCHAR
STARTCHAR char7884
ENCODING 7884
SWIDTH 13 0
DWIDTH 25 0
BBX 23 28 1 -5
BITMAP
00FE00
03FF80
0FFFE0
1F01F0
3C0078
380038
70003C
70001C
70001C
E0000E
E0000E
E0000E
E0000E
E0000E
F0001C
70001C
70001C
380038
3C0078
1E01F0
0FFFE0
07FFC0
00FE00
000000
000000
003800
003800
003800
ENDCHAR
STARTCHAR char7885
ENCODING 7885
SWIDTH 22 0
DWIDTH 18 0
BBX 15 22 1 -5
BITMAP
07E0
1FF8
3FFC
781C
700E
E00E
E00E
E00E
E006
E00E
E00E
E00E
700E
781C
3FFC
1FF8
07E0
0000
0000
03C0
03C0
03C0
ENDCHAR
STARTCHAR char7886
ENCODING 7886
SWIDTH 13 0
DWIDTH 25 0
BBX 23 31 1 0
BITMAP
007C00
00FE00
00C600
00C600
001C00
003800
003000
000000
00FE00
03FF80
0FFFE0
1F01F0
3C0078
380038
70003C
70001C
70001C
E0000E
E0000E
E0000E
E0000E
E0000E
F0001C
70001C
70001C
380038
3C0078
1E01F0
0FFFE0
07FFC0
00FE00
ENDCHAR
STARTCHAR char7887
ENCODING 7887
SWIDTH 22 0
DWIDTH 18 0
BBX 15 25 1 0
BITMAP
03C0
07E0
0C60
0C60
00E0
0180
0180
0000
07E0
1FF8
3FFC
781C
700E
E00E
E00E
E00E
E006
E00E
E00E
E00E
700E
781C
3FFC
1FF8
07E0
ENDCHAR
STARTCHAR char7888
ENCODING 7888
SWIDTH 13 0
DWIDTH 25 0
BBX 23 33 1 0
BITMAP
0007C0
000F00
000E00
001800
000000
007C00
00EE00
01C700
038380
000000
00FE00
03FF80
0FFFE0
1F01F0
3C0078
380038
70003C
70001C
70001C
E0000E
E0000E
E0000E
E0000E
E0000E
F0001C
70001C
70001C
380038
3C0078
1E01F0
0FFFE0
07FFC0
00FE00
ENDCHAR
STARTCHAR char7889
ENCODING 7889
SWIDTH 22 0
DWIDTH 18 0
BBX 15 27 1 0
BITMAP
003C
0070
00E0
01C0
0000
03C0
07E0
0E70
1838
0000
07E0
1FF8
3FFC
781C
700E
E00E
E00E
E00E
E006
E00E
E00E
E00E
700E
781C
3FFC
1FF8
07E0
ENDCHAR
STARTCHAR char7890
ENCODING 7890
SWIDTH 13 0
DWIDTH 25 0
BBX 23 33 1 0
BITMAP
078000
01C000
00E000
003000
000000
007C00
00EE00
01C700
038380
000000
00FE00
03FF80
0FFFE0
1F01F0
3C0078
380038
70003C
70001C
70001C
E0000E
E0000E
E0000E
E0000E
E0000E
F0001C
70001C
70001C
380038
3C0078
1E01F0
0FFFE0
07FFC0
00FE00
ENDCHAR
STARTCHAR char7891
ENCODING 7891
SWIDTH 22 0
DWIDTH 18 0
BBX 15 27 1 0
BITMAP
3C00
1E00
0700
0380
0000
03C0
07E0
0E70
1838
0000
07E0
1FF8
3FFC
781C
700E
E00E
E00E
E00E
E006
E00E
E00E
E00E
700E
781C
3FFC
1FF8
07E0
ENDCHAR
STARTCHAR char7892
ENCODING 7892
SWIDTH 13 0
DWIDTH 25 0
BBX 23 36 1 0
BITMAP
001F00
003F80
003180
000380
000700
000E00
000C00
000000
007C00
00EE00
01C700
038380
000000
00FE00
03FF80
0FFFE0
1F01F0
3C0078
380038
70003C
70001C
70001C
E0000E
E0000E
E0000E
E0000E
E0000E
F0001C
70001C
70001C
380038
3C0078
1E01F0
0FFFE0
07FFC0
00FE00
ENDCHAR
STARTCHAR char7893
ENCODING 7893
SWIDTH 22 0
DWIDTH 18 0
BBX 15 30 1 0
BITMAP
00F0
01F8
0318
0018
0070
0060
0060
0000
03C0
07E0
0E70
1838
0000
07E0
1FF8
3FFC
781C
700E
E00E
E00E
E00E
E006
E00E
E00E
E00E
700E
781C
3FFC
1FF8
07E0
ENDCHAR
STARTCHAR char7894
ENCODING 7894
SWIDTH 13 0
DWIDTH 25 0
BBX 23 32 1 0
BITMAP
01F300
01FF00
031E00
000000
007C00
00EE00
01C700
038380
000000
00FE00
03FF80
0FFFE0
1F01F0
3C0078
380038
70003C
70001C
70001C
E0000E
E0000E
E0000E
E0000E
E0000E
F0001C
70001C
70001C
380038
3C0078
1E01F0
0FFFE0
07FFC0
00FE00
ENDCHAR
STARTCHAR char7895
ENCODING 7895
SWIDTH 22 0
DWIDTH 18 0
BBX 15 27 1 0
BITMAP
0F18
1FF0
18F0
0000
03C0
07E0
0E70
0C30
1818
0000
07E0
1FF8
3FFC
781C
700E
E00E
E00E
E00E
E006
E00E
E00E
E00E
700E
781C
3FFC
1FF8
07E0
ENDCHAR
STARTCHAR char7896
ENCODING 7896
SWIDTH 13 0
DWIDTH 25 0
BBX 23 33 1 -5
BITMAP
007C00
00FE00
01C700
038300
000000
00FE00
03FF80
0FFFE0
1F01F0
3C0078
380038
70003C
70001C
70001C
E0000E
E0000E
E0000E
E0000E
E0000E
F0001C
70001C
70001C
380038
3C0078
1E01F0
0FFFE0
07FFC0
00FE00
000000
000000
003800
003800
003800
ENDCHAR
STARTCHAR char7897
ENCODING 7897
SWIDTH 22 0
DWIDTH 18 0
BBX 15 28 1 -5
BITMAP
03C0
07C0
06E0
0E70
0C30
0000
07E0
1FF8
3FFC
781C
700E
E00E
E00E
E00E
E006
E00E
E00E
E00E
700E
781C
3FFC
1FF8
07E0
0000
0000
03C0
03C0
03C0
ENDCHAR
STARTCHAR char7898
ENCODING 7898
SWIDTH 13 0
DWIDTH 25 0
BBX 23 28 1 0
BITMAP
0007C0
000F00
000E0E
00180E
00000E
00FE06
07FF84
0FFFEC
1F01FC
3C0078
380038
70001C
70001C
F0001C
E0000E
E0000E
E0000E
E0000E
E0000E
F0001C
70001C
70001C
380038
3C0078
1E01F0
0FFFE0
03FF80
00FE00
ENDCHAR
STARTCHAR char7899
ENCODING 7899
SWIDTH 22 0
DWIDTH 18 0
BBX 17 23 1 0
BITMAP
003800
007000
00E000
00C380
018380
000380
07E180
1FF180
3F7900
781F00
700E00
E00E00
E00E00
E00E00
E00600
E00E00
E00E00
E00E00
700E00
781C00
3FFC00
1FF800
07E000
ENDCHAR
STARTCHAR char7900
ENCODING 7900
SWIDTH 13 0
DWIDTH 25 0
BBX 23 29 1 0
BITMAP
078000
01C000
00E000
00700E
00000E
00000E
00FE06
07FF84
0FFFEC
1F01FC
3C0078
380038
70001C
70001C
F0001C
E0000E
E0000E
E0000E
E0000E
E0000E
F0001C
70001C
70001C
380038
3C0078
1E01F0
0FFFE0
03FF80
00FE00
ENDCHAR
STARTCHAR char7901
ENCODING 7901
SWIDTH 22 0
DWIDTH 18 0
BBX 17 23 1 0
BITMAP
3C0000
1E0000
0E0000
070380
038380
000380
07E180
1FF180
3F7900
781F00
700E00
E00E00
E00E00
E00E00
E00600
E00E00
E00E00
E00E00
700E00
781C00
3FFC00
1FF800
07E000
ENDCHAR
STARTCHAR char7902
ENCODING 7902
SWIDTH 13 0
DWIDTH 25 0
BBX 23 31 1 0
BITMAP
007C00
00FE00
00C600
00C600
001C00
00380E
00300E
00000E
00FE06
07FF84
0FFFEC
1F01FC
3C0078
380038
70001C
70001C
F0001C
E0000E
E0000E
E0000E
E0000E
E0000E
F0001C
70001C
70001C
380038
3C0078
1E01F0
0FFFE0
03FF80
00FE00
ENDCHAR
STARTCHAR char7903
ENCODING 7903
SWIDTH 22 0
DWIDTH 18 0
BBX 17 25 1 0
BITMAP
03C000
07E000
0C6000
0C6000
01C000
018380
018380
000380
07E180
1FF180
3F7900
781F00
700E00
E00E00
E00E00
E00E00
E00600
E00E00
E00E00
E00E00
700E00
781C00
3FFC00
1FF800
07E000
ENDCHAR
STARTCHAR char7904
ENCODING 7904
SWIDTH 13 0
DWIDTH 25 0
BBX 23 28 1 0
BITMAP
00E300
01FF00
039E0E
00000E
00000E
00FE06
07FF84
0FFFEC
1F01FC
3C0078
380038
70001C
70001C
F0001C
E0000E
E0000E
E0000E
E0000E
E0000E
F0001C
70001C
70001C
380038
3C0078
1E01F0
0FFFE0
03FF80
00FE00
ENDCHAR
STARTCHAR char7905
ENCODING 7905
SWIDTH 22 0
DWIDTH 18 0
BBX 17 22 1 0
BITMAP
0F3000
1FF000
1BF000
000380
000380
07E380
1FF180
3F7900
781D00
700E00
E00E00
E00E00
E00E00
E00600
E00E00
E00E00
E00E00
700E00
781C00
3FFC00
1FF800
07E000
ENDCHAR
STARTCHAR char7906
ENCODING 7906
SWIDTH 13 0
DWIDTH 25 0
BBX 23 31 1 -5
BITMAP
00000E
00000E
00000E
00FE06
07FF84
0FFFEC
1F01FC
3C0078
380038
70001C
70001C
F0001C
E0000E
E0000E
E0000E
E0000E
E0000E
F0001C
70001C
70001C
380038
3C0078
1E01F0
0FFFE0
03FF80
00FE00
000000
000000
003800
003800
003800
ENDCHAR
STARTCHAR char7907
ENCODING 7907
SWIDTH 22 0
DWIDTH 18 0
BBX 17 25 1 -5
BITMAP
000380
000380
000380
07E180
1FF180
3F7900
781F00
700E00
E00E00
E00E00
E00E00
E00600
E00E00
E00E00
E00E00
700E00
781C00
3FFC00
1FF800
07E000
000000
000000
038000
038000
038000
ENDCHAR
STARTCHAR char7908
ENCODING 7908
SWIDTH 7 0
DWIDTH 23 0
BBX 18 28 3 -5
BITMAP
E001C0
E001C0
E001C0
E001C0
E001C0
E001C0
E001C0
E001C0
E001C0
E001C0
E001C0
E001C0
E001C0
E001C0
E001C0
E001C0
E001C0
E00380
F00380
780F00
3FFF00
1FFC00
07F000
000000
000000
01C000
01C000
01C000
ENDCHAR
STARTCHAR char7909
ENCODING 7909
SWIDTH 22 0
DWIDTH 18 0
BBX 13 22 2 -5
BITMAP
E018
E018
E018
E018
E018
E018
E018
E018
E018
E018
E018
E038
E038
E078
79F8
7FD8
1F18
0000
0000
0780
0780
0780
ENDCHAR
STARTCHAR char7910
ENCODING 7910
SWIDTH 7 0
DWIDTH 23 0
BBX 18 32 3 0
BITMAP
01C000
03F000
063000
063000
007000
00E000
01C000
018000
000000
E001C0
E001C0
E001C0
E001C0
E001C0
E001C0
E001C0
E001C0
E001C0
E001C0
E001C0
E001C0
E001C0
E001C0
E001C0
E001C0
E001C0
E00380
F00380
780F00
3FFF00
1FFC00
07F000
ENDCHAR
STARTCHAR char7911
ENCODING 7911
SWIDTH 22 0
DWIDTH 18 0
BBX 13 26 2 0
BITMAP
0780
0FC0
1CC0
18C0
01C0
0380
0300
0300
0000
E018
E018
E018
E018
E018
E018
E018
E018
E018
E018
E018
E038
E038
E078
79F8
7FD8
1F18
ENDCHAR
STARTCHAR char7912
ENCODING 7912
SWIDTH 13 0
DWIDTH 25 0
BBX 22 30 3 0
BITMAP
001E00
003C00
007000
00E01C
00001C
00001C
E001CC
E001C8
E001D8
E001D0
E001E0
E001C0
E001C0
E001C0
E001C0
E001C0
E001C0
E001C0
E001C0
E001C0
E001C0
E001C0
E001C0
E001C0
E00380
F00380
780F00
3FFF00
1FFC00
07F000
ENDCHAR
STARTCHAR char7913
ENCODING 7913
SWIDTH 27 0
DWIDTH 20 0
BBX 17 23 2 0
BITMAP
007000
00E000
01C000
018380
030380
000380
E01880
E01880
E01980
E01B00
E01E00
E01800
E01800
E01800
E01800
E01800
E01800
E03800
E03800
E07800
79F800
7FD800
1F9800
ENDCHAR
STARTCHAR char7914
ENCODING 7914
SWIDTH 13 0
DWIDTH 25 0
BBX 22 30 3 0
BITMAP
3E0000
0E0000
070000
03801C
00001C
00001C
E001CC
E001C8
E001D8
E001D0
E001E0
E001C0
E001C0
E001C0
E001C0
E001C0
E001C0
E001C0
E001C0
E001C0
E001C0
E001C0
E001C0
E001C0
E00380
F00380
780F00
3FFF00
1FFC00
07F000
ENDCHAR
STARTCHAR char7915
ENCODING 7915
SWIDTH 27 0
DWIDTH 20 0
BBX 17 23 2 0
BITMAP
380000
1C0000
0C0000
060380
030380
000380
E01880
E01880
E01980
E01B00
E01E00
E01800
E01800
E01800
E01800
E01800
E01800
E03800
E03800
E07800
79F800
7FD800
1F9800
ENDCHAR
STARTCHAR char7916
ENCODING 7916
SWIDTH 13 0
DWIDTH 25 0
BBX 22 33 3 0
BITMAP
01C000
03F000
063000
063000
007000
00E000
00C01C
00C01C
00001C
E001CC
E001C8
E001D8
E001D0
E001E0
E001C0
E001C0
E001C0
E001C0
E001C0
E001C0
E001C0
E001C0
E001C0
E001C0
E001C0
E001C0
E001C0
E00380
F00380
780F00
3FFF00
1FFC00
07F000
ENDCHAR
STARTCHAR char7917
ENCODING 7917
SWIDTH 27 0
DWIDTH 20 0
BBX 17 26 2 0
BITMAP
070000
0FC000
18C000
18C000
01C000
038000
030380
030380
000380
E01880
E01880
E01980
E01B00
E01E00
E01800
E01800
E01800
E01800
E01800
E01800
E03800
E03800
E07800
79F800
7FD800
1F9800
ENDCHAR
STARTCHAR char7918
ENCODING 7918
SWIDTH 13 0
DWIDTH 25 0
BBX 22 29 3 0
BITMAP
079800
0FF800
0C701C
00001C
00001C
E001CC
E001C8
E001D8
E001D0
E001E0
E001C0
E001C0
E001C0
E001C0
E001C0
E001C0
E001C0
E001C0
E001C0
E001C0
E001C0
E001C0
E001C0
E00380
F00380
780F00
3FFF00
1FFC00
07F000
ENDCHAR
STARTCHAR char7919
ENCODING 7919
SWIDTH 27 0
DWIDTH 20 0
BBX 17 22 2 0
BITMAP
1E7000
3FE000
33E380
000380
000380
E01880
E01880
E01980
E01B00
E01E00
E01800
E01800
E01800
E01800
E01800
E01800
E03800
E03800
E07800
79F800
7FD800
1F9800
ENDCHAR
STARTCHAR char7920
ENCODING 7920
SWIDTH 13 0
DWIDTH 25 0
BBX 22 32 3 -5
BITMAP
00001C
00001C
00001C
E001CC
E001C8
E001D8
E001D0
E001E0
E001C0
E001C0
E001C0
E001C0
E001C0
E001C0
E001C0
E001C0
E001C0
E001C0
E001C0
E001C0
E001C0
E00380
F00380
780F00
3FFF00
1FFC00
07F000
000000
000000
01C000
01C000
01C000
ENDCHAR
STARTCHAR char7921
ENCODING 7921
SWIDTH 27 0
DWIDTH 20 0
BBX 17 25 2 -5
BITMAP
000380
000380
000380
E01880
E01880
E01980
E01B00
E01E00
E01800
E01800
E01800
E01800
E01800
E01800
E03800
E03800
E07800
79F800
7FD800
1F9800
000000
000000
070000
070000
070000
ENDCHAR
STARTCHAR char7922
ENCODING 7922
SWIDTH 2 0
DWIDTH 21 0
BBX 20 29 1 0
BITMAP
0F0000
078000
01C000
00E000
000000
000000
E000F0
F000E0
7801E0
3801C0
3C0380
1C0780
0E0700
0F0E00
070E00
039C00
03FC00
01F800
01F000
00F000
00E000
00E000
00E000
00E000
00E000
00E000
00E000
00E000
00E000
ENDCHAR
STARTCHAR char7923
ENCODING 7923
SWIDTH 16 0
DWIDTH 16 0
BBX 14 30 1 -7
BITMAP
3800
1C00
0E00
0600
0300
0000
E01C
E01C
E018
7038
7038
7070
3870
3870
38E0
1CE0
1CC0
1DC0
0FC0
0F80
0F80
0780
0700
0700
0700
0E00
0E00
7C00
7C00
7800
ENDCHAR
STARTCHAR char7924
ENCODING 7924
SWIDTH 2 0
DWIDTH 21 0
BBX 20 29 1 -6
BITMAP
E000F0
F000E0
7801E0
3801C0
3C0380
1C0780
0E0700
0F0E00
070E00
039C00
03FC00
01F800
01F000
00F000
00E000
00E000
00E000
00E000
00E000
00E000
00E000
00E000
00E000
000000
000000
000000
00F000
00F000
00F000
ENDCHAR
STARTCHAR char7925
ENCODING 7925
SWIDTH 16 0
DWIDTH 16 0
BBX 14 24 1 -7
BITMAP
E01C
E01C
E018
7038
7038
7070
3870
3870
38E0
1CE0
1CC0
1DC0
0FC0
0F80
0F80
0780
0700
0700
0700
0E00
0E78
7C78
7C78
7800
ENDCHAR
STARTCHAR char7926
ENCODING 7926
SWIDTH 2 0
DWIDTH 21 0
BBX 20 32 1 0
BITMAP
00F000
01F800
039800
031800
003800
007000
006000
006000
000000
E000F0
F000E0
7801E0
3801C0
3C0380
1C0780
0E0700
0F0E00
070E00
039C00
03FC00
01F800
01F000
00F000
00E000
00E000
00E000
00E000
00E000
00E000
00E000
00E000
00E000
ENDCHAR
STARTCHAR char7927
ENCODING 7927
SWIDTH 16 0
DWIDTH 16 0
BBX 14 33 1 -7
BITMAP
0780
0FC0
0CE0
18E0
01C0
0380
0300
0300
0000
E01C
E01C
E018
7038
7038
7070
3870
3870
38E0
1CE0
1CC0
1DC0
0FC0
0F80
0F80
0780
0700
0700
0700
0E00
0E00
7C00
7C00
7800
ENDCHAR
STARTCHAR char7928
ENCODING 7928
SWIDTH 2 0
DWIDTH 21 0
BBX 20 28 1 0
BITMAP
03C600
07FC00
063C00
000000
000000
E000F0
F000E0
7801E0
3801C0
3C0380
1C0780
0E0700
0F0E00
070E00
039C00
03FC00
01F800
01F000
00F000
00E000
00E000
00E000
00E000
00E000
00E000
00E000
00E000
00E000
ENDCHAR
STARTCHAR char7929
ENCODING 7929
SWIDTH 16 0
DWIDTH 16 0
BBX 14 29 1 -7
BITMAP
1E30
3FE0
33E0
0000
0000
E01C
E01C
E018
7038
7038
7070
3870
3870
38E0
1CE0
1CC0
1DC0
0FC0
0F80
0F80
0780
0700
0700
0700
0E00
0E00
7C00
7C00
7800
ENDCHAR
STARTCHAR char8208
ENCODING 8208
SWIDTH 2 0
DWIDTH 11 0
BBX 7 2 2 8
BITMAP
FE
FE
ENDCHAR
STARTCHAR char8209
ENCODING 8209
SWIDTH 2 0
DWIDTH 11 0
BBX 7 2 2 8
BITMAP
FE
FE
ENDCHAR
STARTCHAR char8211
ENCODING 8211
SWIDTH 22 0
DWIDTH 18 0
BBX 18 2 0 8
BITMAP
FFFFC0
FFFFC0
ENDCHAR
STARTCHAR char8212
ENCODING 8212
SWIDTH 4 0
DWIDTH 32 0
BBX 32 2 0 8
BITMAP
FFFFFFFF
FFFFFFFF
ENDCHAR
STARTCHAR char8214
ENCODING 8214
SWIDTH 24 0
DWIDTH 19 0
BBX 7 30 6 -7
BITMAP
CE
CE
CE
CE
CE
CE
CE
CE
CE
CE
CE
CE
CE
CE
CE
CE
CE
CE
CE
CE
CE
CE
CE
CE
CE
CE
CE
CE
CE
CE
ENDCHAR
STARTCHAR char8216
ENCODING 8216
SWIDTH 19 0
DWIDTH 7 0
BBX 3 7 2 15
BITMAP
20
40
C0
E0
E0
E0
E0
ENDCHAR
STARTCHAR char8217
ENCODING 8217
SWIDTH 19 0
DWIDTH 7 0
BBX 3 7 2 16
BITMAP
E0
E0
E0
20
60
40
C0
ENDCHAR
STARTCHAR char8218
ENCODING 8218
SWIDTH 19 0
DWIDTH 7 0
BBX 3 7 2 -4
BITMAP
E0
E0
E0
20
60
40
C0
ENDCHAR
STARTCHAR char8220
ENCODING 8220
SWIDTH 2 0
DWIDTH 11 0
BBX 8 7 2 15
BITMAP
63
C6
84
84
E7
E7
E7
ENDCHAR
STARTCHAR char8221
ENCODING 8221
SWIDTH 2 0
DWIDTH 11 0
BBX 8 7 2 15
BITMAP
E7
E7
E7
63
42
C6
84
ENDCHAR
STARTCHAR char8222
ENCODING 8222
SWIDTH 2 0
DWIDTH 11 0
BBX 9 7 1 -4
BITMAP
E380
E380
E380
2180
2100
6300
C200
ENDCHAR
STARTCHAR char8224
ENCODING 8224
SWIDTH 22 0
DWIDTH 18 0
BBX 15 28 1 -6
BITMAP
0380
0380
0380
0380
0380
0380
FFFE
FFFE
FFFE
0380
0380
0380
0380
0380
0380
0380
0380
0380
0380
0380
0380
0380
0380
0380
0380
0380
0380
0380
ENDCHAR
STARTCHAR char8225
ENCODING 8225
SWIDTH 22 0
DWIDTH 18 0
BBX 15 28 1 -6
BITMAP
0380
0380
0380
0380
0380
0380
FFFE
FFFE
FFFE
0380
0380
0380
0380
0380
0380
0380
0380
0380
FFFE
FFFE
FFFE
0380
0380
0380
0380
0380
0380
0380
ENDCHAR
STARTCHAR char8226
ENCODING 8226
SWIDTH 2 0
DWIDTH 11 0
BBX 8 8 2 7
BITMAP
3C
FE
FE
FF
FF
FE
FE
3C
ENDCHAR
STARTCHAR char8230
ENCODING 8230
SWIDTH 4 0
DWIDTH 32 0
BBX 24 3 4 0
BITMAP
E03C07
E03C07
E03C07
ENDCHAR
STARTCHAR char8240
ENCODING 8240
SWIDTH 4 0
DWIDTH 32 0
BBX 32 23 0 0
BITMAP
1E018000
3F818000
61830000
C0C30000
C0C60000
C0C60000
618C0000
3F8C0000
1E180000
00380000
00300000
00600000
00600000
00C00000
00C7C078
018FE1FC
019C7186
03183303
03183303
06183303
0E1C7186
0C0FE1FC
1807C078
ENDCHAR
STARTCHAR char8241
ENCODING 8241
SWIDTH 9 0
DWIDTH 44 0
BBX 43 23 0 0
BITMAP
1E0180000000
3F8180000000
618300000000
C0C300000000
C0C600000000
C0C600000000
618C00000000
3F8C00000000
1E1800000000
003800000000
003000000000
006000000000
006000000000
00C000000000
00C7C0780F80
018FE1FC1FC0
019C718638E0
031833033060
031833033060
061833033060
0E1C718638E0
0C0FE1FC1FC0
1807C0780F80
ENDCHAR
STARTCHAR char8249
ENCODING 8249
SWIDTH 2 0
DWIDTH 11 0
BBX 5 11 3 3
BITMAP
08
18
38
70
E0
80
E0
70
38
18
08
ENDCHAR
STARTCHAR char8250
ENCODING 8250
SWIDTH 2 0
DWIDTH 11 0
BBX 5 11 3 3
BITMAP
80
C0
E0
70
38
18
38
70
E0
C0
80
ENDCHAR
STARTCHAR char8251
ENCODING 8251
SWIDTH 24 0
DWIDTH 19 0
BBX 16 16 1 0
BITMAP
01C0
01C0
01C8
181C
1C38
0E38
0770
63E7
F1C7
63E7
0F70
1E38
1C1C
01C8
01C0
01C0
ENDCHAR
STARTCHAR char8253
ENCODING 8253
SWIDTH 22 0
DWIDTH 18 0
BBX 14 25 2 0
BITMAP
0300
0300
1FE0
3FF8
7B78
733C
E31C
E31C
E31C
031C
0338
0378
03F0
03E0
03C0
0380
0700
0700
0700
0000
0000
0000
0700
0700
0700
ENDCHAR
STARTCHAR char8255
ENCODING 8255
SWIDTH 19 0
DWIDTH 17 0
BBX 14 4 1 -7
BITMAP
E00C
FC7C
7FF8
1FE0
ENDCHAR
STARTCHAR char8256
ENCODING 8256
SWIDTH 19 0
DWIDTH 17 0
BBX 14 4 1 19
BITMAP
1FE0
7FF8
FCFC
E00C
ENDCHAR
STARTCHAR char8260
ENCODING 8260
SWIDTH 14 0
DWIDTH 5 0
BBX 15 23 -5 -1
BITMAP
0002
0006
000C
000C
0018
0030
0030
0060
0040
00C0
0180
0180
0300
0600
0600
0C00
0800
1800
3000
2000
6000
C000
C000
ENDCHAR
STARTCHAR char8261
ENCODING 8261
SWIDTH 5 0
DWIDTH 12 0
BBX 8 29 2 -6
BITMAP
1F
3F
78
E0
E0
E0
E0
E0
E0
E0
E0
E0
F0
7E
3F
3F
78
E0
E0
E0
E0
E0
E0
E0
E0
E0
78
3F
1F
ENDCHAR
STARTCHAR char8262
ENCODING 8262
SWIDTH 5 0
DWIDTH 12 0
BBX 8 29 2 -6
BITMAP
F8
FC
1E
06
07
07
07
07
07
07
07
07
0E
7E
FC
FC
1E
06
07
07
07
07
07
07
07
06
1E
FC
F8
ENDCHAR
STARTCHAR char8274
ENCODING 8274
SWIDTH 22 0
DWIDTH 18 0
BBX 16 23 1 0
BITMAP
0007
600E
F00E
F01C
E018
0038
0070
0070
00E0
00C0
01C0
0380
0380
0700
0700
0E00
0C00
1C00
380E
380F
700F
6006
E000
ENDCHAR
STARTCHAR char8276
ENCODING 8276
SWIDTH 19 0
DWIDTH 17 0
BBX 14 4 1 -7
BITMAP
1FE0
7FF8
FCFC
E00C
ENDCHAR
STARTCHAR char8353
ENCODING 8353
SWIDTH 7 0
DWIDTH 23 0
BBX 20 27 2 -2
BITMAP
004000
004000
01FC00
07FF00
1FFF80
3C43C0
7841C0
7041E0
F040E0
E04000
E04000
E04000
E04000
E04000
E04000
E04000
E04070
E040E0
E040E0
7040E0
7841C0
3C43C0
1FFF80
0FFF00
03FC00
004000
004000
ENDCHAR
STARTCHAR char8356
ENCODING 8356
SWIDTH 22 0
DWIDTH 18 0
BBX 16 23 1 0
BITMAP
07E0
1FF8
3FFC
381E
700E
700E
7006
7000
7000
FFE0
FFE0
1C00
FFE0
FFE0
0E00
0E00
0C00
1C00
3800
7FC2
FFFF
7FFF
007C
ENDCHAR
STARTCHAR char8358
ENCODING 8358
SWIDTH 7 0
DWIDTH 23 0
BBX 21 23 1 0
BITMAP
780070
7C0070
7C0070
7E0070
7F0070
770070
738070
FFFFF8
71C070
70E070
70F070
707070
FFFFF8
FFFFF8
701C70
701E70
700E70
700770
7007F0
7003F0
7001F0
7001F0
7000F0
ENDCHAR
STARTCHAR char8361
ENCODING 8361
SWIDTH 27 0
DWIDTH 30 0
BBX 29 23 1 0
BITMAP
E00F0078
E00F0070
F00F8070
700F8070
701F80F0
701D80E0
7819C0E0
FFFFFFF8
3839C1E0
3838E1C0
3C30E1C0
1C70E1C0
FFFFFFF8
FFFFFFF8
1C607380
0EE07380
0EE03B00
0EC03F00
0FC03F00
07C01F00
07C01E00
07801E00
03801E00
ENDCHAR
STARTCHAR char8363
ENCODING 8363
SWIDTH 24 0
DWIDTH 19 0
BBX 15 25 2 -2
BITMAP
0018
0018
01FE
0018
0018
0F98
3FD8
78F8
7078
E038
E038
E018
E018
E018
E038
6038
7078
3FF8
1FD8
0700
0000
0000
0000
FFFE
FFFE
ENDCHAR
STARTCHAR char8364
ENCODING 8364
SWIDTH 22 0
DWIDTH 18 0
BBX 17 22 0 0
BITMAP
00FC00
03FF00
07FF80
070180
0E0000
1E0000
1C0000
1C0000
7FFE00
FFFC00
180000
180000
7FF800
FFF800
1C0000
1C0000
1C0000
0E0000
0F0100
07FF00
03FF00
00FC00
ENDCHAR
STARTCHAR char8369
ENCODING 8369
SWIDTH 2 0
DWIDTH 21 0
BBX 18 23 2 0
BITMAP
7FFC00
7FFF00
7FFF80
700780
700380
7003C0
7001C0
7003C0
700380
700780
7FFF80
7FFF00
7FFC00
700000
700000
700000
700000
FF8000
700000
700000
700000
700000
700000
ENDCHAR
STARTCHAR char8451
ENCODING 8451
SWIDTH 21 0
DWIDTH 38 0
BBX 31 23 2 0
BITMAP
00003F80
3E00FFE0
7701FFF8
C183C078
8187801C
8187001C
818E000E
C18E0000
770E0000
3E1C0000
001C0000
001C0000
001C0000
001C0000
001E000E
000E000E
000E000E
000F001E
0007801C
0003C07C
0001FFF8
0000FFF0
00003F80
ENDCHAR
STARTCHAR char8467
ENCODING 8467
SWIDTH 8 0
DWIDTH 13 0
BBX 11 23 1 0
BITMAP
0780
0FC0
1CC0
1CE0
1860
1860
18E0
18C0
19C0
1980
1B00
1F00
1E00
1C00
3800
7800
D800
1800
1800
1C00
1E60
0FE0
0780
ENDCHAR
STARTCHAR char8470
ENCODING 8470
SWIDTH 4 0
DWIDTH 32 0
BBX 30 23 1 0
BITMAP
F0038000
F0038000
F8038000
FC038000
FC038000
EE038000
EE0383E0
E70387F0
E3038618
E3838C1C
E1C38C0C
E1C38C0C
E0E38C0C
E0E38C0C
E0738C1C
E0738618
E03B87F0
E01F83E0
E01F8000
E00F8000
E00F8FFC
E0078FFC
E0078FFC
ENDCHAR
STARTCHAR char8471
ENCODING 8471
SWIDTH 10 0
DWIDTH 24 0
BBX 22 22 1 0
BITMAP
03FE00
070380
1C00C0
300060
23F830
63FE18
430708
C30308
83030C
83030C
83FF04
83FE04
83000C
83000C
C30008
430018
630010
300030
180060
0C01C0
078F00
01FC00
ENDCHAR
STARTCHAR char8472
ENCODING 8472
SWIDTH 4 0
DWIDTH 22 0
BBX 18 26 2 -8
BITMAP
080000
1C1800
383E00
307F00
70E380
61C380
E1C180
E38180
E301C0
E701C0
E601C0
6E0180
7E0180
7C0180
3C0380
386300
3C7F00
7C3E00
6C0000
6E0000
C60000
C60000
C60000
CE0000
7C0000
100000
ENDCHAR
STARTCHAR char8478
ENCODING 8478
SWIDTH 7 0
DWIDTH 23 0
BBX 21 23 3 0
BITMAP
FFFC00
FFFF00
FFFF80
E00780
E003C0
E001C0
E001C0
E001C0
E00380
E00380
FFFF00
FFFC00
FFFF00
E00780
E00380
E00388
E003B8
E003E0
E003C0
E00780
E00FC0
E019C0
E001E0
ENDCHAR
STARTCHAR char8480
ENCODING 8480
SWIDTH 7 0
DWIDTH 33 0
BBX 29 14 2 10
BITMAP
06000000
3FC1C078
70E1C078
6061E078
6001E0D8
7001E0D8
3F01B198
0FE1B198
00E19998
C0319B18
C0319B18
60618E18
3FC18E18
0F000000
ENDCHAR
STARTCHAR char8482
ENCODING 8482
SWIDTH 4 0
DWIDTH 32 0
BBX 28 12 2 11
BITMAP
FFF38070
060380F0
0603C0F0
0603C0B0
060361B0
060361B0
06032330
06033330
06033230
06031E30
06031E30
06031C30
ENDCHAR
STARTCHAR char8486
ENCODING 8486
SWIDTH 10 0
DWIDTH 24 0
BBX 22 23 1 0
BITMAP
00FC00
03FF00
0FFFC0
1F03E0
1C00F0
380070
380078
700038
700038
700038
700038
700038
780038
380070
3C00F0
1E01E0
0F83C0
078780
038700
038700
FF87FC
FF87FC
FF87FC
ENDCHAR
STARTCHAR char8487
ENCODING 8487
SWIDTH 10 0
DWIDTH 24 0
BBX 22 23 1 0
BITMAP
FF87FC
FF87FC
FF87FC
038700
038700
078780
0F83C0
1E01E0
3C00F0
380070
780038
700038
700038
700038
700038
700038
380078
380070
1C00F0
1F01E0
0FFFC0
03FF80
00FC00
ENDCHAR
STARTCHAR char8494
ENCODING 8494
SWIDTH 21 0
DWIDTH 28 0
BBX 24 21 2 0
BITMAP
00FE00
0301C0
0C0020
180018
300018
70001C
70001E
70001E
F0001E
F0001E
FFFFFF
F00000
F00000
700000
700000
300000
300000
180018
0C0020
0300C0
00FF00
ENDCHAR
STARTCHAR char8592
ENCODING 8592
SWIDTH 4 0
DWIDTH 32 0
BBX 25 16 3 0
BITMAP
04000000
06000000
0E000000
1C000000
18000000
38000000
70000000
FFFFFF80
FFFFFF80
70000000
30000000
38000000
1C000000
0E000000
06000000
04000000
ENDCHAR
STARTCHAR char8593
ENCODING 8593
SWIDTH 10 0
DWIDTH 24 0
BBX 15 25 5 -4
BITMAP
0100
0780
0FE0
3FF0
7B38
E31E
C30E
0300
0300
0300
0300
0300
0300
0300
0300
0300
0300
0300
0300
0300
0300
0300
0300
0300
0300
ENDCHAR
STARTCHAR char8594
ENCODING 8594
SWIDTH 4 0
DWIDTH 32 0
BBX 25 16 4 0
BITMAP
00001000
00003000
00003800
00001C00
00000C00
00000E00
00000700
FFFFFF80
FFFFFF80
00000700
00000600
00000E00
00001C00
00003800
00003000
00001000
ENDCHAR
STARTCHAR char8595
ENCODING 8595
SWIDTH 10 0
DWIDTH 24 0
BBX 15 25 5 -5
BITMAP
0300
0300
0300
0300
0300
0300
0300
0300
0300
0300
0300
0300
0300
0300
0300
0300
0300
0300
C30E
E31E
7B38
3FF0
0FE0
0780
0300
ENDCHAR
STARTCHAR char8706
ENCODING 8706
SWIDTH 16 0
DWIDTH 16 0
BBX 15 23 0 0
BITMAP
3F80
3FE0
2070
0038
0018
001C
000C
000E
000E
000E
0306
1FFE
381E
3006
700E
600E
E00C
E00C
6018
7038
7070
3FE0
0F80
ENDCHAR
STARTCHAR char8721
ENCODING 8721
SWIDTH 7 0
DWIDTH 23 0
BBX 16 28 3 -3
BITMAP
FFFF
FFFF
FFFF
E000
7000
7000
3000
3800
3800
1C00
1C00
0C00
0E00
0E00
0E00
0E00
0E00
1C00
1C00
1800
3800
3800
7000
7000
6000
FFFF
FFFF
FFFF
ENDCHAR
STARTCHAR char8722
ENCODING 8722
SWIDTH 24 0
DWIDTH 19 0
BBX 15 2 2 7
BITMAP
FFFE
FFFE
ENDCHAR
STARTCHAR char8723
ENCODING 8723
SWIDTH 24 0
DWIDTH 19 0
BBX 15 17 2 -1
BITMAP
FFFE
FFFE
0000
0000
0300
0300
0300
0300
0300
FFFE
FFFE
0300
0300
0300
0300
0300
0300
ENDCHAR
STARTCHAR char8725
ENCODING 8725
SWIDTH 0 0
DWIDTH 0 0
BBX 16 23 -8 -1
BITMAP
0003
0006
0006
000C
0018
0018
0030
0020
0060
00C0
00C0
0180
0300
0300
0600
0400
0C00
1800
1800
3000
6000
6000
C000
ENDCHAR
STARTCHAR char8727
ENCODING 8727
SWIDTH 16 0
DWIDTH 16 0
BBX 12 12 2 2
BITMAP
0600
0600
0600
4620
F7F0
FFF0
1F80
0F00
1F80
39C0
39C0
1080
ENDCHAR
STARTCHAR char8730
ENCODING 8730
SWIDTH 19 0
DWIDTH 17 0
BBX 14 30 2 -2
BITMAP
000C
000C
000C
0008
0008
0018
0018
0018
0010
0010
0030
0030
0030
6030
E020
3060
3060
1860
1860
0840
0C40
04C0
06C0
06C0
0380
0380
0180
0180
0080
0080
ENDCHAR
STARTCHAR char8734
ENCODING 8734
SWIDTH 7 0
DWIDTH 23 0
BBX 21 13 1 2
BITMAP
1E03C0
3F8FE0
7FCFF0
61DC38
E0F818
C07818
C07018
C07018
C0F818
61DC38
7FCFF0
3F87E0
1E03C0
ENDCHAR
STARTCHAR char8738
ENCODING 8738
SWIDTH 24 0
DWIDTH 19 0
BBX 13 17 3 0
BITMAP
0100
0380
01B0
01F8
03E0
0FE0
3E60
F860
E060
F860
3E60
0FE0
03E0
01F8
01B0
0380
0100
ENDCHAR
STARTCHAR char8776
ENCODING 8776
SWIDTH 2 0
DWIDTH 21 0
BBX 14 11 3 3
BITMAP
3C00
7E0C
678C
C1FC
0078
0000
3C00
7F0C
678C
C1FC
0078
ENDCHAR
STARTCHAR char8800
ENCODING 8800
SWIDTH 24 0
DWIDTH 19 0
BBX 15 18 2 -1
BITMAP
0010
0038
0030
0070
0060
FFFE
FFFE
0180
0380
0300
0700
FFFE
FFFE
0C00
1C00
1800
3000
1000
ENDCHAR
STARTCHAR char8804
ENCODING 8804
SWIDTH 24 0
DWIDTH 19 0
BBX 10 23 4 -1
BITMAP
0040
0040
01C0
03C0
0700
0E00
1C00
3800
F000
E000
E000
F000
3800
1C00
0E00
0700
03C0
00C0
0040
0000
0000
FFC0
FFC0
ENDCHAR
STARTCHAR char8805
ENCODING 8805
SWIDTH 24 0
DWIDTH 19 0
BBX 11 23 4 -1
BITMAP
8000
C000
E000
7000
3C00
1E00
0700
0380
01C0
00E0
00E0
01C0
0380
0700
1E00
3800
7000
E000
C000
8000
0000
FFC0
FFC0
ENDCHAR
STARTCHAR char8902
ENCODING 8902
SWIDTH 22 0
DWIDTH 18 0
BBX 16 16 1 1
BITMAP
0180
0180
0180
0180
0180
C183
F99F
3FFC
07E0
03C0
07C0
0660
0C70
1C38
1818
1008
ENDCHAR
STARTCHAR char8960
ENCODING 8960
SWIDTH 24 0
DWIDTH 19 0
BBX 14 15 2 1
BITMAP
07CC
1FFC
3C78
7078
70FC
61CC
638C
670C
6E0C
7E1C
7C38
3C70
7FF0
E7C0
4000
ENDCHAR
STARTCHAR char9001
ENCODING 9001
SWIDTH 19 0
DWIDTH 17 0
BBX 12 30 2 -7
BITMAP
0030
0070
00E0
00C0
01C0
0380
0300
0700
0E00
0C00
1C00
1800
3000
7000
6000
E000
7000
3000
3800
1C00
0C00
0E00
0700
0300
0380
01C0
00C0
00E0
0070
0030
ENDCHAR
STARTCHAR char9002
ENCODING 9002
SWIDTH 19 0
DWIDTH 17 0
BBX 12 30 2 -7
BITMAP
E000
7000
3000
3800
1C00
0C00
0E00
0700
0300
0380
01C0
00C0
00E0
0070
0030
0030
0070
00E0
00C0
01C0
0380
0300
0700
0E00
0C00
1C00
3800
3000
7000
E000
ENDCHAR
STARTCHAR char9250
ENCODING 9250
SWIDTH 22 0
DWIDTH 18 0
BBX 17 23 0 0
BITMAP
300000
300000
300000
338000
3F0000
780000
F1F000
37FC00
37FE00
3C0F00
380700
380700
380380
300380
300380
300380
380380
380700
380700
3C0E00
3FFE00
37FC00
31F000
ENDCHAR
STARTCHAR char9251
ENCODING 9251
SWIDTH 16 0
DWIDTH 16 0
BBX 12 10 2 -3
BITMAP
E070
E070
E070
E070
E070
E070
E070
E070
FFF0
FFF0
ENDCHAR
STARTCHAR char9674
ENCODING 9674
SWIDTH 16 0
DWIDTH 16 0
BBX 15 23 0 0
BITMAP
0180
03C0
07C0
06E0
0E70
0C30
1838
3818
301C
700E
E006
C006
E006
700E
301C
3818
1838
0C30
0E70
06E0
07C0
03C0
0180
ENDCHAR
STARTCHAR char9702
ENCODING 9702
SWIDTH 2 0
DWIDTH 11 0
BBX 8 8 2 7
BITMAP
38
FE
E6
C7
C7
E6
FE
3C
ENDCHAR
STARTCHAR char9834
ENCODING 9834
SWIDTH 2 0
DWIDTH 21 0
BBX 18 23 2 0
BITMAP
00E000
00E000
00E000
00F000
00F800
00F800
00FC00
00EE00
00E700
00E380
00E380
00E1C0
00E1C0
00E0C0
00E0C0
1EE000
7FE000
7FE000
FFE000
FFE000
FFE000
7FC000
1F0000
ENDCHAR
STARTCHAR char9901
ENCODING 9901
SWIDTH 22 0
DWIDTH 18 0
BBX 26 17 -4 0
BITMAP
03E1F000
0FFFFC00
3E3F1F00
381E0700
703F0380
60330180
C07381C0
C07381C0
C06380C0
C07380C0
C07381C0
60330180
703F0380
381E0700
3E3F1F00
0FFFFC00
07E1F800
ENDCHAR
STARTCHAR char9902
ENCODING 9902
SWIDTH 22 0
DWIDTH 18 0
BBX 31 34 -7 -9
BITMAP
00018000
00018000
00018000
00018000
00018000
00018000
00018000
00018000
00018000
0FC183F0
3FE187F8
38618E1C
70718C0E
60319C06
60399C06
E0399806
E0399806
E0399806
E0399806
60399C06
60319C06
70718C0E
38618E1C
3FE187F8
1FC183F0
00018000
00018000
00018000
00018000
00018000
00018000
00018000
00018000
00018000
ENDCHAR
STARTCHAR char10214
ENCODING 10214
SWIDTH 8 0
DWIDTH 13 0
BBX 9 30 2 -7
BITMAP
FF80
FF80
FF80
C600
C600
C600
C600
C600
C600
C600
C600
C600
C600
C600
C600
C600
C600
C600
C600
C600
C600
C600
C600
C600
C600
C600
C600
FF80
FF80
FF80
ENDCHAR
STARTCHAR char10215
ENCODING 10215
SWIDTH 8 0
DWIDTH 13 0
BBX 9 30 2 -7
BITMAP
FF80
FF80
FF80
3980
3980
3980
3980
3980
3980
3980
3980
3980
3980
3980
3980
3980
3980
3980
3980
3980
3980
3980
3980
3980
3980
3980
3980
FF80
FF80
FF80
ENDCHAR
STARTCHAR char10877
ENCODING 10877
SWIDTH 24 0
DWIDTH 19 0
BBX 10 27 4 -5
BITMAP
0040
0040
01C0
03C0
0700
0E00
1C00
3800
F000
E000
E000
F000
3800
1C00
0E00
0700
83C0
E1C0
F040
3800
1C00
0E00
0700
03C0
01C0
0040
0040
ENDCHAR
STARTCHAR char10878
ENCODING 10878
SWIDTH 24 0
DWIDTH 19 0
BBX 10 27 4 -5
BITMAP
8000
8000
E000
F000
3800
1C00
0E00
0700
03C0
01C0
01C0
03C0
0700
0E00
1C00
3800
F040
E1C0
83C0
0700
0E00
1C00
3800
F000
E000
8000
8000
ENDCHAR
STARTCHAR char57344
ENCODING 57344
SWIDTH 22 0
DWIDTH 18 0
BBX 16 27 1 0
BITMAP
003C
0078
00E0
01C0
0000
381C
1FF8
0FF0
0000
0000
03C0
03C0
07E0
07E0
0660
0E70
0E70
0C30
1C38
1838
3FFC
3FFC
301C
700E
700E
E006
E007
ENDCHAR
STARTCHAR char57345
ENCODING 57345
SWIDTH 22 0
DWIDTH 18 0
BBX 16 29 1 -6
BITMAP
1818
1E70
0FF0
03C0
0000
0000
03C0
03C0
07E0
07E0
0660
0E70
0E70
0C30
1C38
1838
3FFC
3FFC
301C
700E
700E
E006
E007
0000
0000
0000
03C0
03C0
03C0
ENDCHAR
STARTCHAR char57346
ENCODING 57346
SWIDTH 22 0
DWIDTH 18 0
BBX 16 27 1 0
BITMAP
3C00
1E00
0700
0380
0000
381C
1FF8
0FF0
0000
0000
03C0
03C0
07E0
07E0
0660
0E70
0E70
0C30
1C38
1838
3FFC
3FFC
301C
700E
700E
E006
E007
ENDCHAR
STARTCHAR char57347
ENCODING 57347
SWIDTH 22 0
DWIDTH 18 0
BBX 16 29 1 0
BITMAP
0080
07E0
0670
0C70
00E0
0180
0180
381C
1FF8
0FF0
0000
0000
03C0
03C0
07E0
07E0
0660
0E70
0E70
0C30
1C38
1838
3FFC
3FFC
301C
700E
700E
E006
E007
ENDCHAR
STARTCHAR char57348
ENCODING 57348
SWIDTH 22 0
DWIDTH 18 0
BBX 16 27 1 0
BITMAP
0E18
0FF8
1BF0
1800
0000
381C
1FF8
0FF0
0000
0000
03C0
03C0
07E0
07E0
0660
0E70
0E70
0C30
1C38
1838
3FFC
3FFC
301C
700E
700E
E006
E007
ENDCHAR
STARTCHAR char57349
ENCODING 57349
SWIDTH 22 0
DWIDTH 18 0
BBX 16 23 1 0
BITMAP
0C30
0660
07E0
03C0
0000
0000
03C0
03C0
07E0
07E0
0660
0E70
0E70
0C30
1C38
1838
3FFC
3FFC
301C
700E
700E
E006
E007
ENDCHAR
STARTCHAR char57350
ENCODING 57350
SWIDTH 22 0
DWIDTH 18 0
BBX 16 28 1 0
BITMAP
003C
0078
00F0
01C0
0000
03C0
07E0
0E70
1C18
0000
0000
03C0
03C0
07E0
07E0
0660
0E70
0E70
0C30
1C38
1838
3FFC
3FFC
301C
700E
700E
E006
E007
ENDCHAR
STARTCHAR char57351
ENCODING 57351
SWIDTH 22 0
DWIDTH 18 0
BBX 16 29 1 -6
BITMAP
03C0
07E0
0660
0C30
0000
0000
03C0
03C0
07E0
07E0
0660
0E70
0E70
0C30
1C38
1838
3FFC
3FFC
301C
700E
700E
E006
E007
0000
0000
0000
03C0
03C0
03C0
ENDCHAR
STARTCHAR char57352
ENCODING 57352
SWIDTH 22 0
DWIDTH 18 0
BBX 16 28 1 0
BITMAP
3C00
1E00
0700
0380
0000
03C0
07E0
0E70
1C18
0000
0000
03C0
03C0
07E0
07E0
0660
0E70
0E70
0C30
1C38
1838
3FFC
3FFC
301C
700E
700E
E006
E007
ENDCHAR
STARTCHAR char57353
ENCODING 57353
SWIDTH 22 0
DWIDTH 18 0
BBX 16 31 1 0
BITMAP
0040
01F8
0318
0318
0038
0060
0060
0000
03C0
07E0
0E70
1C18
0000
0000
03C0
03C0
07E0
07E0
0660
0E70
0E70
0C30
1C38
1838
3FFC
3FFC
301C
700E
700E
E006
E007
ENDCHAR
STARTCHAR char57354
ENCODING 57354
SWIDTH 22 0
DWIDTH 18 0
BBX 16 27 1 0
BITMAP
0F18
1FF0
18F0
0000
03C0
07E0
0E70
1C18
0000
0000
03C0
03C0
07E0
07E0
0660
0E70
0E70
0C30
1C38
1838
3FFC
3FFC
301C
700E
700E
E006
E007
ENDCHAR
STARTCHAR char57355
ENCODING 57355
SWIDTH 22 0
DWIDTH 18 0
BBX 16 23 1 0
BITMAP
7380
39C0
18E0
0C70
0000
0000
03C0
03C0
07E0
07E0
0660
0E70
0E70
0C30
1C38
1838
3FFC
3FFC
301C
700E
700E
E006
E007
ENDCHAR
STARTCHAR char57356
ENCODING 57356
SWIDTH 22 0
DWIDTH 18 0
BBX 16 23 1 -6
BITMAP
03C0
03C0
07E0
07E0
0660
0E70
0E70
0C30
1C38
1838
3FFC
3FFC
301C
700E
700E
E006
E007
0000
0000
0000
03C0
03C0
03C0
ENDCHAR
STARTCHAR char57357
ENCODING 57357
SWIDTH 22 0
DWIDTH 18 0
BBX 16 26 1 0
BITMAP
03C0
07E0
0670
0C70
00E0
01C0
0180
0180
0000
03C0
03C0
07E0
07E0
0660
0E70
0E70
0C30
1C38
1838
3FFC
3FFC
301C
700E
700E
E006
E007
ENDCHAR
STARTCHAR char57359
ENCODING 57359
SWIDTH 22 0
DWIDTH 18 0
BBX 16 31 1 -8
BITMAP
0038
0070
00E0
00C0
0180
0000
03C0
03C0
07E0
07E0
0660
0E70
0E70
0C30
1C38
1838
3FFC
3FFC
301C
700E
700E
E006
E007
000E
000C
0018
0018
0018
001F
000F
0003
ENDCHAR
STARTCHAR char57360
ENCODING 57360
SWIDTH 22 0
DWIDTH 18 0
BBX 16 29 1 0
BITMAP
003C
0078
00E0
01C0
0000
03C0
0660
0460
0660
07E0
0180
0000
03C0
03C0
07E0
07E0
0660
0E70
0E70
0C30
1C38
1838
3FFC
3FFC
301C
700E
700E
E006
E007
ENDCHAR
STARTCHAR char57361
ENCODING 57361
SWIDTH 24 0
DWIDTH 19 0
BBX 16 17 1 0
BITMAP
3FF0
3FFC
303E
300E
3007
3007
3003
FF83
FF83
3003
3007
3007
3007
300E
303C
3FF8
3FF0
ENDCHAR
STARTCHAR char57362
ENCODING 57362
SWIDTH 24 0
DWIDTH 19 0
BBX 14 23 3 -6
BITMAP
FFC0
FFF0
C0F8
C038
C01C
C01C
C00C
C00C
C00C
C00C
C00C
C01C
C01C
C038
C0F8
FFE0
FFC0
0000
0000
0000
0700
0700
0700
ENDCHAR
STARTCHAR char57363
ENCODING 57363
SWIDTH 24 0
DWIDTH 19 0
BBX 14 22 3 -5
BITMAP
FFC0
FFF0
C0F8
C038
C01C
C01C
C00C
C00C
C00C
C00C
C00C
C01C
C01C
C038
C0F8
FFE0
FFC0
0000
0000
0000
3FE0
3FE0
ENDCHAR
STARTCHAR char57364
ENCODING 57364
SWIDTH 22 0
DWIDTH 8 0
BBX 3 17 3 0
BITMAP
E0
E0
E0
E0
E0
E0
E0
E0
E0
E0
E0
E0
E0
E0
E0
E0
E0
ENDCHAR
STARTCHAR char57365
ENCODING 57365
SWIDTH 10 0
DWIDTH 14 0
BBX 10 17 1 0
BITMAP
00C0
00C0
00C0
00C0
00C0
00C0
00C0
00C0
00C0
00C0
00C0
E0C0
E0C0
E1C0
F1C0
7F80
3F00
ENDCHAR
STARTCHAR char57366
ENCODING 57366
SWIDTH 19 0
DWIDTH 17 0
BBX 13 28 3 0
BITMAP
00F0
01E0
01C0
0300
0400
0F00
1F80
39C0
7060
0000
0000
FFF8
FFF8
C000
C000
C000
C000
C000
FFF0
FFF0
C000
C000
C000
C000
C000
C000
FFF8
FFF8
ENDCHAR
STARTCHAR char57367
ENCODING 57367
SWIDTH 19 0
DWIDTH 17 0
BBX 13 29 3 -6
BITMAP
0F00
1F80
19C0
30C0
0000
0000
FFF8
FFF8
C000
C000
C000
C000
C000
FFF0
FFF0
C000
C000
C000
C000
C000
C000
FFF8
FFF8
0000
0000
0000
0E00
0E00
0E00
ENDCHAR
STARTCHAR char57368
ENCODING 57368
SWIDTH 19 0
DWIDTH 17 0
BBX 13 28 3 0
BITMAP
F000
7800
1C00
0E00
0000
0F00
1F80
39C0
7060
0000
0000
FFF8
FFF8
C000
C000
C000
C000
C000
FFF0
FFF0
C000
C000
C000
C000
C000
C000
FFF8
FFF8
ENDCHAR
STARTCHAR char57369
ENCODING 57369
SWIDTH 19 0
DWIDTH 17 0
BBX 13 31 3 0
BITMAP
0080
07E0
0630
0C70
00E0
0180
0180
0000
0F00
1F80
39C0
7060
0000
0000
FFF8
FFF8
C000
C000
C000
C000
C000
FFF0
FFF0
C000
C000
C000
C000
C000
C000
FFF8
FFF8
ENDCHAR
STARTCHAR char57370
ENCODING 57370
SWIDTH 19 0
DWIDTH 17 0
BBX 13 27 3 0
BITMAP
3C60
7FE0
63C0
0000
0F00
1F80
39C0
7060
0000
0000
FFF8
FFF8
C000
C000
C000
C000
C000
FFF0
FFF0
C000
C000
C000
C000
C000
C000
FFF8
FFF8
ENDCHAR
STARTCHAR char57371
ENCODING 57371
SWIDTH 19 0
DWIDTH 17 0
BBX 14 23 2 0
BITMAP
E700
7380
39C0
1860
0000
0000
7FFC
7FFC
6000
6000
6000
6000
6000
7FF8
7FF8
6000
6000
6000
6000
6000
6000
7FFC
7FFC
ENDCHAR
STARTCHAR char57372
ENCODING 57372
SWIDTH 19 0
DWIDTH 17 0
BBX 13 23 3 -6
BITMAP
FFF8
FFF8
C000
C000
C000
C000
C000
FFF0
FFF0
C000
C000
C000
C000
C000
C000
FFF8
FFF8
0000
0000
0000
0E00
0E00
0E00
ENDCHAR
STARTCHAR char57373
ENCODING 57373
SWIDTH 19 0
DWIDTH 17 0
BBX 13 26 3 0
BITMAP
0700
1F80
18C0
10C0
0180
0700
0600
0600
0000
FFF8
FFF8
C000
C000
C000
C000
C000
FFF0
FFF0
C000
C000
C000
C000
C000
C000
FFF8
FFF8
ENDCHAR
STARTCHAR char57374
ENCODING 57374
SWIDTH 19 0
DWIDTH 17 0
BBX 13 31 3 -8
BITMAP
01E0
01C0
0380
0300
0600
0000
FFF8
FFF8
C000
C000
C000
C000
C000
FFF0
FFF0
C000
C000
C000
C000
C000
C000
FFF8
FFF8
0070
00E0
00C0
00C0
01C0
00F8
00F8
0018
ENDCHAR
STARTCHAR char57375
ENCODING 57375
SWIDTH 19 0
DWIDTH 17 0
BBX 13 17 3 0
BITMAP
FFF8
FFF8
0038
0038
0038
0038
0038
7FF8
7FF8
0038
0038
0038
0038
0038
0038
FFF8
FFF8
ENDCHAR
STARTCHAR char57376
ENCODING 57376
SWIDTH 19 0
DWIDTH 17 0
BBX 13 22 3 0
BITMAP
3C60
7FE0
67C0
0000
0000
FFF8
FFF8
C000
C000
C000
C000
C000
FFF0
FFF0
C000
C000
C000
C000
C000
C000
FFF8
FFF8
ENDCHAR
STARTCHAR char57377
ENCODING 57377
SWIDTH 19 0
DWIDTH 17 0
BBX 13 17 3 0
BITMAP
FFF8
FFF8
0038
0038
0038
0038
0038
0038
7FF8
7FF8
0038
0038
0038
0038
0038
FFF8
FFF8
ENDCHAR
STARTCHAR char57378
ENCODING 57378
SWIDTH 27 0
DWIDTH 20 0
BBX 17 23 1 0
BITMAP
001C00
003800
003000
006000
00C000
000000
03F000
0FFC00
1E1E00
380700
700380
600380
E00000
E00000
E07F80
E07F80
E00180
600180
700380
380780
3E1F80
0FFD80
07F180
ENDCHAR
STARTCHAR char57379
ENCODING 57379
SWIDTH 27 0
DWIDTH 20 0
BBX 17 23 1 0
BITMAP
061800
073800
03B000
01F000
01E000
000000
03F000
0FFC00
1E1E00
380700
700380
600380
E00000
E00000
E07F80
E07F80
E00180
600180
700380
380780
3E1F80
0FFD80
07F180
ENDCHAR
STARTCHAR char57380
ENCODING 57380
SWIDTH 18 0
DWIDTH 37 0
BBX 32 17 2 0
BITMAP
0FE003F0
3FF00FFC
78381E1E
701C1807
601C3807
60003800
70001E00
7F001FE0
1FF007FC
03F8007E
001C0007
E00E3003
E00E3803
600C3807
783C1E0F
3FF80FFE
0FE003F8
ENDCHAR
STARTCHAR char57381
ENCODING 57381
SWIDTH 24 0
DWIDTH 19 0
BBX 14 22 3 0
BITMAP
1E60
3FE0
33E0
0000
0000
C01C
C01C
C01C
C01C
C01C
C01C
C01C
FFFC
FFFC
C01C
C01C
C01C
C01C
C01C
C01C
C01C
C01C
ENDCHAR
STARTCHAR char57382
ENCODING 57382
SWIDTH 24 0
DWIDTH 19 0
BBX 14 23 3 -6
BITMAP
C01C
C01C
C01C
C01C
C01C
C01C
C01C
FFFC
FFFC
C01C
C01C
C01C
C01C
C01C
C01C
C01C
C01C
0000
0000
6030
78F0
3FE0
1FC0
ENDCHAR
STARTCHAR char57383
ENCODING 57383
SWIDTH 24 0
DWIDTH 19 0
BBX 14 22 3 0
BITMAP
18E0
18E0
18E0
0000
0000
C01C
C01C
C01C
C01C
C01C
C01C
C01C
FFFC
FFFC
C01C
C01C
C01C
C01C
C01C
C01C
C01C
C01C
ENDCHAR
STARTCHAR char57384
ENCODING 57384
SWIDTH 22 0
DWIDTH 8 0
BBX 8 23 0 0
BITMAP
C3
67
3E
3C
00
00
1C
1C
1C
1C
1C
1C
1C
1C
1C
1C
1C
1C
1C
1C
1C
1C
1C
ENDCHAR
STARTCHAR char57385
ENCODING 57385
SWIDTH 22 0
DWIDTH 8 0
BBX 11 23 -3 0
BITMAP
E780
7380
39C0
1C60
0000
0000
0380
0380
0380
0380
0380
0380
0380
0380
0380
0380
0380
0380
0380
0380
0380
0380
0380
ENDCHAR
STARTCHAR char57386
ENCODING 57386
SWIDTH 22 0
DWIDTH 8 0
BBX 11 28 0 0
BITMAP
03E0
0780
0E00
0C00
0000
0000
E700
E700
E700
0000
0000
1C00
1C00
1C00
1C00
1C00
1C00
1C00
1C00
1C00
1C00
1C00
1C00
1C00
1C00
1C00
1C00
1C00
ENDCHAR
STARTCHAR char57388
ENCODING 57388
SWIDTH 22 0
DWIDTH 8 0
BBX 3 23 3 -6
BITMAP
E0
E0
E0
E0
E0
E0
E0
E0
E0
E0
E0
E0
E0
E0
E0
E0
E0
00
00
00
E0
E0
E0
ENDCHAR
STARTCHAR char57389
ENCODING 57389
SWIDTH 22 0
DWIDTH 8 0
BBX 7 26 1 0
BITMAP
38
FC
C6
C6
0C
1C
30
30
00
38
38
38
38
38
38
38
38
38
38
38
38
38
38
38
38
38
ENDCHAR
STARTCHAR char57390
ENCODING 57390
SWIDTH 22 0
DWIDTH 8 0
BBX 5 22 2 0
BITMAP
F8
F8
00
00
00
70
70
70
70
70
70
70
70
70
70
70
70
70
70
70
70
70
ENDCHAR
STARTCHAR char57391
ENCODING 57391
SWIDTH 22 0
DWIDTH 8 0
BBX 8 31 1 -8
BITMAP
07
0E
1C
18
30
00
38
38
38
38
38
38
38
38
38
38
38
38
38
38
38
38
38
30
60
C0
C0
E0
F8
78
18
ENDCHAR
STARTCHAR char57392
ENCODING 57392
SWIDTH 10 0
DWIDTH 14 0
BBX 14 23 1 0
BITMAP
003C
0038
0070
0060
00C0
0000
00C0
00C0
00C0
00C0
00C0
00C0
00C0
00C0
00C0
00C0
00C0
E0C0
E0C0
E1C0
F1C0
7F80
3F00
ENDCHAR
STARTCHAR char57393
ENCODING 57393
SWIDTH 13 0
DWIDTH 15 0
BBX 15 22 -1 0
BITMAP
79C0
FF80
CF80
0000
0000
1C00
1C00
1C00
1C00
1C00
1C00
1C00
1C00
1C00
1C00
1C00
1C00
1C00
1C00
1C00
1FFE
1FFE
ENDCHAR
STARTCHAR char57394
ENCODING 57394
SWIDTH 16 0
DWIDTH 16 0
BBX 13 17 2 0
BITMAP
3000
3000
3000
3000
3000
3200
3600
3C00
3800
7000
F000
F000
B000
3000
3000
3FF8
3FF8
ENDCHAR
STARTCHAR char57395
ENCODING 57395
SWIDTH 27 0
DWIDTH 20 0
BBX 18 23 1 0
BITMAP
061800
073800
037000
03E000
01E000
000000
03F000
0FFC00
3E1E00
380700
700380
600180
E001C0
E001C0
E001C0
E001C0
E001C0
600180
700380
780700
3E1F00
1FFC00
03F000
ENDCHAR
STARTCHAR char57396
ENCODING 57396
SWIDTH 27 0
DWIDTH 20 0
BBX 18 27 1 0
BITMAP
001E00
003800
007000
00E000
000000
01E000
03F000
073800
0E1C00
000000
03F000
0FFC00
3E1E00
380700
700380
600180
E001C0
E001C0
E001C0
E001C0
E001C0
600180
700380
780700
3E1F00
1FFC00
03F000
ENDCHAR
STARTCHAR char57397
ENCODING 57397
SWIDTH 27 0
DWIDTH 20 0
BBX 18 28 1 -5
BITMAP
01E000
03E000
037000
073800
061800
000000
03F000
0FFC00
3E1E00
380700
700380
600180
E001C0
E001C0
E001C0
E001C0
E001C0
600180
700380
780700
3E1F00
1FFC00
03F000
000000
000000
01E000
01E000
01E000
ENDCHAR
STARTCHAR char57398
ENCODING 57398
SWIDTH 27 0
DWIDTH 20 0
BBX 18 28 1 0
BITMAP
1E0000
0F0000
070000
038000
01C000
000000
01E000
03F000
073800
0E1C00
000000
03F000
0FFC00
3E1E00
380700
700380
600180
E001C0
E001C0
E001C0
E001C0
E001C0
600180
700380
780700
3E1F00
1FFC00
03F000
ENDCHAR
STARTCHAR char57399
ENCODING 57399
SWIDTH 27 0
DWIDTH 20 0
BBX 18 30 1 0
BITMAP
007800
00FC00
018C00
000C00
003800
003000
003000
000000
01E000
03F000
073800
0E1C00
000000
03F000
0FFC00
3E1E00
380700
700380
600180
E001C0
E001C0
E001C0
E001C0
E001C0
600180
700380
780700
3E1F00
1FFC00
03F000
ENDCHAR
STARTCHAR char57400
ENCODING 57400
SWIDTH 27 0
DWIDTH 20 0
BBX 18 27 1 0
BITMAP
078C00
0FF800
0C7800
000000
01E000
03F000
073800
061800
0C0C00
000000
03F000
0FFC00
3E1E00
380700
700380
600180
E001C0
E001C0
E001C0
E001C0
E001C0
600180
700380
780700
3E1F00
1FFC00
03F000
ENDCHAR
STARTCHAR char57401
ENCODING 57401
SWIDTH 27 0
DWIDTH 20 0
BBX 18 23 1 0
BITMAP
79C000
38E000
1C6000
0E7000
063800
000000
03F000
0FFC00
3E1E00
380700
700380
600180
E001C0
E001C0
E001C0
E001C0
E001C0
600180
700380
780700
3E1F00
1FFC00
03F000
ENDCHAR
STARTCHAR char57402
ENCODING 57402
SWIDTH 27 0
DWIDTH 20 0
BBX 18 22 1 -5
BITMAP
03F000
0FFC00
3E1E00
380700
700380
600180
E001C0
E001C0
E001C0
E001C0
E001C0
600180
700380
780700
3E1F00
1FFC00
03F000
000000
000000
01E000
01E000
01E000
ENDCHAR
STARTCHAR char57403
ENCODING 57403
SWIDTH 13 0
DWIDTH 25 0
BBX 23 17 1 0
BITMAP
07EFFE
1FFFFE
3C3E00
701E00
700E00
600E00
E00E00
E00FFE
E00FFE
E00E00
E00E00
600E00
700E00
701E00
3C3E00
1FFFFE
07CFFE
ENDCHAR
STARTCHAR char57404
ENCODING 57404
SWIDTH 27 0
DWIDTH 20 0
BBX 18 25 1 0
BITMAP
01E000
03F000
061800
063000
007000
00C000
00C000
000000
03F000
0FFC00
3E1E00
380700
700380
600180
E001C0
E001C0
E001C0
E001C0
E001C0
600180
700380
780700
3E1F00
1FFC00
03F000
ENDCHAR
STARTCHAR char57405
ENCODING 57405
SWIDTH 2 0
DWIDTH 21 0
BBX 19 20 1 0
BITMAP
0000E0
0000E0
0000E0
03F060
0FFE60
1F1F40
3807C0
700380
7001C0
6001C0
E001C0
E000C0
E001C0
6001C0
7001C0
700380
380780
1E1F00
0FFE00
03F800
ENDCHAR
STARTCHAR char57406
ENCODING 57406
SWIDTH 2 0
DWIDTH 21 0
BBX 19 23 1 0
BITMAP
001E00
003C00
003800
0070E0
00E0E0
0000E0
03F060
0FFE60
1F1F40
3807C0
700380
7001C0
6001C0
E001C0
E000C0
E001C0
6001C0
7001C0
700380
380780
1E1F00
0FFE00
03F800
ENDCHAR
STARTCHAR char57407
ENCODING 57407
SWIDTH 2 0
DWIDTH 21 0
BBX 19 25 1 -5
BITMAP
0000E0
0000E0
0000E0
03F060
0FFE60
1F1F40
3807C0
700380
7001C0
6001C0
E001C0
E000C0
E001C0
6001C0
7001C0
700380
380780
1E1F00
0FFE00
03F800
000000
000000
00E000
00E000
00E000
ENDCHAR
STARTCHAR char57408
ENCODING 57408
SWIDTH 2 0
DWIDTH 21 0
BBX 19 23 1 0
BITMAP
0F0000
070000
038000
0180E0
00C0E0
0000E0
03F060
0FFE60
1F1F40
3807C0
700380
7001C0
6001C0
E001C0
E000C0
E001C0
6001C0
7001C0
700380
380780
1E1F00
0FFE00
03F800
ENDCHAR
STARTCHAR char57409
ENCODING 57409
SWIDTH 2 0
DWIDTH 21 0
BBX 19 25 1 0
BITMAP
01F000
03F800
031800
031800
007000
00E0E0
00C0E0
0000E0
03F060
0FFE60
1F1F40
3807C0
700380
7001C0
6001C0
E001C0
E000C0
E001C0
6001C0
7001C0
700380
380780
1E1F00
0FFE00
03F800
ENDCHAR
STARTCHAR char57410
ENCODING 57410
SWIDTH 2 0
DWIDTH 21 0
BBX 19 22 1 0
BITMAP
078C00
07FC00
0CF8E0
0000E0
0000E0
03F060
0FFE60
1F1F40
3807C0
700380
7001C0
6001C0
E001C0
E000C0
E001C0
6001C0
7001C0
700380
380780
1E1F00
0FFE00
03F800
ENDCHAR
STARTCHAR char57411
ENCODING 57411
SWIDTH 27 0
DWIDTH 20 0
BBX 18 24 1 -7
BITMAP
03F000
0FFC00
3E1E00
380700
700380
600180
E001C0
E001C0
E001C0
E001C0
E001C0
E00180
700380
380700
3E1F00
0FFC00
03F000
00C000
018000
018000
038000
03C000
01F000
00F000
ENDCHAR
STARTCHAR char57412
ENCODING 57412
SWIDTH 27 0
DWIDTH 20 0
BBX 18 30 1 -7
BITMAP
001C00
003800
007000
006000
00C000
000000
03F000
0FFC00
3E1E00
380700
700380
600180
E001C0
E001C0
E001C0
E001C0
E001C0
E00180
700380
380700
3E1F00
0FFC00
03F000
00C000
018000
018000
038000
03C000
01F000
00F000
ENDCHAR
STARTCHAR char57413
ENCODING 57413
SWIDTH 24 0
DWIDTH 19 0
BBX 16 23 2 0
BITMAP
F780
71C0
18C0
0C60
0000
0000
7FF0
7FFC
603C
600E
600E
600E
600E
601C
7FF8
7FFC
601C
600C
600E
600E
600E
600E
600F
ENDCHAR
STARTCHAR char57414
ENCODING 57414
SWIDTH 24 0
DWIDTH 19 0
BBX 15 22 3 0
BITMAP
0700
0700
0700
0000
0000
FFE0
FFF8
C078
C01C
C01C
C01C
C01C
C038
FFF0
FFF8
C038
C018
C01C
C01C
C01C
C01C
C01E
ENDCHAR
STARTCHAR char57415
ENCODING 57415
SWIDTH 19 0
DWIDTH 17 0
BBX 15 23 1 0
BITMAP
1830
0C60
06E0
07C0
0380
0000
0FE0
1FF8
3838
701C
700C
7000
7800
3F00
1FF0
03F8
001C
E00E
E00E
700E
783C
3FF8
0FE0
ENDCHAR
STARTCHAR char57416
ENCODING 57416
SWIDTH 19 0
DWIDTH 17 0
BBX 15 22 1 -5
BITMAP
0FE0
1FF8
3838
701C
700C
7000
7800
3F00
1FF0
03F8
001C
E00E
E00E
700E
783C
3FF8
0FE0
0000
0000
0380
0380
0380
ENDCHAR
STARTCHAR char57417
ENCODING 57417
SWIDTH 13 0
DWIDTH 15 0
BBX 15 22 0 0
BITMAP
0F18
1FF0
19F0
0000
0000
FFFE
FFFE
0380
0380
0380
0380
0380
0380
0380
0380
0380
0380
0380
0380
0380
0380
0380
ENDCHAR
STARTCHAR char57418
ENCODING 57418
SWIDTH 13 0
DWIDTH 15 0
BBX 15 24 0 -7
BITMAP
FFFE
FFFE
0380
0380
0380
0380
0380
0380
0380
0380
0380
0380
0380
0380
0380
0380
0380
0100
0300
03E0
00E0
0060
08E0
0FC0
ENDCHAR
STARTCHAR char57419
ENCODING 57419
SWIDTH 13 0
DWIDTH 15 0
BBX 15 22 0 0
BITMAP
0E70
0E70
0E70
0000
0000
FFFE
FFFE
0380
0380
0380
0380
0380
0380
0380
0380
0380
0380
0380
0380
0380
0380
0380
ENDCHAR
STARTCHAR char57420
ENCODING 57420
SWIDTH 13 0
DWIDTH 15 0
BBX 15 23 0 -6
BITMAP
FFFE
FFFE
0380
0380
0380
0380
0380
0380
0380
0380
0380
0380
0380
0380
0380
0380
0380
0000
0000
0000
0380
0380
0380
ENDCHAR
STARTCHAR char57421
ENCODING 57421
SWIDTH 13 0
DWIDTH 15 0
BBX 15 22 0 -5
BITMAP
FFFE
FFFE
0380
0380
0380
0380
0380
0380
0380
0380
0380
0380
0380
0380
0380
0380
0380
0000
0000
0000
1FF0
1FF0
ENDCHAR
STARTCHAR char57422
ENCODING 57422
SWIDTH 24 0
DWIDTH 19 0
BBX 14 23 3 -6
BITMAP
C01C
C01C
C01C
C01C
C01C
C01C
C01C
C01C
C01C
C01C
C01C
C01C
C01C
E038
F078
7FF0
1FC0
0000
0000
1FC0
3FF0
7070
6030
ENDCHAR
STARTCHAR char57424
ENCODING 57424
SWIDTH 24 0
DWIDTH 19 0
BBX 14 23 3 0
BITMAP
3860
1CC0
0F80
0700
0000
0000
C01C
C01C
C01C
C01C
C01C
C01C
C01C
C01C
C01C
C01C
C01C
C01C
C01C
E038
F078
7FF0
1FC0
ENDCHAR
STARTCHAR char57425
ENCODING 57425
SWIDTH 24 0
DWIDTH 19 0
BBX 15 23 2 0
BITMAP
F780
71C0
18C0
0C60
0000
0000
600E
600E
600E
600E
600E
600E
600E
600E
600E
600E
600E
600E
600E
701C
783C
3FF8
0FE0
ENDCHAR
STARTCHAR char57426
ENCODING 57426
SWIDTH 24 0
DWIDTH 19 0
BBX 14 28 3 0
BITMAP
00F8
00E0
01C0
0300
0000
0000
18E0
18E0
18E0
0000
0000
C01C
C01C
C01C
C01C
C01C
C01C
C01C
C01C
C01C
C01C
C01C
C01C
C01C
E038
F078
7FF0
1FC0
ENDCHAR
STARTCHAR char57427
ENCODING 57427
SWIDTH 24 0
DWIDTH 19 0
BBX 14 29 3 0
BITMAP
7070
38E0
1DC0
0FC0
0F80
0000
0000
18E0
18E0
18E0
0000
0000
C01C
C01C
C01C
C01C
C01C
C01C
C01C
C01C
C01C
C01C
C01C
C01C
C01C
E038
F078
7FF0
1FC0
ENDCHAR
STARTCHAR char57428
ENCODING 57428
SWIDTH 24 0
DWIDTH 19 0
BBX 14 29 3 0
BITMAP
F000
7800
1C00
0E00
0600
0000
0000
18E0
18E0
18E0
0000
0000
C01C
C01C
C01C
C01C
C01C
C01C
C01C
C01C
C01C
C01C
C01C
C01C
C01C
E038
F078
7FF0
1FC0
ENDCHAR
STARTCHAR char57429
ENCODING 57429
SWIDTH 24 0
DWIDTH 19 0
BBX 14 22 3 -5
BITMAP
C01C
C01C
C01C
C01C
C01C
C01C
C01C
C01C
C01C
C01C
C01C
C01C
C01C
E038
F078
7FF0
1FC0
0000
0000
0700
0700
0700
ENDCHAR
STARTCHAR char57430
ENCODING 57430
SWIDTH 24 0
DWIDTH 19 0
BBX 14 26 3 0
BITMAP
0700
0FC0
18C0
18C0
01C0
0380
0300
0600
0000
C01C
C01C
C01C
C01C
C01C
C01C
C01C
C01C
C01C
C01C
C01C
C01C
C01C
E038
F078
7FF0
1FC0
ENDCHAR
STARTCHAR char57431
ENCODING 57431
SWIDTH 4 0
DWIDTH 22 0
BBX 18 21 3 0
BITMAP
0001C0
0001C0
0001C0
000040
E00C40
E00CC0
E00C80
E00D80
E00F00
E00C00
E00C00
E00C00
E00C00
E00C00
E00C00
E00C00
E00C00
701C00
787800
3FF000
0FE000
ENDCHAR
STARTCHAR char57432
ENCODING 57432
SWIDTH 4 0
DWIDTH 22 0
BBX 18 23 3 0
BITMAP
007800
00F000
00E000
01C1C0
0181C0
0001C0
E00C40
E00CC0
E00CC0
E00D80
E00F00
E00C00
E00C00
E00C00
E00C00
E00C00
E00C00
E00C00
E00C00
701C00
787800
3FF000
0FE000
ENDCHAR
STARTCHAR char57433
ENCODING 57433
SWIDTH 4 0
DWIDTH 22 0
BBX 18 26 3 -5
BITMAP
0001C0
0001C0
0001C0
000040
E00C40
E00CC0
E00C80
E00D80
E00F00
E00C00
E00C00
E00C00
E00C00
E00C00
E00C00
E00C00
E00C00
701C00
787800
3FF000
0FE000
000000
000000
038000
038000
038000
ENDCHAR
STARTCHAR char57434
ENCODING 57434
SWIDTH 4 0
DWIDTH 22 0
BBX 18 23 3 0
BITMAP
3C0000
1C0000
0E0000
0601C0
0301C0
0001C0
E00C40
E00CC0
E00CC0
E00D80
E00F00
E00C00
E00C00
E00C00
E00C00
E00C00
E00C00
E00C00
E00C00
701C00
787800
3FF000
0FE000
ENDCHAR
STARTCHAR char57435
ENCODING 57435
SWIDTH 4 0
DWIDTH 22 0
BBX 18 26 3 0
BITMAP
038000
0FC000
0C6000
0C6000
00C000
0181C0
0301C0
0301C0
000040
E00C40
E00CC0
E00C80
E00D80
E00F00
E00C00
E00C00
E00C00
E00C00
E00C00
E00C00
E00C00
E00C00
701C00
787800
3FF000
0FE000
ENDCHAR
STARTCHAR char57436
ENCODING 57436
SWIDTH 4 0
DWIDTH 22 0
BBX 18 22 3 0
BITMAP
1E3000
1FF000
33E1C0
0001C0
0001C0
E00C40
E00CC0
E00CC0
E00D80
E00F00
E00C00
E00C00
E00C00
E00C00
E00C00
E00C00
E00C00
E00C00
701C00
787800
3FF000
0FE000
ENDCHAR
STARTCHAR char57437
ENCODING 57437
SWIDTH 22 0
DWIDTH 18 0
BBX 16 23 1 -6
BITMAP
E007
700E
780E
381C
1C38
1E38
0E70
07E0
07E0
03C0
0180
0180
0180
0180
0180
0180
0180
0000
0000
0000
03C0
03C0
03C0
ENDCHAR
STARTCHAR char57438
ENCODING 57438
SWIDTH 22 0
DWIDTH 18 0
BBX 16 26 1 0
BITMAP
01C0
07E0
0670
0C30
0060
01C0
0180
0180
0000
E007
700E
780E
381C
1C38
1E38
0E70
07E0
07E0
03C0
0180
0180
0180
0180
0180
0180
0180
ENDCHAR
STARTCHAR char57439
ENCODING 57439
SWIDTH 22 0
DWIDTH 18 0
BBX 16 22 1 0
BITMAP
0F18
1FF8
19F0
0000
0000
E007
700E
780E
381C
1C38
1E38
0E70
07E0
07E0
03C0
0180
0180
0180
0180
0180
0180
0180
ENDCHAR
STARTCHAR char57440
ENCODING 57440
SWIDTH 13 0
DWIDTH 15 0
BBX 14 23 1 0
BITMAP
1860
0CC0
0FC0
0780
0000
0000
FFFC
FFFC
0038
0078
00F0
00E0
01C0
0380
0700
0F00
1E00
1C00
3800
7000
E000
FFFC
FFFC
ENDCHAR
STARTCHAR char57441
ENCODING 57441
SWIDTH 13 0
DWIDTH 15 0
BBX 14 23 1 -6
BITMAP
FFFC
FFFC
0038
0078
00F0
00E0
01C0
0380
0700
0F00
1E00
1C00
3800
7000
E000
FFFC
FFFC
0000
0000
0000
0780
0780
0780
ENDCHAR
STARTCHAR char59395
ENCODING 59395
SWIDTH 13 0
DWIDTH 25 0
BBX 24 23 1 0
BITMAP
0E3800
3E3800
3C3800
303800
303800
303800
FE381E
FE383C
303878
3038F0
3039E0
303BC0
303FC0
303FC0
303EE0
303CF0
303870
303838
30383C
30381C
30381E
30380E
303807
ENDCHAR
STARTCHAR char59904
ENCODING 59904
SWIDTH 2 0
DWIDTH 11 0
BBX 7 4 5 19
BITMAP
3E
38
70
E0
ENDCHAR
STARTCHAR char59905
ENCODING 59905
SWIDTH 0 0
DWIDTH 0 0
BBX 7 4 -10 25
BITMAP
1E
3C
70
E0
ENDCHAR
STARTCHAR char59906
ENCODING 59906
SWIDTH 2 0
DWIDTH 11 0
BBX 11 4 0 18
BITMAP
C060
F1E0
FFC0
3F80
ENDCHAR
STARTCHAR char59907
ENCODING 59907
SWIDTH 2 0
DWIDTH 11 0
BBX 12 9 0 18
BITMAP
01F0
03C0
0780
0600
0000
C060
F1E0
FFC0
3F80
ENDCHAR
STARTCHAR char59908
ENCODING 59908
SWIDTH 2 0
DWIDTH 11 0
BBX 12 9 0 18
BITMAP
01F0
03C0
0780
0600
0000
C060
F1E0
FFC0
3F80
ENDCHAR
STARTCHAR char59909
ENCODING 59909
SWIDTH 2 0
DWIDTH 11 0
BBX 11 4 0 -6
BITMAP
C060
F1E0
FFC0
3F80
ENDCHAR
STARTCHAR char59910
ENCODING 59910
SWIDTH 2 0
DWIDTH 11 0
BBX 11 4 0 -6
BITMAP
3F80
7FC0
F1E0
C060
ENDCHAR
STARTCHAR char59911
ENCODING 59911
SWIDTH 0 0
DWIDTH 0 0
BBX 12 4 -15 25
BITMAP
E070
79E0
7FE0
1F80
ENDCHAR
STARTCHAR char59912
ENCODING 59912
SWIDTH 2 0
DWIDTH 11 0
BBX 12 9 -1 18
BITMAP
F000
3800
1C00
0E00
0000
6030
78F0
7FE0
1FC0
ENDCHAR
STARTCHAR char59913
ENCODING 59913
SWIDTH 2 0
DWIDTH 11 0
BBX 12 9 -1 18
BITMAP
F000
3800
1C00
0E00
0000
6030
78F0
7FE0
1FC0
ENDCHAR
STARTCHAR char59914
ENCODING 59914
SWIDTH 2 0
DWIDTH 11 0
BBX 11 11 0 18
BITMAP
0400
3F00
3180
3180
0700
0E00
0C00
C060
F1E0
FFC0
3F80
ENDCHAR
STARTCHAR char59915
ENCODING 59915
SWIDTH 2 0
DWIDTH 11 0
BBX 11 11 0 18
BITMAP
0400
3F00
3180
3180
0700
0E00
0C00
C060
F1E0
FFC0
3F80
ENDCHAR
STARTCHAR char59916
ENCODING 59916
SWIDTH 2 0
DWIDTH 11 0
BBX 11 4 0 18
BITMAP
3F80
7FC0
F1E0
C060
ENDCHAR
STARTCHAR char59917
ENCODING 59917
SWIDTH 2 0
DWIDTH 11 0
BBX 10 4 0 19
BITMAP
3F00
7F80
61C0
C0C0
ENDCHAR
STARTCHAR char59918
ENCODING 59918
SWIDTH 0 0
DWIDTH 0 0
BBX 12 4 -15 25
BITMAP
1F80
7FE0
78F0
E070
ENDCHAR
STARTCHAR char59919
ENCODING 59919
SWIDTH 2 0
DWIDTH 11 0
BBX 11 9 0 18
BITMAP
30C0
7FC0
EF80
C100
0000
C060
F1E0
FFC0
3F80
ENDCHAR
STARTCHAR char59920
ENCODING 59920
SWIDTH 2 0
DWIDTH 11 0
BBX 11 9 0 18
BITMAP
30C0
7FC0
EF80
C100
0000
C060
F1E0
FFC0
3F80
ENDCHAR
STARTCHAR char59921
ENCODING 59921
SWIDTH 2 0
DWIDTH 11 0
BBX 10 5 0 18
BITMAP
E0C0
71C0
3B80
3F00
1F00
ENDCHAR
STARTCHAR char59924
ENCODING 59924
SWIDTH 0 0
DWIDTH 0 0
BBX 10 4 -14 25
BITMAP
E0C0
7380
3F00
1E00
ENDCHAR
STARTCHAR char59925
ENCODING 59925
SWIDTH 2 0
DWIDTH 11 0
BBX 10 5 0 18
BITMAP
1F00
3F00
3B80
71C0
E0C0
ENDCHAR
STARTCHAR char59926
ENCODING 59926
SWIDTH 2 0
DWIDTH 11 0
BBX 12 10 0 18
BITMAP
01F0
01C0
0380
0700
0000
1F00
3F00
3F80
71C0
E0C0
ENDCHAR
STARTCHAR char59927
ENCODING 59927
SWIDTH 2 0
DWIDTH 11 0
BBX 12 10 0 18
BITMAP
01F0
01C0
0380
0700
0000
1F00
3F00
3F80
71C0
E0C0
ENDCHAR
STARTCHAR char59928
ENCODING 59928
SWIDTH 0 0
DWIDTH 0 0
BBX 10 4 -14 25
BITMAP
1E00
3F00
7380
E0C0
ENDCHAR
STARTCHAR char59929
ENCODING 59929
SWIDTH 2 0
DWIDTH 11 0
BBX 11 10 -1 18
BITMAP
F000
7800
3C00
1C00
0600
0000
0F80
1FC0
38C0
7060
ENDCHAR
STARTCHAR char59930
ENCODING 59930
SWIDTH 2 0
DWIDTH 11 0
BBX 11 10 -1 18
BITMAP
F000
7800
3C00
1C00
0600
0000
0F80
1FC0
38C0
7060
ENDCHAR
STARTCHAR char59931
ENCODING 59931
SWIDTH 2 0
DWIDTH 11 0
BBX 11 12 0 18
BITMAP
07C0
0FE0
0C60
00E0
01C0
0300
0300
0000
1F00
3F80
7180
E0C0
ENDCHAR
STARTCHAR char59932
ENCODING 59932
SWIDTH 2 0
DWIDTH 11 0
BBX 11 12 0 18
BITMAP
07C0
0FE0
0C60
00E0
01C0
0300
0300
0000
1F00
3F80
7180
E0C0
ENDCHAR
STARTCHAR char59933
ENCODING 59933
SWIDTH 2 0
DWIDTH 11 0
BBX 10 9 0 18
BITMAP
7CC0
7FC0
C780
0000
1F00
3F00
3B80
71C0
E0C0
ENDCHAR
STARTCHAR char59934
ENCODING 59934
SWIDTH 2 0
DWIDTH 11 0
BBX 10 9 0 18
BITMAP
7CC0
7FC0
C780
0000
1F00
3F00
3B80
71C0
E0C0
ENDCHAR
STARTCHAR char59935
ENCODING 59935
SWIDTH 2 0
DWIDTH 11 0
BBX 3 7 4 -9
BITMAP
E0
E0
E0
60
60
40
C0
ENDCHAR
STARTCHAR char59937
ENCODING 59937
SWIDTH 2 0
DWIDTH 11 0
BBX 11 4 0 18
BITMAP
C060
F1E0
FFC0
3F80
ENDCHAR
STARTCHAR char59938
ENCODING 59938
SWIDTH 2 0
DWIDTH 11 0
BBX 10 4 0 19
BITMAP
C0C0
61C0
7F80
3F00
ENDCHAR
STARTCHAR char59939
ENCODING 59939
SWIDTH 2 0
DWIDTH 11 0
BBX 11 4 0 18
BITMAP
3F80
7FC0
F1E0
C060
ENDCHAR
STARTCHAR char59940
ENCODING 59940
SWIDTH 2 0
DWIDTH 11 0
BBX 10 4 0 19
BITMAP
3F00
7F80
61C0
C0C0
ENDCHAR
STARTCHAR char59941
ENCODING 59941
SWIDTH 2 0
DWIDTH 11 0
BBX 11 5 -2 18
BITMAP
E700
7380
31C0
18C0
0C60
ENDCHAR
STARTCHAR char59942
ENCODING 59942
SWIDTH 2 0
DWIDTH 11 0
BBX 11 5 -2 18
BITMAP
E700
7380
31C0
18C0
0C60
ENDCHAR
STARTCHAR char59943
ENCODING 59943
SWIDTH 0 0
DWIDTH 0 0
BBX 11 5 -16 25
BITMAP
E700
F380
7180
38C0
1860
ENDCHAR
STARTCHAR char59944
ENCODING 59944
SWIDTH 2 0
DWIDTH 11 0
BBX 8 3 1 19
BITMAP
E7
E7
E7
ENDCHAR
STARTCHAR char59945
ENCODING 59945
SWIDTH 2 0
DWIDTH 11 0
BBX 11 9 1 19
BITMAP
03E0
0380
0700
0E00
0000
0000
E700
E700
E700
ENDCHAR
STARTCHAR char59946
ENCODING 59946
SWIDTH 2 0
DWIDTH 11 0
BBX 11 9 1 19
BITMAP
03E0
0780
0F00
0C00
0000
0000
E700
E700
E700
ENDCHAR
STARTCHAR char59947
ENCODING 59947
SWIDTH 2 0
DWIDTH 11 0
BBX 10 9 0 19
BITMAP
E0C0
7180
3F80
1F00
0000
0000
7380
7380
7380
ENDCHAR
STARTCHAR char59948
ENCODING 59948
SWIDTH 2 0
DWIDTH 11 0
BBX 11 10 0 19
BITMAP
E0E0
71C0
3B80
3F00
1F00
0000
0000
7380
7380
7380
ENDCHAR
STARTCHAR char59949
ENCODING 59949
SWIDTH 0 0
DWIDTH 0 0
BBX 8 3 -13 26
BITMAP
E7
E7
E7
ENDCHAR
STARTCHAR char59950
ENCODING 59950
SWIDTH 2 0
DWIDTH 11 0
BBX 10 9 -1 19
BITMAP
F000
3800
1C00
0E00
0000
0000
39C0
39C0
39C0
ENDCHAR
STARTCHAR char59951
ENCODING 59951
SWIDTH 2 0
DWIDTH 11 0
BBX 10 10 -1 19
BITMAP
F000
7800
3C00
1C00
0600
0000
0000
39C0
39C0
39C0
ENDCHAR
STARTCHAR char59952
ENCODING 59952
SWIDTH 2 0
DWIDTH 11 0
BBX 3 3 4 19
BITMAP
E0
E0
E0
ENDCHAR
STARTCHAR char59953
ENCODING 59953
SWIDTH 0 0
DWIDTH 0 0
BBX 4 3 -11 26
BITMAP
F0
F0
F0
ENDCHAR
STARTCHAR char59954
ENCODING 59954
SWIDTH 2 0
DWIDTH 11 0
BBX 7 5 -1 18
BITMAP
F0
78
3C
1C
06
ENDCHAR
STARTCHAR char59955
ENCODING 59955
SWIDTH 0 0
DWIDTH 0 0
BBX 7 4 -15 25
BITMAP
F0
78
1C
0E
ENDCHAR
STARTCHAR char59956
ENCODING 59956
SWIDTH 19 0
DWIDTH 7 0
BBX 7 7 0 18
BITMAP
10
7E
C6
C6
1C
18
18
ENDCHAR
STARTCHAR char59957
ENCODING 59957
SWIDTH 19 0
DWIDTH 7 0
BBX 7 7 0 18
BITMAP
7C
FE
C6
C6
1C
18
18
ENDCHAR
STARTCHAR char59958
ENCODING 59958
SWIDTH 0 0
DWIDTH 0 0
BBX 7 7 -12 24
BITMAP
78
FC
C6
0E
1C
30
30
ENDCHAR
STARTCHAR char59959
ENCODING 59959
SWIDTH 2 0
DWIDTH 11 0
BBX 5 8 6 12
BITMAP
38
38
38
18
18
10
30
E0
ENDCHAR
STARTCHAR char59960
ENCODING 59960
SWIDTH 2 0
DWIDTH 11 0
BBX 11 5 2 18
BITMAP
3DE0
39C0
7380
E300
C600
ENDCHAR
STARTCHAR char59961
ENCODING 59961
SWIDTH 0 0
DWIDTH 0 0
BBX 12 5 -13 25
BITMAP
1CF0
38E0
31C0
6380
C300
ENDCHAR
STARTCHAR char59962
ENCODING 59962
SWIDTH 2 0
DWIDTH 11 0
BBX 9 2 1 -5
BITMAP
FF80
FF80
ENDCHAR
STARTCHAR char59963
ENCODING 59963
SWIDTH 2 0
DWIDTH 11 0
BBX 9 2 1 20
BITMAP
FF80
FF80
ENDCHAR
STARTCHAR char59964
ENCODING 59964
SWIDTH 2 0
DWIDTH 11 0
BBX 5 2 3 20
BITMAP
F8
F8
ENDCHAR
STARTCHAR char59965
ENCODING 59965
SWIDTH 2 0
DWIDTH 11 0
BBX 5 2 3 20
BITMAP
F8
F8
ENDCHAR
STARTCHAR char59966
ENCODING 59966
SWIDTH 2 0
DWIDTH 11 0
BBX 9 2 1 -5
BITMAP
FF80
FF80
ENDCHAR
STARTCHAR char59967
ENCODING 59967
SWIDTH 0 0
DWIDTH 0 0
BBX 8 2 -13 26
BITMAP
FF
FF
ENDCHAR
STARTCHAR char59968
ENCODING 59968
SWIDTH 2 0
DWIDTH 11 0
BBX 6 6 2 18
BITMAP
78
6C
C4
C4
7C
38
ENDCHAR
STARTCHAR char59969
ENCODING 59969
SWIDTH 2 0
DWIDTH 11 0
BBX 10 11 2 18
BITMAP
07C0
0700
0E00
1C00
0000
3800
7C00
C400
C400
7C00
3800
ENDCHAR
STARTCHAR char59970
ENCODING 59970
SWIDTH 2 0
DWIDTH 11 0
BBX 10 11 2 18
BITMAP
07C0
0700
0E00
1C00
0000
3800
7C00
C400
C400
7C00
3800
ENDCHAR
STARTCHAR char59971
ENCODING 59971
SWIDTH 0 0
DWIDTH 0 0
BBX 6 6 -12 25
BITMAP
30
7C
CC
C4
CC
78
ENDCHAR
STARTCHAR char59972
ENCODING 59972
SWIDTH 2 0
DWIDTH 11 0
BBX 10 3 0 19
BITMAP
78C0
7FC0
CF80
ENDCHAR
STARTCHAR char59973
ENCODING 59973
SWIDTH 2 0
DWIDTH 11 0
BBX 10 3 0 -6
BITMAP
7CC0
7FC0
C780
ENDCHAR
STARTCHAR char59974
ENCODING 59974
SWIDTH 0 0
DWIDTH 0 0
BBX 10 3 -14 26
BITMAP
78C0
FFC0
CF80
ENDCHAR
STARTCHAR char60162
ENCODING 60162
SWIDTH 2 0
DWIDTH 11 0
BBX 6 5 5 18
BITMAP
3C
78
70
E0
C0
ENDCHAR
STARTCHAR char60163
ENCODING 60163
SWIDTH 2 0
DWIDTH 21 0
BBX 20 37 1 -8
BITMAP
000F00
001E00
003800
007000
000000
000000
00F000
01F000
01F800
01F800
03B800
039C00
079C00
071C00
070E00
0E0E00
0E0E00
0E0700
1C0700
1C0780
1FFF80
3FFF80
3803C0
3801C0
7001C0
7001E0
F000E0
E000E0
E000F0
0000C0
000180
000180
000380
000380
0001F0
0001F0
000030
ENDCHAR
STARTCHAR char60164
ENCODING 60164
SWIDTH 22 0
DWIDTH 18 0
BBX 16 30 1 -7
BITMAP
0038
0070
00E0
00C0
0180
0000
0FE0
1FF8
3EFC
781C
701C
001C
001C
03FC
1FFC
7C1C
701C
E01C
E01C
E03C
78FE
3FCF
1F07
000C
0018
0018
0018
001C
001F
000F
ENDCHAR
STARTCHAR char60165
ENCODING 60165
SWIDTH 4 0
DWIDTH 32 0
BBX 29 27 1 -6
BITMAP
003FF800
00FFFE00
03F01F80
078003C0
0F0001E0
1E0000F0
3C07C070
381FEE38
703C6C38
70703C38
60703C18
E0E03818
E0E03818
E0C03838
E1C03038
E1C07030
E0E07070
E0E0F0E0
70F1F1C0
707F7F80
383E3F00
3C000000
1E000000
0F000000
07E01800
01FFFC00
007FF800
ENDCHAR
STARTCHAR char60168
ENCODING 60168
SWIDTH 10 0
DWIDTH 24 0
BBX 22 22 1 0
BITMAP
03FE00
070380
1C00C0
300060
200030
600018
400008
C00008
80000C
80000C
800004
800004
80000C
80000C
C00008
400018
600010
300030
180060
0C01C0
078F00
01FC00
ENDCHAR
STARTCHAR char60169
ENCODING 60169
SWIDTH 22 0
DWIDTH 18 0
BBX 16 16 1 1
BITMAP
0180
0180
0180
0180
0180
C183
F99F
3FFC
07E0
03C0
07C0
0660
0C70
1C38
1818
1008
ENDCHAR
STARTCHAR char60170
ENCODING 60170
SWIDTH 2 0
DWIDTH 11 0
BBX 10 4 0 19
BITMAP
C0C0
61C0
7F80
3F00
ENDCHAR
STARTCHAR char60173
ENCODING 60173
SWIDTH 2 0
DWIDTH 11 0
BBX 9 5 1 18
BITMAP
C380
6300
7600
3E00
3C00
ENDCHAR
STARTCHAR char60175
ENCODING 60175
SWIDTH 10 0
DWIDTH 24 0
BBX 22 22 1 0
BITMAP
03FE00
070380
1C00C0
300060
20F830
63FE18
430708
C60308
86038C
80018C
800184
800184
86018C
86030C
C60308
438E18
61FC10
302030
180060
0C01C0
078F00
01FC00
ENDCHAR
STARTCHAR char60176
ENCODING 60176
SWIDTH 0 0
DWIDTH 0 0
BBX 0 0 0 0
BITMAP
ENDCHAR
STARTCHAR char60177
ENCODING 60177
SWIDTH 0 0
DWIDTH 0 0
BBX 0 0 0 0
BITMAP
ENDCHAR
STARTCHAR char60178
ENCODING 60178
SWIDTH 0 0
DWIDTH 0 0
BBX 0 0 0 0
BITMAP
ENDCHAR
STARTCHAR char60181
ENCODING 60181
SWIDTH 2 0
DWIDTH 11 0
BBX 11 5 -2 18
BITMAP
E700
7380
31C0
18C0
0C60
ENDCHAR
STARTCHAR char60182
ENCODING 60182
SWIDTH 27 0
DWIDTH 20 0
BBX 16 23 2 0
BITMAP
01C0
0180
0180
0180
0180
FFFF
FFFF
FFFF
0180
0180
0180
0180
0180
0180
0180
0180
0180
01C0
01C0
01C0
01C0
01C0
01C0
ENDCHAR
STARTCHAR char60183
ENCODING 60183
SWIDTH 2 0
DWIDTH 11 0
BBX 8 3 1 19
BITMAP
E7
E7
E7
ENDCHAR
STARTCHAR char60185
ENCODING 60185
SWIDTH 2 0
DWIDTH 11 0
BBX 3 3 4 -6
BITMAP
E0
E0
E0
ENDCHAR
STARTCHAR char60190
ENCODING 60190
SWIDTH 2 0
DWIDTH 21 0
BBX 17 37 3 -8
BITMAP
003C00
007800
00F000
01C000
000000
000000
FFFF00
FFFF00
FFFF00
E00000
E00000
E00000
E00000
E00000
E00000
E00000
FFFF00
FFFF00
FFFF00
E00000
E00000
E00000
E00000
E00000
E00000
E00000
FFFF80
FFFF80
FFFF80
000600
000C00
001C00
001C00
001C00
001F80
000F80
000180
ENDCHAR
STARTCHAR char60191
ENCODING 60191
SWIDTH 22 0
DWIDTH 18 0
BBX 15 30 1 -7
BITMAP
0038
0070
00E0
00C0
0180
0000
07E0
1FF8
3FFC
781C
700E
600E
E006
FFFE
FFFE
E000
E000
6000
700E
781C
3FFC
1FF8
07E0
01C0
0180
0380
0380
03C0
03F0
00F0
ENDCHAR
STARTCHAR char60200
ENCODING 60200
SWIDTH 12 0
DWIDTH 45 0
BBX 41 23 2 0
BITMAP
03F8000FE000
0FFE003FF800
3FFF00FFFC00
3C0780E01E00
780381C00E00
7001C1C00700
7001C1C00700
700001C00000
700001E00000
7C0000FC0000
3F80007FC000
1FF8001FF800
07FF0001FE00
007F80001F00
0003C0000700
E001C3800700
E000E3800380
E001E1C00700
7001C1C00700
7803C1F00F00
3FFF80FFFE00
1FFF007FFC00
03F8000FE000
ENDCHAR
STARTCHAR char60201
ENCODING 60201
SWIDTH 22 0
DWIDTH 18 0
BBX 14 25 2 -7
BITMAP
0700
0700
0700
0000
0000
0000
0700
0700
0700
0700
0F00
1F00
3F00
7B00
F300
E300
E31C
E318
E338
E338
F378
7FF0
1FE0
0300
0300
ENDCHAR
STARTCHAR char60202
ENCODING 60202
SWIDTH 2 0
DWIDTH 11 0
BBX 6 5 0 18
BITMAP
F0
70
38
18
0C
ENDCHAR
STARTCHAR char60203
ENCODING 60203
SWIDTH 13 0
DWIDTH 25 0
BBX 22 27 1 -2
BITMAP
001000
001000
00FE00
03FF80
0FFFE0
1F01F0
1C0070
380038
780038
700000
700000
700000
E00000
E00FFC
E00FFC
E00FFC
70001C
70001C
70001C
38003C
3C007C
1F00FC
0FFFDC
07FF8C
00FC00
001000
001000
ENDCHAR
STARTCHAR char60206
ENCODING 60206
SWIDTH 2 0
DWIDTH 11 0
BBX 11 5 2 18
BITMAP
3DE0
39C0
7380
E300
C600
ENDCHAR
STARTCHAR char60207
ENCODING 60207
SWIDTH 14 0
DWIDTH 5 0
BBX 8 2 1 8
BITMAP
FF
FF
ENDCHAR
STARTCHAR char60208
ENCODING 60208
SWIDTH 2 0
DWIDTH 11 0
BBX 8 2 1 12
BITMAP
FF
FF
ENDCHAR
STARTCHAR char60209
ENCODING 60209
SWIDTH 2 0
DWIDTH 11 0
BBX 8 8 1 5
BITMAP
FF
FF
00
00
00
00
FF
FF
ENDCHAR
STARTCHAR char60210
ENCODING 60210
SWIDTH 14 0
DWIDTH 5 0
BBX 8 8 1 5
BITMAP
FF
FF
00
00
00
00
FF
FF
ENDCHAR
STARTCHAR char60213
ENCODING 60213
SWIDTH 25 0
DWIDTH 9 0
BBX 10 37 1 -8
BITMAP
07C0
0700
0E00
1C00
0000
0000
3800
3800
3800
3800
3800
3800
3800
3800
3800
3800
3800
3800
3800
3800
3800
3800
3800
3800
3800
3800
3800
3800
3800
3000
6000
6000
E000
E000
FC00
7C00
0C00
ENDCHAR
STARTCHAR char60214
ENCODING 60214
SWIDTH 25 0
DWIDTH 9 0
BBX 8 31 1 -8
BITMAP
07
0E
0C
18
30
00
38
38
38
38
38
38
38
38
38
38
38
38
38
38
38
38
38
30
60
60
E0
E0
FC
7C
0C
ENDCHAR
STARTCHAR char60218
ENCODING 60218
SWIDTH 16 0
DWIDTH 16 0
BBX 17 29 1 0
BITMAP
000780
000F00
001C00
003800
000000
000000
003800
003800
003800
003800
003800
003800
003800
003800
003800
003800
003800
003800
003800
003800
003800
E03800
E03800
E07800
E07000
F07000
7FF000
7FE000
1F8000
ENDCHAR
STARTCHAR char60219
ENCODING 60219
SWIDTH 19 0
DWIDTH 7 0
BBX 9 30 -1 -7
BITMAP
0380
0700
0600
0C00
1800
0000
1C00
1C00
1C00
1C00
1C00
1C00
1C00
1C00
1C00
1C00
1C00
1C00
1C00
1C00
1C00
1C00
1C00
1C00
1C00
1C00
1C00
3C00
F800
F000
ENDCHAR
STARTCHAR char60224
ENCODING 60224
SWIDTH 4 0
DWIDTH 32 0
BBX 30 27 1 -2
BITMAP
00007FE0
0003FFFC
000F601C
003C603C
0070607C
00C060CC
0180638C
0380670C
06806E08
0E807818
0C807FF8
1880FFF0
1881C030
30870030
308E0060
609C0060
60B000C0
60FFFFC0
41FFFF80
C3800300
C6000600
CC001C00
F8003800
F000F000
E003C000
FFFF0000
1FF80000
ENDCHAR
STARTCHAR char60227
ENCODING 60227
SWIDTH 2 0
DWIDTH 11 0
BBX 9 2 1 20
BITMAP
FF80
FF80
ENDCHAR
STARTCHAR char60232
ENCODING 60232
SWIDTH 13 0
DWIDTH 25 0
BBX 23 35 1 -7
BITMAP
0007C0
000F00
000E00
001800
000000
00FE00
03FF80
0FFFE0
1F01F0
3C0078
380038
70003C
70001C
70001C
E0000E
E0000E
E0000E
E0000E
E0000E
F0001C
70001C
70001C
380038
3C0078
1E01F0
0FFFE0
07FF80
00FE00
001800
003800
003000
003000
003C00
003E00
001E00
ENDCHAR
STARTCHAR char60233
ENCODING 60233
SWIDTH 22 0
DWIDTH 18 0
BBX 15 30 1 -7
BITMAP
0038
0070
00E0
00C0
0180
0000
07E0
1FF8
3FFC
781C
700E
E00E
E00E
E00E
E006
E00E
E00E
E00E
700E
781C
3FF8
1FF0
07E0
00C0
0180
0380
0380
03C0
01F0
00F0
ENDCHAR
STARTCHAR char60236
ENCODING 60236
SWIDTH 19 0
DWIDTH 17 0
BBX 9 29 4 -6
BITMAP
0780
1F80
3F80
7F80
7F80
7F80
FF80
FF80
FF80
FF80
7F80
7F80
3F80
1F80
0F80
0180
0180
0180
0180
0180
0180
0180
0180
0180
0180
0180
0180
0180
0180
ENDCHAR
STARTCHAR char60237
ENCODING 60237
SWIDTH 8 0
DWIDTH 13 0
BBX 11 11 2 0
BITMAP
1E00
7F80
F3C0
C0C0
C0C0
C0E0
C0C0
E0C0
F3C0
7F80
1E00
ENDCHAR
STARTCHAR char60242
ENCODING 60242
SWIDTH 2 0
DWIDTH 11 0
BBX 8 8 2 -5
BITMAP
E7
E7
E7
E7
C7
C6
C6
C2
ENDCHAR
STARTCHAR char60246
ENCODING 60246
SWIDTH 16 0
DWIDTH 6 0
BBX 3 8 2 -5
BITMAP
E0
E0
E0
E0
C0
C0
C0
C0
ENDCHAR
STARTCHAR char60247
ENCODING 60247
SWIDTH 16 0
DWIDTH 6 0
BBX 3 8 2 14
BITMAP
E0
E0
E0
E0
C0
C0
C0
C0
ENDCHAR
STARTCHAR char60250
ENCODING 60250
SWIDTH 16 0
DWIDTH 16 0
BBX 12 12 2 14
BITMAP
0F00
30C0
4020
9F20
9190
9F10
9110
9110
51A0
4040
30C0
0600
ENDCHAR
STARTCHAR char60257
ENCODING 60257
SWIDTH 19 0
DWIDTH 7 0
BBX 7 10 0 8
BITMAP
02
06
0E
1C
38
70
60
C0
80
80
ENDCHAR
STARTCHAR char60259
ENCODING 60259
SWIDTH 2 0
DWIDTH 11 0
BBX 14 4 4 19
BITMAP
1FE0
7FF8
FCFC
E00C
ENDCHAR
STARTCHAR char60260
ENCODING 60260
SWIDTH 19 0
DWIDTH 17 0
BBX 14 4 1 19
BITMAP
1FE0
7FF8
FCFC
E00C
ENDCHAR
STARTCHAR char60261
ENCODING 60261
SWIDTH 25 0
DWIDTH 9 0
BBX 10 4 3 19
BITMAP
3F00
7F80
FBC0
E0C0
ENDCHAR
STARTCHAR char60262
ENCODING 60262
SWIDTH 16 0
DWIDTH 16 0
BBX 10 4 3 19
BITMAP
3F00
7F80
FFC0
C1C0
ENDCHAR
STARTCHAR char60263
ENCODING 60263
SWIDTH 24 0
DWIDTH 19 0
BBX 14 6 2 -3
BITMAP
3C00
7E04
678C
43CC
C1FC
0078
ENDCHAR
STARTCHAR char60267
ENCODING 60267
SWIDTH 2 0
DWIDTH 21 0
BBX 21 2 0 8
BITMAP
FFFFF8
FFFFF8
ENDCHAR
STARTCHAR char60270
ENCODING 60270
SWIDTH 7 0
DWIDTH 23 0
BBX 18 29 3 -6
BITMAP
E001C0
E001C0
E001C0
E001C0
E001C0
E001C0
E001C0
E001C0
E001C0
E001C0
E001C0
E001C0
E001C0
E001C0
E001C0
E001C0
E001C0
E00380
F00380
780F00
3FFF00
1FFC00
07F000
000000
000000
07F000
0FFC00
1C1C00
180C00
ENDCHAR
STARTCHAR char60271
ENCODING 60271
SWIDTH 22 0
DWIDTH 18 0
BBX 13 23 2 -6
BITMAP
E018
E018
E018
E018
E018
E018
E018
E018
E018
E018
E018
E038
E038
E078
79F8
7FD8
1F18
0000
0000
1FE0
3FF0
7030
6038
ENDCHAR
STARTCHAR char60286
ENCODING 60286
SWIDTH 16 0
DWIDTH 16 0
BBX 18 23 1 0
BITMAP
0039C0
0039C0
0039C0
003840
0038C0
0038C0
003980
003800
003800
003800
003800
003800
003800
003800
003800
E03800
E03800
E07800
E07000
E07000
7FF000
7FE000
1F8000
ENDCHAR
STARTCHAR char60416
ENCODING 60416
SWIDTH 16 0
DWIDTH 16 0
BBX 12 12 2 14
BITMAP
0E00
3180
4040
4F20
9090
9010
9010
9090
4F20
4020
30C0
0600
ENDCHAR
STARTCHAR char60422
ENCODING 60422
SWIDTH 25 0
DWIDTH 9 0
BBX 5 22 2 0
BITMAP
F8
F8
00
00
00
70
70
70
70
70
70
70
70
70
70
70
70
70
70
70
70
70
ENDCHAR
STARTCHAR char60423
ENCODING 60423
SWIDTH 25 0
DWIDTH 9 0
BBX 5 28 2 0
BITMAP
F8
F8
00
00
00
70
70
70
70
70
70
70
70
70
70
70
70
70
70
70
70
70
70
70
70
70
70
70
ENDCHAR
STARTCHAR char60424
ENCODING 60424
SWIDTH 7 0
DWIDTH 23 0
BBX 18 28 3 0
BITMAP
0F9800
0FF800
187000
000000
000000
E001C0
E001C0
E001C0
E001C0
E001C0
E001C0
E001C0
E001C0
E001C0
E001C0
FFFFC0
FFFFC0
FFFFC0
E001C0
E001C0
E001C0
E001C0
E001C0
E001C0
E001C0
E001C0
E001C0
E001C0
ENDCHAR
STARTCHAR char60425
ENCODING 60425
SWIDTH 22 0
DWIDTH 18 0
BBX 14 28 2 0
BITMAP
1E70
3FE0
31C0
0000
0000
E000
E000
E000
E000
E000
E000
E3E0
EFF0
FE78
F038
F01C
E01C
E01C
E01C
E01C
E01C
E01C
E01C
E01C
E01C
E01C
E01C
E01C
ENDCHAR
STARTCHAR char60426
ENCODING 60426
SWIDTH 22 0
DWIDTH 18 0
BBX 18 28 -1 0
BITMAP
78C000
FF8000
C78000
000000
000000
0E0000
0E0000
0E0000
0E0000
0E0000
0E0000
0E0000
0E0000
0E0000
0E0000
0E0000
0E0000
0E0000
0E0000
0E0000
0E0000
0E0000
0E0000
0E0000
0E0000
0FFFC0
0FFFC0
0FFFC0
ENDCHAR
STARTCHAR char60427
ENCODING 60427
SWIDTH 19 0
DWIDTH 7 0
BBX 10 28 -2 0
BITMAP
7CC0
7FC0
C380
0000
0000
0E00
0E00
0E00
0E00
0E00
0E00
0E00
0E00
0E00
0E00
0E00
0E00
0E00
0E00
0E00
0E00
0E00
0E00
0E00
0E00
0E00
0E00
0E00
ENDCHAR
STARTCHAR char60428
ENCODING 60428
SWIDTH 27 0
DWIDTH 20 0
BBX 18 28 1 0
BITMAP
079C00
0FF800
0C7000
000000
000000
FFFFC0
FFFFC0
FFFFC0
01C000
01C000
01C000
01C000
01C000
01C000
01C000
01C000
01C000
01C000
01C000
01C000
01C000
01C000
01C000
01C000
01C000
01C000
01C000
01C000
ENDCHAR
STARTCHAR char60429
ENCODING 60429
SWIDTH 25 0
DWIDTH 9 0
BBX 10 27 -1 0
BITMAP
78C0
FFC0
CF80
0000
0000
0C00
0C00
0C00
0C00
0C00
7F80
7F80
0C00
0C00
0C00
0C00
0C00
0C00
0C00
0C00
0C00
0C00
0C00
0C00
0E00
0F80
0780
ENDCHAR
STARTCHAR char60430
ENCODING 60430
SWIDTH 27 0
DWIDTH 20 0
BBX 18 28 1 0
BITMAP
073800
073800
073800
000000
000000
FFFFC0
FFFFC0
FFFFC0
01C000
01C000
01C000
01C000
01C000
01C000
01C000
01C000
01C000
01C000
01C000
01C000
01C000
01C000
01C000
01C000
01C000
01C000
01C000
01C000
ENDCHAR
STARTCHAR char60432
ENCODING 60432
SWIDTH 13 0
DWIDTH 25 0
BBX 23 33 1 -5
BITMAP
001000
001000
001000
001000
00FE00
03FF80
0FFFE0
1F01F0
1C0070
380078
780038
70001C
70001C
F0001C
E0000E
E0000E
E0000E
E0000E
E0000E
F0001C
70001C
70001C
780038
3C0078
1E00F0
0F83E0
07FFC0
03FF80
003800
001000
001000
001000
001000
ENDCHAR
STARTCHAR char60433
ENCODING 60433
SWIDTH 22 0
DWIDTH 18 0
BBX 15 27 1 -5
BITMAP
0180
0180
0180
0180
0180
0FE0
1FF8
3C7C
781C
700E
E00E
E00E
E00E
E006
E00E
E00E
E00E
700E
701C
3C3C
3FF8
0FF0
0180
0180
0180
0180
0180
ENDCHAR
STARTCHAR char60434
ENCODING 60434
SWIDTH 2 0
DWIDTH 21 0
BBX 18 27 1 -5
BITMAP
00C000
00C000
00C000
00C000
00C000
07F800
1FFC00
3E1F00
380700
700380
600180
E001C0
E001C0
E001C0
E001C0
E001C0
E001C0
700380
700780
3C0F00
1FFE00
07F800
00C000
00C000
00C000
00C000
00C000
ENDCHAR
STARTCHAR char63032
ENCODING 63032
SWIDTH 22 0
DWIDTH 18 0
BBX 15 22 1 0
BITMAP
E7C0
7FF0
7FF8
383C
781C
7C0E
7E0E
6E0E
E70E
E30E
E38E
E18E
E1CE
E0EE
60EE
707E
703E
703C
381C
3E7C
1FFE
07CE
ENDCHAR
STARTCHAR char63033
ENCODING 63033
SWIDTH 24 0
DWIDTH 19 0
BBX 15 22 2 0
BITMAP
07C0
1FF0
3FF8
383C
701C
701C
600E
E00E
E00E
E00E
E00E
E00E
E00E
E00E
E00E
600E
701C
701C
383C
3C78
1FF0
07C0
ENDCHAR
STARTCHAR char63034
ENCODING 63034
SWIDTH 27 0
DWIDTH 20 0
BBX 15 22 2 0
BITMAP
07E0
1FF8
3FFC
381E
700E
700E
7006
700E
000E
001E
003C
00F8
03F0
07C0
1F00
3C00
3800
7000
6000
FFFE
FFFE
FFFE
ENDCHAR
STARTCHAR char63035
ENCODING 63035
SWIDTH 27 0
DWIDTH 20 0
BBX 15 22 2 0
BITMAP
07E0
1FF8
3FFC
781C
701E
700E
600E
001C
003C
03F8
03F8
003C
000E
000E
000E
E00E
E00E
700E
701C
3FFC
1FF8
0FE0
ENDCHAR
STARTCHAR char63036
ENCODING 63036
SWIDTH 27 0
DWIDTH 20 0
BBX 16 22 2 0
BITMAP
0038
0078
0078
00F8
01F8
03B8
0338
0738
0E38
1C38
3838
3838
7038
E038
FFFF
FFFF
FFFF
0038
0038
0038
0038
0038
ENDCHAR
STARTCHAR char63037
ENCODING 63037
SWIDTH 27 0
DWIDTH 20 0
BBX 15 22 2 0
BITMAP
3FFC
3FFC
3FFC
3800
3800
3000
3000
73E0
7FF8
7FFC
781E
700E
000E
000E
0006
0006
E00E
700E
781C
3FFC
1FF8
07E0
ENDCHAR
STARTCHAR char63038
ENCODING 63038
SWIDTH 24 0
DWIDTH 19 0
BBX 15 22 2 0
BITMAP
07E0
0FF8
1FF8
381C
701C
700E
7000
6000
E3E0
EFF8
FFFC
F81C
F00E
E00E
E00E
E00E
600E
700E
781C
3FFC
1FF8
07E0
ENDCHAR
STARTCHAR char63039
ENCODING 63039
SWIDTH 27 0
DWIDTH 20 0
BBX 15 22 2 0
BITMAP
FFFE
FFFE
FFFE
000C
001C
0038
0030
0070
00E0
00C0
01C0
0180
0380
0380
0700
0700
0600
0E00
0E00
0E00
1C00
1C00
ENDCHAR
STARTCHAR char63040
ENCODING 63040
SWIDTH 27 0
DWIDTH 20 0
BBX 15 22 2 0
BITMAP
07E0
1FF0
3FF8
381C
701C
700E
700E
701C
383C
3FF8
0FF0
3E78
701C
F00E
E00E
E00E
E00E
E00E
701E
3CFC
1FF8
07E0
ENDCHAR
STARTCHAR char63041
ENCODING 63041
SWIDTH 24 0
DWIDTH 19 0
BBX 15 22 2 0
BITMAP
07E0
1FF0
3EF8
783C
701C
E00E
E00E
E00E
E00E
F01E
701E
3EFE
1FEE
0FCE
000E
000E
701C
701C
7838
3FF8
1FF0
0FC0
ENDCHAR
STARTCHAR char63043
ENCODING 63043
SWIDTH 22 0
DWIDTH 18 0
BBX 15 18 1 0
BITMAP
0FE0
3FF8
3FFC
701C
700E
700E
E00E
E00E
E00E
E00E
E00E
E00E
600E
700E
701C
3C3C
3FF8
0FE0
ENDCHAR
STARTCHAR char63044
ENCODING 63044
SWIDTH 22 0
DWIDTH 18 0
BBX 8 17 3 0
BITMAP
03
03
07
0F
7F
FF
FF
07
07
07
07
07
07
07
07
07
07
ENDCHAR
STARTCHAR char63045
ENCODING 63045
SWIDTH 22 0
DWIDTH 18 0
BBX 15 17 1 0
BITMAP
0FF0
3FFC
3FFE
700E
700E
700E
601E
007C
00F0
03E0
0F80
1E00
3C00
7800
7FFE
FFFE
FFFE
ENDCHAR
STARTCHAR char63046
ENCODING 63046
SWIDTH 22 0
DWIDTH 18 0
BBX 15 23 1 -6
BITMAP
1FF0
3FF8
783C
701C
701C
600E
E00C
001C
003C
03F8
03F0
00FC
001E
000E
000E
E00E
E00E
E00E
701E
783C
3FF8
1FF0
0100
ENDCHAR
STARTCHAR char63047
ENCODING 63047
SWIDTH 22 0
DWIDTH 18 0
BBX 16 22 1 -5
BITMAP
0030
0070
00F0
00F0
01F0
03F0
0770
0670
0E70
1C70
3870
3870
7070
E070
FFFF
FFFF
FFFF
0070
0070
0070
0070
0070
ENDCHAR
STARTCHAR char63048
ENCODING 63048
SWIDTH 22 0
DWIDTH 18 0
BBX 15 23 1 -6
BITMAP
3FFC
3FFC
3FFC
3800
3800
3000
3000
7000
7FF0
7FF8
783C
701E
000E
000E
000E
0006
000E
E00E
700E
781C
3EF8
1FF0
07E0
ENDCHAR
STARTCHAR char63049
ENCODING 63049
SWIDTH 22 0
DWIDTH 18 0
BBX 15 22 1 0
BITMAP
03E0
0FF8
1FFC
3C1C
380E
700E
7000
6000
63E0
EFF8
FFFC
F81E
F00E
F00E
600E
600E
700E
700E
381C
3FFC
1FF8
07E0
ENDCHAR
STARTCHAR char63050
ENCODING 63050
SWIDTH 22 0
DWIDTH 18 0
BBX 16 22 1 -5
BITMAP
FFFF
FFFF
FFFF
000E
001C
0018
0038
0070
0060
00E0
00C0
01C0
0180
0380
0300
0700
0700
0600
0E00
0E00
0E00
0C00
ENDCHAR
STARTCHAR char63051
ENCODING 63051
SWIDTH 22 0
DWIDTH 18 0
BBX 15 22 1 0
BITMAP
07E0
1FF8
3FFC
781C
701C
700E
700E
701C
3C3C
1FF8
1FF0
3E7C
701E
F00E
E00E
E006
E00E
F00E
781E
3FFC
1FF8
07E0
ENDCHAR
STARTCHAR char63052
ENCODING 63052
SWIDTH 22 0
DWIDTH 18 0
BBX 15 23 1 -6
BITMAP
0FE0
3FF8
3C3C
701C
700C
E00E
E00E
E00E
E00E
701E
701E
3EFE
1FEE
0FCE
000E
000E
000C
701C
703C
3878
3FF0
1FE0
0100
ENDCHAR
STARTCHAR char63085
ENCODING 63085
SWIDTH 22 0
DWIDTH 18 0
BBX 16 23 1 0
BITMAP
1818
1E70
0FF0
03C0
0000
0000
03C0
03C0
07E0
07E0
0660
0E70
0E70
0C30
1C38
1838
3FFC
3FFC
301C
700E
700E
E006
E007
ENDCHAR
STARTCHAR char63086
ENCODING 63086
SWIDTH 22 0
DWIDTH 18 0
BBX 16 22 1 0
BITMAP
0FF0
0FF0
0000
0000
0000
03C0
03C0
07E0
07E0
0660
0E70
0E70
0C30
1C38
1838
3FFC
3FFC
301C
700E
700E
E006
E007
ENDCHAR
STARTCHAR char63087
ENCODING 63087
SWIDTH 22 0
DWIDTH 18 0
BBX 16 25 1 -8
BITMAP
03C0
03C0
07E0
07E0
0660
0E70
0E70
0C30
1C38
1838
3FFC
3FFC
301C
700E
700E
E006
E007
000E
000C
0018
0018
0018
001F
000F
0003
ENDCHAR
STARTCHAR char63088
ENCODING 63088
SWIDTH 16 0
DWIDTH 26 0
BBX 23 23 1 0
BITMAP
000380
000700
000E00
000C00
001800
000000
01FFFE
01FFFE
039C00
031C00
071C00
061C00
0E1C00
0E1FFC
1C1FFC
1C1C00
1FFC00
3FFC00
381C00
701C00
701C00
E01FFE
E01FFE
ENDCHAR
STARTCHAR char63089
ENCODING 63089
SWIDTH 22 0
DWIDTH 18 0
BBX 16 23 1 0
BITMAP
003C
0038
0070
00E0
00C0
0000
03F0
0FFC
1E1E
380E
7007
7007
6000
E000
E000
E000
E003
6007
7007
380E
3E1E
0FFC
03F0
ENDCHAR
STARTCHAR char63090
ENCODING 63090
SWIDTH 22 0
DWIDTH 18 0
BBX 16 23 1 0
BITMAP
0C18
0630
0770
03E0
01C0
0000
03F0
0FFC
1E1E
380E
7007
7007
6000
E000
E000
E000
E003
6007
7007
380E
3E1E
0FFC
03F0
ENDCHAR
STARTCHAR char63091
ENCODING 63091
SWIDTH 22 0
DWIDTH 18 0
BBX 16 23 1 0
BITMAP
01C0
03E0
0770
0630
0C18
0000
03F0
0FFC
1E1E
380E
7007
7007
6000
E000
E000
E000
E003
6007
7007
380E
3E1E
0FFC
03F0
ENDCHAR
STARTCHAR char63092
ENCODING 63092
SWIDTH 22 0
DWIDTH 18 0
BBX 16 22 1 0
BITMAP
01C0
01C0
01C0
0000
0000
03F0
0FFC
1E1E
380E
7007
7007
6000
E000
E000
E000
E003
6007
7007
380E
3E1E
0FFC
03F0
ENDCHAR
STARTCHAR char63093
ENCODING 63093
SWIDTH 24 0
DWIDTH 19 0
BBX 14 23 3 0
BITMAP
30E0
19C0
0F80
0F00
0000
0000
FFC0
FFF0
C0F8
C038
C01C
C01C
C00C
C00C
C00C
C00C
C00C
C01C
C01C
C038
C0F8
FFE0
FFC0
ENDCHAR
STARTCHAR char63095
ENCODING 63095
SWIDTH 19 0
DWIDTH 17 0
BBX 13 23 3 0
BITMAP
6060
39E0
3FC0
0F00
0000
0000
FFF8
FFF8
C000
C000
C000
C000
C000
FFF0
FFF0
C000
C000
C000
C000
C000
C000
FFF8
FFF8
ENDCHAR
STARTCHAR char63096
ENCODING 63096
SWIDTH 19 0
DWIDTH 17 0
BBX 13 23 3 0
BITMAP
30C0
19C0
1F80
0F00
0000
0000
FFF8
FFF8
C000
C000
C000
C000
C000
FFF0
FFF0
C000
C000
C000
C000
C000
C000
FFF8
FFF8
ENDCHAR
STARTCHAR char63097
ENCODING 63097
SWIDTH 19 0
DWIDTH 17 0
BBX 13 22 3 0
BITMAP
0F00
0F00
0F00
0000
0000
FFF8
FFF8
C000
C000
C000
C000
C000
FFF0
FFF0
C000
C000
C000
C000
C000
C000
FFF8
FFF8
ENDCHAR
STARTCHAR char63098
ENCODING 63098
SWIDTH 19 0
DWIDTH 17 0
BBX 13 22 3 0
BITMAP
3FC0
3FC0
0000
0000
0000
FFF8
FFF8
C000
C000
C000
C000
C000
FFF0
FFF0
C000
C000
C000
C000
C000
C000
FFF8
FFF8
ENDCHAR
STARTCHAR char63099
ENCODING 63099
SWIDTH 24 0
DWIDTH 19 0
BBX 15 25 2 -8
BITMAP
E00E
F00E
F80E
FC0E
FC0E
EE0E
E70E
E70E
E38E
E1CE
E1CE
E0EE
E07E
E03E
E03E
E01E
E00E
000E
000E
0E0E
0E0E
0E0E
071C
07FC
01F0
ENDCHAR
STARTCHAR char63100
ENCODING 63100
SWIDTH 19 0
DWIDTH 17 0
BBX 13 25 3 -8
BITMAP
FFF8
FFF8
C000
C000
C000
C000
C000
FFF0
FFF0
C000
C000
C000
C000
C000
C000
FFF8
FFF8
0070
00E0
00C0
00C0
01C0
00F8
00F8
0018
ENDCHAR
STARTCHAR char63101
ENCODING 63101
SWIDTH 27 0
DWIDTH 20 0
BBX 17 23 1 0
BITMAP
0C0C00
0E1C00
07F800
03F000
000000
000000
03F000
0FFC00
1E1E00
380700
700380
600380
E00000
E00000
E07F80
E07F80
E00180
600180
700380
380780
3E1F80
0FFD80
07F180
ENDCHAR
STARTCHAR char63102
ENCODING 63102
SWIDTH 27 0
DWIDTH 20 0
BBX 17 23 1 0
BITMAP
01E000
01F000
033000
073800
061800
000000
03F000
0FFC00
1E1E00
380700
700380
600380
E00000
E00000
E07F80
E07F80
E00180
600180
700380
380780
3E1F80
0FFD80
07F180
ENDCHAR
STARTCHAR char63103
ENCODING 63103
SWIDTH 27 0
DWIDTH 20 0
BBX 17 26 1 -9
BITMAP
03F000
0FFC00
1E1E00
380700
700380
600380
E00000
E00000
E07F80
E07F80
E00180
600180
700380
380780
3E1F80
0FFD80
07F180
000000
000000
01E000
01E000
01E000
006000
006000
00C000
018000
ENDCHAR
STARTCHAR char63104
ENCODING 63104
SWIDTH 27 0
DWIDTH 20 0
BBX 17 22 1 0
BITMAP
01E000
01E000
01E000
000000
000000
03F000
0FFC00
1E1E00
380700
700380
600380
E00000
E00000
E07F80
E07F80
E00180
600180
700380
380780
3E1F80
0FFD80
07F180
ENDCHAR
STARTCHAR char63105
ENCODING 63105
SWIDTH 24 0
DWIDTH 19 0
BBX 16 17 1 0
BITMAP
700E
700E
700E
FFFF
700E
700E
700E
7FFE
7FFE
700E
700E
700E
700E
700E
700E
700E
700E
ENDCHAR
STARTCHAR char63106
ENCODING 63106
SWIDTH 24 0
DWIDTH 19 0
BBX 14 23 3 0
BITMAP
0F80
1FC0
38E0
3070
0000
0000
C01C
C01C
C01C
C01C
C01C
C01C
C01C
FFFC
FFFC
C01C
C01C
C01C
C01C
C01C
C01C
C01C
C01C
ENDCHAR
STARTCHAR char63107
ENCODING 63107
SWIDTH 22 0
DWIDTH 8 0
BBX 10 23 -1 0
BITMAP
C0C0
71C0
7F80
1F00
0000
0000
0E00
0E00
0E00
0E00
0E00
0E00
0E00
0E00
0E00
0E00
0E00
0E00
0E00
0E00
0E00
0E00
0E00
ENDCHAR
STARTCHAR char63108
ENCODING 63108
SWIDTH 27 0
DWIDTH 20 0
BBX 16 17 2 0
BITMAP
E007
E007
E007
E007
E007
E007
E007
E007
E007
E007
E007
E707
E707
E707
E38E
E3FE
E0F8
ENDCHAR
STARTCHAR char63109
ENCODING 63109
SWIDTH 22 0
DWIDTH 8 0
BBX 9 22 0 0
BITMAP
FF80
FF80
0000
0000
0000
1C00
1C00
1C00
1C00
1C00
1C00
1C00
1C00
1C00
1C00
1C00
1C00
1C00
1C00
1C00
1C00
1C00
ENDCHAR
STARTCHAR char63110
ENCODING 63110
SWIDTH 22 0
DWIDTH 8 0
BBX 5 25 1 -8
BITMAP
38
38
38
38
38
38
38
38
38
38
38
38
38
38
38
38
38
30
60
C0
C0
E0
F8
78
18
ENDCHAR
STARTCHAR char63111
ENCODING 63111
SWIDTH 22 0
DWIDTH 8 0
BBX 10 22 -1 0
BITMAP
78C0
7FC0
CF80
0000
0000
0E00
0E00
0E00
0E00
0E00
0E00
0E00
0E00
0E00
0E00
0E00
0E00
0E00
0E00
0E00
0E00
0E00
ENDCHAR
STARTCHAR char63112
ENCODING 63112
SWIDTH 10 0
DWIDTH 14 0
BBX 13 23 1 0
BITMAP
01E0
03F0
0330
0618
0000
0000
00C0
00C0
00C0
00C0
00C0
00C0
00C0
00C0
00C0
00C0
00C0
E0C0
E0C0
E1C0
F1C0
7F80
3F00
ENDCHAR
STARTCHAR char63113
ENCODING 63113
SWIDTH 22 0
DWIDTH 18 0
BBX 15 26 2 -9
BITMAP
E01E
E03C
E078
E0F0
E1C0
E380
E700
EF00
FF80
F9C0
F1C0
E0E0
E070
E038
E038
E01C
E00E
0000
0000
0380
0380
0380
0080
0080
0180
0300
ENDCHAR
STARTCHAR char63114
ENCODING 63114
SWIDTH 13 0
DWIDTH 15 0
BBX 12 23 2 0
BITMAP
1E00
1C00
3800
7000
6000
0000
E000
E000
E000
E000
E000
E000
E000
E000
E000
E000
E000
E000
E000
E000
E000
FFF0
FFF0
ENDCHAR
STARTCHAR char63115
ENCODING 63115
SWIDTH 13 0
DWIDTH 15 0
BBX 11 17 2 0
BITMAP
C700
C700
C700
C300
C300
C200
C600
C000
C000
C000
C000
C000
C000
C000
C000
FFE0
FFE0
ENDCHAR
STARTCHAR char63116
ENCODING 63116
SWIDTH 13 0
DWIDTH 15 0
BBX 12 26 2 -9
BITMAP
E000
E000
E000
E000
E000
E000
E000
E000
E000
E000
E000
E000
E000
E000
E000
FFF0
FFF0
0000
0000
0700
0700
0700
0300
0300
0200
0600
ENDCHAR
STARTCHAR char63117
ENCODING 63117
SWIDTH 13 0
DWIDTH 15 0
BBX 11 17 2 0
BITMAP
C000
C000
C000
C000
C000
C000
C000
C1C0
C1C0
C1C0
C000
C000
C000
C000
C000
FFE0
FFE0
ENDCHAR
STARTCHAR char63118
ENCODING 63118
SWIDTH 24 0
DWIDTH 19 0
BBX 15 23 2 0
BITMAP
0078
0070
00E0
01C0
0180
0000
E00E
F00E
F80E
FC0E
FC0E
EE0E
E70E
E70E
E38E
E1CE
E1CE
E0EE
E07E
E03E
E03E
E01E
E00E
ENDCHAR
STARTCHAR char63119
ENCODING 63119
SWIDTH 24 0
DWIDTH 19 0
BBX 15 23 2 0
BITMAP
1C30
0E60
07C0
0380
0000
0000
E00E
F00E
F80E
FC0E
FC0E
EE0E
E70E
E70E
E38E
E1CE
E1CE
E0EE
E07E
E03E
E03E
E01E
E00E
ENDCHAR
STARTCHAR char63120
ENCODING 63120
SWIDTH 24 0
DWIDTH 19 0
BBX 15 26 2 -9
BITMAP
E00E
F00E
F80E
FC0E
FC0E
EE0E
E70E
E70E
E38E
E1CE
E1CE
E0EE
E07E
E03E
E03E
E01E
E00E
0000
0000
0380
0380
0380
0080
0080
0180
0300
ENDCHAR
STARTCHAR char63121
ENCODING 63121
SWIDTH 27 0
DWIDTH 20 0
BBX 18 23 1 0
BITMAP
0C0C00
0E1800
07F800
03F000
000000
000000
03F000
0FFC00
3E1E00
380700
700380
600180
E001C0
E001C0
E001C0
E001C0
E001C0
600180
700380
780700
3E1F00
1FFC00
03F000
ENDCHAR
STARTCHAR char63122
ENCODING 63122
SWIDTH 27 0
DWIDTH 20 0
BBX 18 23 1 0
BITMAP
00E700
01CF00
018E00
031C00
063800
000000
03F000
0FFC00
3E1E00
380700
700380
600180
E001C0
E001C0
E001C0
E001C0
E001C0
600180
700380
780700
3E1F00
1FFC00
03F000
ENDCHAR
STARTCHAR char63123
ENCODING 63123
SWIDTH 27 0
DWIDTH 20 0
BBX 18 22 1 0
BITMAP
0FF800
0FF800
000000
000000
000000
03F000
0FFC00
3E1E00
380700
700380
600180
E001C0
E001C0
E001C0
E001C0
E001C0
600180
700380
780700
3E1F00
1FFC00
03F000
ENDCHAR
STARTCHAR char63124
ENCODING 63124
SWIDTH 27 0
DWIDTH 20 0
BBX 18 23 1 0
BITMAP
001C00
003800
003000
006000
00C000
000000
03F0C0
0FFDC0
1E0F00
380780
700F80
701DC0
6039C0
E071C0
E0E0C0
E181C0
6301C0
7601C0
7C0380
380780
3E1F00
6FFE00
43F000
ENDCHAR
STARTCHAR char63125
ENCODING 63125
SWIDTH 24 0
DWIDTH 19 0
BBX 15 23 3 0
BITMAP
00F0
00E0
01C0
0380
0300
0000
FFE0
FFF8
C078
C01C
C01C
C01C
C01C
C038
FFF0
FFF8
C038
C018
C01C
C01C
C01C
C01C
C01E
ENDCHAR
STARTCHAR char63126
ENCODING 63126
SWIDTH 24 0
DWIDTH 19 0
BBX 15 23 3 0
BITMAP
3860
1CC0
0F80
0700
0000
0000
FFE0
FFF8
C078
C01C
C01C
C01C
C01C
C038
FFF0
FFF8
C038
C018
C01C
C01C
C01C
C01C
C01E
ENDCHAR
ENDFONT
